LibraSans-Regular.ufo
<glyph name="quotedbl" format="1">
  <advance width="355"/>
  <unicode hex="0022"/>
  <outline>
    <contour>
      <point x="313" y="688" type="line"/>
      <point x="302" y="472" type="line"/>
      <point x="232" y="472" type="line"/>
      <point x="223" y="688" type="line"/>
    </contour>
    <contour>
      <point x="132" y="688" type="line"/>
      <point x="122" y="472" type="line"/>
      <point x="53" y="472" type="line"/>
      <point x="42" y="688" type="line"/>
    </contour>
  </outline>
</glyph>
<glyph name="numbersign" format="1">
  <advance width="556"/>
  <unicode hex="0023"/>
  <outline>
    <contour>
      <point x="551" y="432" type="line"/>
      <point x="438" y="432" type="line"/>
      <point x="399" y="252" type="line"/>
      <point x="526" y="252" type="line"/>
      <point x="526" y="199" type="line"/>
      <point x="388" y="199" type="line"/>
      <point x="345" y="0" type="line"/>
      <point x="292" y="0" type="line"/>
      <point x="333" y="199" type="line"/>
      <point x="156" y="199" type="line"/>
      <point x="115" y="0" type="line"/>
      <point x="62" y="0" type="line"/>
      <point x="103" y="199" type="line"/>
      <point x="4" y="199" type="line"/>
      <point x="4" y="252" type="line"/>
      <point x="114" y="252" type="line"/>
      <point x="152" y="432" type="line"/>
      <point x="29" y="432" type="line"/>
      <point x="29" y="485" type="line"/>
      <point x="163" y="485" type="line"/>
      <point x="207" y="684" type="line"/>
      <point x="260" y="684" type="line"/>
      <point x="217" y="485" type="line"/>
      <point x="395" y="485" type="line"/>
      <point x="438" y="684" type="line"/>
      <point x="491" y="684" type="line"/>
      <point x="448" y="485" type="line"/>
      <point x="551" y="485" type="line"/>
    </contour>
    <contour>
      <point x="383" y="432" type="line"/>
      <point x="208" y="432" type="line"/>
      <point x="168" y="252" type="line"/>
      <point x="345" y="252" type="line"/>
    </contour>
  </outline>
</glyph>
<glyph name="dollar" format="1">
  <advance width="556"/>
  <unicode hex="0024"/>
  <outline>
    <contour>
      <point x="253" y="-69" type="line"/>
      <point x="253" y="10" type="line"/>
      <point x="114" y="16"/>
      <point x="34" y="74"/>
      <point x="11" y="185" type="curve"/>
      <point x="94" y="203" type="line"/>
      <point x="110" y="126"/>
      <point x="161" y="87"/>
      <point x="253" y="82" type="curve"/>
      <point x="253" y="324" type="line"/>
      <point x="196" y="339"/>
      <point x="156" y="352"/>
      <point x="134" y="363" type="curve" smooth="yes"/>
      <point x="112" y="374"/>
      <point x="94" y="387"/>
      <point x="80" y="402" type="curve" smooth="yes"/>
      <point x="53" y="431"/>
      <point x="42" y="463"/>
      <point x="42" y="511" type="curve" smooth="yes"/>
      <point x="42" y="611"/>
      <point x="118" y="671"/>
      <point x="253" y="676" type="curve"/>
      <point x="253" y="740" type="line"/>
      <point x="313" y="740" type="line"/>
      <point x="313" y="676" type="line"/>
      <point x="436" y="671"/>
      <point x="497" y="624"/>
      <point x="525" y="520" type="curve"/>
      <point x="440" y="504" type="line"/>
      <point x="427" y="565"/>
      <point x="390" y="599"/>
      <point x="313" y="606" type="curve"/>
      <point x="313" y="389" type="line"/>
      <point x="372" y="376"/>
      <point x="413" y="363"/>
      <point x="438" y="351" type="curve" smooth="yes"/>
      <point x="463" y="340"/>
      <point x="482" y="327"/>
      <point x="496" y="313" type="curve" smooth="yes"/>
      <point x="525" y="285"/>
      <point x="540" y="246"/>
      <point x="540" y="193" type="curve" smooth="yes"/>
      <point x="540" y="86"/>
      <point x="458" y="17"/>
      <point x="313" y="10" type="curve"/>
      <point x="313" y="-69" type="line"/>
    </contour>
    <contour>
      <point x="456" y="192" type="curve" smooth="yes"/>
      <point x="456" y="213"/>
      <point x="452" y="231"/>
      <point x="443" y="244" type="curve" smooth="yes"/>
      <point x="435" y="258"/>
      <point x="423" y="269"/>
      <point x="407" y="278" type="curve" smooth="yes"/>
      <point x="391" y="287"/>
      <point x="360" y="298"/>
      <point x="313" y="310" type="curve"/>
      <point x="313" y="82" type="line"/>
      <point x="405" y="87"/>
      <point x="456" y="127"/>
    </contour>
    <contour>
      <point x="126" y="512" type="curve"/>
      <point x="132" y="452"/>
      <point x="148" y="430"/>
      <point x="253" y="402" type="curve"/>
      <point x="253" y="607" type="line"/>
      <point x="168" y="603"/>
      <point x="126" y="571"/>
    </contour>
  </outline>
</glyph>
<glyph name="one" format="1">
  <advance width="556"/>
  <unicode hex="0031"/>
  <outline>
    <contour>
      <point x="507" y="0" type="line"/>
      <point x="76" y="0" type="line"/>
      <point x="76" y="75" type="line"/>
      <point x="251" y="75" type="line"/>
      <point x="251" y="604" type="line"/>
      <point x="96" y="493" type="line"/>
      <point x="96" y="576" type="line"/>
      <point x="259" y="688" type="line"/>
      <point x="340" y="688" type="line"/>
      <point x="340" y="75" type="line"/>
      <point x="507" y="75" type="line"/>
    </contour>
  </outline>
</glyph>
<glyph name="two" format="1">
  <advance width="556"/>
  <unicode hex="0032"/>
  <outline>
    <contour>
      <point x="506" y="0" type="line"/>
      <point x="50" y="0" type="line"/>
      <point x="50" y="62" type="line"/>
      <point x="150" y="291"/>
      <point x="405" y="339"/>
      <point x="405" y="507" type="curve" smooth="yes"/>
      <point x="405" y="582"/>
      <point x="358" y="626"/>
      <point x="279" y="626" type="curve" smooth="yes"/>
      <point x="204" y="626"/>
      <point x="152" y="583"/>
      <point x="144" y="510" type="curve"/>
      <point x="54" y="518" type="line"/>
      <point x="67" y="629"/>
      <point x="154" y="698"/>
      <point x="279" y="698" type="curve" smooth="yes"/>
      <point x="418" y="698"/>
      <point x="495" y="630"/>
      <point x="495" y="510" type="curve" smooth="yes"/>
      <point x="495" y="483"/>
      <point x="489" y="457"/>
      <point x="476" y="430" type="curve" smooth="yes"/>
      <point x="464" y="404"/>
      <point x="446" y="378"/>
      <point x="422" y="351" type="curve" smooth="yes"/>
      <point x="398" y="325"/>
      <point x="352" y="284"/>
      <point x="284" y="229" type="curve" smooth="yes"/>
      <point x="209" y="168"/>
      <point x="167" y="120"/>
      <point x="147" y="75" type="curve"/>
      <point x="506" y="75" type="line"/>
    </contour>
  </outline>
</glyph>
<glyph name="three" format="1">
  <advance width="556"/>
  <unicode hex="0033"/>
  <outline>
    <contour>
      <point x="512" y="190" type="curve" smooth="yes"/>
      <point x="512" y="63"/>
      <point x="428" y="-10"/>
      <point x="279" y="-10" type="curve" smooth="yes"/>
      <point x="139" y="-10"/>
      <point x="54" y="53"/>
      <point x="38" y="177" type="curve"/>
      <point x="129" y="185" type="line"/>
      <point x="140" y="104"/>
      <point x="190" y="63"/>
      <point x="279" y="63" type="curve" smooth="yes"/>
      <point x="367" y="63"/>
      <point x="421" y="106"/>
      <point x="421" y="193" type="curve" smooth="yes"/>
      <point x="421" y="268"/>
      <point x="361" y="312"/>
      <point x="253" y="312" type="curve" smooth="yes"/>
      <point x="203" y="312" type="line"/>
      <point x="203" y="388" type="line"/>
      <point x="251" y="388" type="line" smooth="yes"/>
      <point x="347" y="388"/>
      <point x="403" y="432"/>
      <point x="403" y="507" type="curve" smooth="yes"/>
      <point x="403" y="580"/>
      <point x="359" y="626"/>
      <point x="274" y="626" type="curve" smooth="yes"/>
      <point x="197" y="626"/>
      <point x="146" y="584"/>
      <point x="138" y="512" type="curve"/>
      <point x="50" y="519" type="line"/>
      <point x="63" y="632"/>
      <point x="148" y="698"/>
      <point x="275" y="698" type="curve" smooth="yes"/>
      <point x="412" y="698"/>
      <point x="493" y="631"/>
      <point x="493" y="516" type="curve" smooth="yes"/>
      <point x="493" y="428"/>
      <point x="442" y="373"/>
      <point x="349" y="353" type="curve"/>
      <point x="349" y="351" type="line"/>
      <point x="452" y="340"/>
      <point x="512" y="278"/>
    </contour>
  </outline>
</glyph>
<glyph name="four" format="1">
  <advance width="556"/>
  <unicode hex="0034"/>
  <outline>
    <contour>
      <point x="527" y="156" type="line"/>
      <point x="430" y="156" type="line"/>
      <point x="430" y="0" type="line"/>
      <point x="347" y="0" type="line"/>
      <point x="347" y="156" type="line"/>
      <point x="23" y="156" type="line"/>
      <point x="23" y="224" type="line"/>
      <point x="338" y="688" type="line"/>
      <point x="430" y="688" type="line"/>
      <point x="430" y="225" type="line"/>
      <point x="527" y="225" type="line"/>
    </contour>
    <contour>
      <point x="347" y="225" type="line"/>
      <point x="347" y="589" type="line" smooth="yes"/>
      <point x="346" y="587"/>
      <point x="342" y="578"/>
      <point x="333" y="563" type="curve" smooth="yes"/>
      <point x="325" y="548"/>
      <point x="319" y="537"/>
      <point x="314" y="531" type="curve" smooth="yes"/>
      <point x="138" y="271" type="line"/>
      <point x="112" y="235" type="line"/>
      <point x="104" y="225" type="line"/>
    </contour>
  </outline>
</glyph>
<glyph name="six" format="1">
  <advance width="556"/>
  <unicode hex="0036"/>
  <outline>
    <contour>
      <point x="512" y="225" type="curve" smooth="yes"/>
      <point x="512" y="80"/>
      <point x="429" y="-10"/>
      <point x="290" y="-10" type="curve" smooth="yes"/>
      <point x="135" y="-10"/>
      <point x="51" y="108"/>
      <point x="51" y="328" type="curve" smooth="yes"/>
      <point x="51" y="567"/>
      <point x="140" y="698"/>
      <point x="297" y="698" type="curve" smooth="yes"/>
      <point x="401" y="698"/>
      <point x="466" y="651"/>
      <point x="493" y="558" type="curve"/>
      <point x="409" y="543" type="line"/>
      <point x="392" y="599"/>
      <point x="354" y="627"/>
      <point x="296" y="627" type="curve" smooth="yes"/>
      <point x="196" y="627"/>
      <point x="138" y="531"/>
      <point x="138" y="354" type="curve"/>
      <point x="170" y="413"/>
      <point x="230" y="445"/>
      <point x="305" y="445" type="curve" smooth="yes"/>
      <point x="432" y="445"/>
      <point x="512" y="360"/>
    </contour>
    <contour>
      <point x="423" y="221" type="curve" smooth="yes"/>
      <point x="423" y="321"/>
      <point x="372" y="377"/>
      <point x="284" y="377" type="curve" smooth="yes"/>
      <point x="203" y="377"/>
      <point x="147" y="326"/>
      <point x="147" y="242" type="curve" smooth="yes"/>
      <point x="147" y="189"/>
      <point x="160" y="146"/>
      <point x="186" y="112" type="curve" smooth="yes"/>
      <point x="213" y="78"/>
      <point x="246" y="61"/>
      <point x="287" y="61" type="curve" smooth="yes"/>
      <point x="372" y="61"/>
      <point x="423" y="121"/>
    </contour>
  </outline>
</glyph>
<glyph name="nine" format="1">
  <advance width="556"/>
  <unicode hex="0039"/>
  <outline>
    <contour>
      <point x="509" y="358" type="curve" smooth="yes"/>
      <point x="509" y="122"/>
      <point x="419" y="-10"/>
      <point x="260" y="-10" type="curve" smooth="yes"/>
      <point x="152" y="-10"/>
      <point x="89" y="33"/>
      <point x="61" y="134" type="curve"/>
      <point x="145" y="147" type="line"/>
      <point x="162" y="90"/>
      <point x="201" y="61"/>
      <point x="261" y="61" type="curve" smooth="yes"/>
      <point x="362" y="61"/>
      <point x="419" y="159"/>
      <point x="422" y="332" type="curve"/>
      <point x="395" y="273"/>
      <point x="327" y="235"/>
      <point x="251" y="235" type="curve" smooth="yes"/>
      <point x="189" y="235"/>
      <point x="139" y="256"/>
      <point x="102" y="298" type="curve" smooth="yes"/>
      <point x="65" y="341"/>
      <point x="47" y="397"/>
      <point x="47" y="467" type="curve" smooth="yes"/>
      <point x="47" y="611"/>
      <point x="132" y="698"/>
      <point x="276" y="698" type="curve" smooth="yes"/>
      <point x="429" y="698"/>
      <point x="509" y="585"/>
    </contour>
    <contour>
      <point x="413" y="443" type="curve" smooth="yes"/>
      <point x="413" y="554"/>
      <point x="358" y="627"/>
      <point x="273" y="627" type="curve" smooth="yes"/>
      <point x="188" y="627"/>
      <point x="136" y="566"/>
      <point x="136" y="467" type="curve" smooth="yes"/>
      <point x="136" y="367"/>
      <point x="188" y="304"/>
      <point x="272" y="304" type="curve" smooth="yes"/>
      <point x="349" y="304"/>
      <point x="413" y="361"/>
    </contour>
  </outline>
</glyph>
<glyph name="semicolon" format="1">
  <advance width="278"/>
  <unicode hex="003B"/>
  <outline>
    <contour>
      <point x="93" y="101" type="line"/>
      <point x="188" y="101" type="line"/>
      <point x="188" y="25" type="line" smooth="yes"/>
      <point x="188" y="-44"/>
      <point x="175" y="-85"/>
      <point x="150" y="-128" type="curve"/>
      <point x="90" y="-128" type="line"/>
      <point x="121" y="-84"/>
      <point x="136" y="-41"/>
      <point x="136" y="0" type="curve"/>
      <point x="93" y="0" type="line"/>
    </contour>
    <contour>
      <point x="188" y="427" type="line"/>
      <point x="93" y="427" type="line"/>
      <point x="93" y="528" type="line"/>
      <point x="188" y="528" type="line"/>
    </contour>
  </outline>
</glyph>
<glyph name="Z" format="1">
  <advance width="611"/>
  <unicode hex="005A"/>
  <outline>
    <contour>
      <point x="580" y="76" type="line"/>
      <point x="580" y="0" type="line"/>
      <point x="32" y="0" type="line"/>
      <point x="32" y="70" type="line"/>
      <point x="451" y="612" type="line"/>
      <point x="67" y="612" type="line"/>
      <point x="67" y="688" type="line"/>
      <point x="557" y="688" type="line"/>
      <point x="557" y="620" type="line"/>
      <point x="138" y="76" type="line"/>
    </contour>
  </outline>
</glyph>
<glyph name="backslash" format="1">
  <advance width="278"/>
  <unicode hex="005C"/>
  <outline>
    <contour>
      <point x="278" y="-10" type="line"/>
      <point x="199" y="-10" type="line"/>
      <point x="0" y="725" type="line"/>
      <point x="77" y="725" type="line"/>
    </contour>
  </outline>
</glyph>
<glyph name="bracketright" format="1">
  <advance width="278"/>
  <unicode hex="005D"/>
  <outline>
    <contour>
      <point x="207" y="-208" type="line"/>
      <point x="8" y="-208" type="line"/>
      <point x="8" y="-145" type="line"/>
      <point x="122" y="-145" type="line"/>
      <point x="122" y="662" type="line"/>
      <point x="8" y="662" type="line"/>
      <point x="8" y="725" type="line"/>
      <point x="207" y="725" type="line"/>
    </contour>
  </outline>
</glyph>
<glyph name="asciicircum" format="1">
  <advance width="469"/>
  <unicode hex="005E"/>
  <outline>
    <contour>
      <point x="464" y="329" type="line"/>
      <point x="384" y="329" type="line"/>
      <point x="233" y="638" type="line"/>
      <point x="84" y="329" type="line"/>
      <point x="5" y="329" type="line"/>
      <point x="185" y="688" type="line"/>
      <point x="284" y="688" type="line"/>
    </contour>
  </outline>
</glyph>
<glyph name="k" format="1">
  <advance width="500"/>
  <unicode hex="006B"/>
  <outline>
    <contour>
      <point x="501" y="0" type="line"/>
      <point x="398" y="0" type="line"/>
      <point x="220" y="241" type="line"/>
      <point x="155" y="188" type="line"/>
      <point x="155" y="0" type="line"/>
      <point x="67" y="0" type="line"/>
      <point x="67" y="725" type="line"/>
      <point x="155" y="725" type="line"/>
      <point x="155" y="272" type="line"/>
      <point x="387" y="528" type="line"/>
      <point x="490" y="528" type="line"/>
      <point x="276" y="301" type="line"/>
    </contour>
  </outline>
</glyph>
<glyph name="p" format="1">
  <advance width="556"/>
  <unicode hex="0070"/>
  <outline>
    <contour>
      <point x="514" y="267" type="curve" smooth="yes"/>
      <point x="514" y="82"/>
      <point x="449" y="-10"/>
      <point x="320" y="-10" type="curve" smooth="yes"/>
      <point x="239" y="-10"/>
      <point x="184" y="21"/>
      <point x="156" y="82" type="curve"/>
      <point x="153" y="82" type="line" smooth="yes"/>
      <point x="154" y="79"/>
      <point x="155" y="52"/>
      <point x="155" y="-1" type="curve" smooth="yes"/>
      <point x="155" y="-208" type="line"/>
      <point x="67" y="-208" type="line"/>
      <point x="67" y="420" type="line" smooth="yes"/>
      <point x="67" y="475"/>
      <point x="66" y="511"/>
      <point x="64" y="528" type="curve"/>
      <point x="149" y="528" type="line" smooth="yes"/>
      <point x="150" y="527"/>
      <point x="150" y="522"/>
      <point x="151" y="514" type="curve" smooth="yes"/>
      <point x="152" y="506"/>
      <point x="152" y="494"/>
      <point x="153" y="477" type="curve" smooth="yes"/>
      <point x="154" y="461"/>
      <point x="154" y="450"/>
      <point x="154" y="443" type="curve"/>
      <point x="156" y="443" type="line"/>
      <point x="188" y="508"/>
      <point x="236" y="538"/>
      <point x="320" y="538" type="curve" smooth="yes"/>
      <point x="449" y="538"/>
      <point x="514" y="454"/>
    </contour>
    <contour>
      <point x="422" y="265" type="curve" smooth="yes"/>
      <point x="422" y="412"/>
      <point x="384" y="470"/>
      <point x="297" y="470" type="curve" smooth="yes"/>
      <point x="197" y="470"/>
      <point x="155" y="407"/>
      <point x="155" y="258" type="curve" smooth="yes"/>
      <point x="155" y="119"/>
      <point x="197" y="55"/>
      <point x="296" y="55" type="curve" smooth="yes"/>
      <point x="384" y="55"/>
      <point x="422" y="113"/>
    </contour>
  </outline>
</glyph>
<glyph name="bar" format="1">
  <advance width="260"/>
  <unicode hex="007C"/>
  <outline>
    <contour>
      <point x="170" y="-212" type="line"/>
      <point x="89" y="-212" type="line"/>
      <point x="89" y="725" type="line"/>
      <point x="170" y="725" type="line"/>
    </contour>
  </outline>
</glyph>
<glyph name="currency" format="1">
  <advance width="556"/>
  <unicode hex="00A4"/>
  <outline>
    <contour>
      <point x="67" y="334" type="curve" smooth="yes"/>
      <point x="67" y="379"/>
      <point x="80" y="420"/>
      <point x="105" y="457" type="curve"/>
      <point x="56" y="506" type="line"/>
      <point x="107" y="556" type="line"/>
      <point x="155" y="507" type="line"/>
      <point x="192" y="534"/>
      <point x="234" y="547"/>
      <point x="279" y="547" type="curve" smooth="yes"/>
      <point x="324" y="547"/>
      <point x="365" y="534"/>
      <point x="402" y="508" type="curve"/>
      <point x="449" y="555" type="line"/>
      <point x="500" y="504" type="line"/>
      <point x="453" y="457" type="line"/>
      <point x="479" y="419"/>
      <point x="492" y="378"/>
      <point x="492" y="334" type="curve" smooth="yes"/>
      <point x="492" y="289"/>
      <point x="479" y="248"/>
      <point x="452" y="211" type="curve"/>
      <point x="501" y="162" type="line"/>
      <point x="451" y="111" type="line"/>
      <point x="402" y="160" type="line"/>
      <point x="365" y="135"/>
      <point x="324" y="122"/>
      <point x="279" y="122" type="curve" smooth="yes"/>
      <point x="232" y="122"/>
      <point x="191" y="135"/>
      <point x="156" y="161" type="curve"/>
      <point x="105" y="110" type="line"/>
      <point x="55" y="161" type="line"/>
      <point x="105" y="211" type="line"/>
      <point x="80" y="248"/>
      <point x="67" y="289"/>
    </contour>
    <contour>
      <point x="142" y="335" type="curve" smooth="yes"/>
      <point x="142" y="297"/>
      <point x="155" y="265"/>
      <point x="182" y="238" type="curve" smooth="yes"/>
      <point x="209" y="211"/>
      <point x="242" y="198"/>
      <point x="279" y="198" type="curve" smooth="yes"/>
      <point x="316" y="198"/>
      <point x="348" y="211"/>
      <point x="375" y="237" type="curve" smooth="yes"/>
      <point x="402" y="264"/>
      <point x="416" y="296"/>
      <point x="416" y="335" type="curve" smooth="yes"/>
      <point x="416" y="373"/>
      <point x="402" y="405"/>
      <point x="375" y="432" type="curve" smooth="yes"/>
      <point x="348" y="459"/>
      <point x="316" y="472"/>
      <point x="279" y="472" type="curve" smooth="yes"/>
      <point x="242" y="472"/>
      <point x="210" y="459"/>
      <point x="183" y="432" type="curve" smooth="yes"/>
      <point x="156" y="406"/>
      <point x="142" y="374"/>
    </contour>
  </outline>
</glyph>
<glyph name="copyright" format="1">
  <advance width="737"/>
  <unicode hex="00A9"/>
  <outline>
    <contour>
      <point x="721" y="345" type="curve"/>
      <point x="727" y="157"/>
      <point x="556" y="-14"/>
      <point x="368" y="-8" type="curve" smooth="yes"/>
      <point x="304" y="-8"/>
      <point x="244" y="8"/>
      <point x="189" y="41" type="curve" smooth="yes"/>
      <point x="78" y="106"/>
      <point x="15" y="222"/>
      <point x="15" y="345" type="curve" smooth="yes"/>
      <point x="10" y="533"/>
      <point x="181" y="704"/>
      <point x="368" y="698" type="curve"/>
      <point x="558" y="703"/>
      <point x="726" y="534"/>
    </contour>
    <contour>
      <point x="676" y="345" type="curve"/>
      <point x="681" y="510"/>
      <point x="534" y="655"/>
      <point x="368" y="652" type="curve"/>
      <point x="204" y="656"/>
      <point x="57" y="508"/>
      <point x="62" y="345" type="curve"/>
      <point x="57" y="181"/>
      <point x="204" y="33"/>
      <point x="368" y="38" type="curve"/>
      <point x="534" y="33"/>
      <point x="681" y="181"/>
    </contour>
    <contour>
      <point x="243" y="346" type="curve" smooth="yes"/>
      <point x="243" y="246"/>
      <point x="293" y="187"/>
      <point x="374" y="187" type="curve" smooth="yes"/>
      <point x="425" y="187"/>
      <point x="463" y="212"/>
      <point x="487" y="263" type="curve"/>
      <point x="543" y="246" type="line"/>
      <point x="503" y="167"/>
      <point x="450" y="136"/>
      <point x="374" y="136" type="curve" smooth="yes"/>
      <point x="251" y="136"/>
      <point x="180" y="214"/>
      <point x="180" y="346" type="curve" smooth="yes"/>
      <point x="180" y="478"/>
      <point x="247" y="553"/>
      <point x="370" y="553" type="curve" smooth="yes"/>
      <point x="449" y="553"/>
      <point x="505" y="519"/>
      <point x="536" y="451" type="curve"/>
      <point x="480" y="435" type="line"/>
      <point x="460" y="480"/>
      <point x="420" y="502"/>
      <point x="371" y="502" type="curve" smooth="yes"/>
      <point x="288" y="502"/>
      <point x="243" y="449"/>
    </contour>
  </outline>
</glyph>
<glyph name="uni00B2" format="1">
  <advance width="333"/>
  <unicode hex="00B2"/>
  <outline>
    <contour>
      <point x="314" y="275" type="line"/>
      <point x="21" y="275" type="line"/>
      <point x="20" y="325" type="line"/>
      <point x="40" y="370"/>
      <point x="81" y="411"/>
      <point x="150" y="459" type="curve" smooth="yes"/>
      <point x="214" y="503"/>
      <point x="241" y="538"/>
      <point x="241" y="575" type="curve" smooth="yes"/>
      <point x="241" y="615"/>
      <point x="218" y="642"/>
      <point x="170" y="642" type="curve" smooth="yes"/>
      <point x="126" y="642"/>
      <point x="95" y="617"/>
      <point x="90" y="573" type="curve"/>
      <point x="25" y="577" type="line"/>
      <point x="33" y="646"/>
      <point x="89" y="694"/>
      <point x="173" y="694" type="curve" smooth="yes"/>
      <point x="256" y="694"/>
      <point x="308" y="652"/>
      <point x="308" y="580" type="curve" smooth="yes"/>
      <point x="308" y="532"/>
      <point x="277" y="486"/>
      <point x="216" y="441" type="curve" smooth="yes"/>
      <point x="176" y="412"/>
      <point x="148" y="389"/>
      <point x="131" y="374" type="curve" smooth="yes"/>
      <point x="115" y="359"/>
      <point x="104" y="345"/>
      <point x="98" y="330" type="curve"/>
      <point x="314" y="330" type="line"/>
    </contour>
  </outline>
</glyph>
<glyph name="uni00B3" format="1">
  <advance width="333"/>
  <unicode hex="00B3"/>
  <outline>
    <contour>
      <point x="313" y="388" type="curve" smooth="yes"/>
      <point x="313" y="313"/>
      <point x="261" y="269"/>
      <point x="168" y="269" type="curve" smooth="yes"/>
      <point x="75" y="269"/>
      <point x="24" y="306"/>
      <point x="13" y="380" type="curve"/>
      <point x="80" y="386" type="line"/>
      <point x="85" y="342"/>
      <point x="115" y="320"/>
      <point x="168" y="320" type="curve" smooth="yes"/>
      <point x="221" y="320"/>
      <point x="247" y="344"/>
      <point x="247" y="392" type="curve" smooth="yes"/>
      <point x="247" y="437"/>
      <point x="216" y="459"/>
      <point x="154" y="459" type="curve" smooth="yes"/>
      <point x="125" y="459" type="line"/>
      <point x="125" y="512" type="line"/>
      <point x="152" y="512" type="line" smooth="yes"/>
      <point x="204" y="512"/>
      <point x="236" y="536"/>
      <point x="236" y="579" type="curve" smooth="yes"/>
      <point x="236" y="618"/>
      <point x="211" y="642"/>
      <point x="166" y="642" type="curve" smooth="yes"/>
      <point x="121" y="642"/>
      <point x="92" y="619"/>
      <point x="88" y="576" type="curve"/>
      <point x="22" y="582" type="line"/>
      <point x="31" y="653"/>
      <point x="84" y="694"/>
      <point x="167" y="694" type="curve" smooth="yes"/>
      <point x="252" y="694"/>
      <point x="303" y="652"/>
      <point x="303" y="588" type="curve" smooth="yes"/>
      <point x="303" y="539"/>
      <point x="276" y="501"/>
      <point x="217" y="488" type="curve"/>
      <point x="217" y="487" type="line"/>
      <point x="277" y="480"/>
      <point x="313" y="445"/>
    </contour>
  </outline>
</glyph>
<glyph name="paragraph" format="1">
  <advance width="537"/>
  <unicode hex="00B6"/>
  <outline>
    <contour>
      <point x="495" y="638" type="line"/>
      <point x="432" y="638" type="line"/>
      <point x="432" y="-129" type="line"/>
      <point x="377" y="-129" type="line"/>
      <point x="377" y="638" type="line"/>
      <point x="271" y="638" type="line"/>
      <point x="271" y="-129" type="line"/>
      <point x="216" y="-129" type="line"/>
      <point x="216" y="339" type="line"/>
      <point x="107" y="339"/>
      <point x="39" y="401"/>
      <point x="39" y="512" type="curve" smooth="yes"/>
      <point x="39" y="623"/>
      <point x="107" y="688"/>
      <point x="220" y="688" type="curve" smooth="yes"/>
      <point x="495" y="688" type="line"/>
    </contour>
  </outline>
</glyph>
<glyph name="periodcentered" format="1">
  <advance width="333"/>
  <unicode hex="00B7"/>
  <outline>
    <contour>
      <point x="214" y="218" type="line"/>
      <point x="119" y="218" type="line"/>
      <point x="119" y="325" type="line"/>
      <point x="214" y="325" type="line"/>
    </contour>
  </outline>
</glyph>
<glyph name="uni00B9" format="1">
  <advance width="333"/>
  <unicode hex="00B9"/>
  <outline>
    <contour>
      <point x="311" y="275" type="line"/>
      <point x="39" y="275" type="line"/>
      <point x="39" y="327" type="line"/>
      <point x="142" y="327" type="line"/>
      <point x="142" y="630" type="line"/>
      <point x="43" y="563" type="line"/>
      <point x="43" y="621" type="line"/>
      <point x="146" y="688" type="line"/>
      <point x="206" y="688" type="line"/>
      <point x="206" y="327" type="line"/>
      <point x="311" y="327" type="line"/>
    </contour>
  </outline>
</glyph>
<glyph name="guillemotright" format="1">
  <advance width="556"/>
  <unicode hex="00BB"/>
  <outline>
    <contour>
      <point x="516" y="247" type="line"/>
      <point x="351" y="69" type="line"/>
      <point x="269" y="69" type="line"/>
      <point x="269" y="83" type="line"/>
      <point x="434" y="262" type="line"/>
      <point x="270" y="444" type="line"/>
      <point x="270" y="459" type="line"/>
      <point x="351" y="459" type="line"/>
      <point x="516" y="278" type="line"/>
    </contour>
    <contour>
      <point x="287" y="247" type="line"/>
      <point x="124" y="69" type="line"/>
      <point x="41" y="69" type="line"/>
      <point x="41" y="83" type="line"/>
      <point x="206" y="262" type="line"/>
      <point x="42" y="444" type="line"/>
      <point x="42" y="459" type="line"/>
      <point x="124" y="459" type="line"/>
      <point x="287" y="278" type="line"/>
    </contour>
  </outline>
</glyph>
<glyph name="onehalf" format="1">
  <advance width="834"/>
  <unicode hex="00BD"/>
  <outline>
    <contour>
      <point x="299" y="275" type="line"/>
      <point x="27" y="275" type="line"/>
      <point x="27" y="327" type="line"/>
      <point x="130" y="327" type="line"/>
      <point x="130" y="630" type="line"/>
      <point x="32" y="563" type="line"/>
      <point x="32" y="621" type="line"/>
      <point x="134" y="688" type="line"/>
      <point x="194" y="688" type="line"/>
      <point x="194" y="327" type="line"/>
      <point x="299" y="327" type="line"/>
    </contour>
    <contour>
      <point x="669" y="688" type="line"/>
      <point x="241" y="0" type="line"/>
      <point x="168" y="0" type="line"/>
      <point x="599" y="688" type="line"/>
    </contour>
    <contour>
      <point x="807" y="1" type="line"/>
      <point x="514" y="1" type="line"/>
      <point x="513" y="51" type="line"/>
      <point x="533" y="96"/>
      <point x="573" y="137"/>
      <point x="644" y="185" type="curve" smooth="yes"/>
      <point x="707" y="229"/>
      <point x="734" y="264"/>
      <point x="734" y="301" type="curve" smooth="yes"/>
      <point x="734" y="342"/>
      <point x="711" y="368"/>
      <point x="663" y="368" type="curve" smooth="yes"/>
      <point x="619" y="368"/>
      <point x="588" y="344"/>
      <point x="583" y="299" type="curve"/>
      <point x="518" y="303" type="line"/>
      <point x="526" y="372"/>
      <point x="582" y="420"/>
      <point x="666" y="420" type="curve" smooth="yes"/>
      <point x="749" y="420"/>
      <point x="801" y="378"/>
      <point x="801" y="306" type="curve" smooth="yes"/>
      <point x="801" y="258"/>
      <point x="770" y="212"/>
      <point x="709" y="167" type="curve" smooth="yes"/>
      <point x="669" y="138"/>
      <point x="641" y="115"/>
      <point x="625" y="100" type="curve" smooth="yes"/>
      <point x="609" y="85"/>
      <point x="598" y="71"/>
      <point x="591" y="56" type="curve"/>
      <point x="807" y="56" type="line"/>
    </contour>
  </outline>
</glyph>
<glyph name="threequarters" format="1">
  <advance width="834"/>
  <unicode hex="00BE"/>
  <outline>
    <contour>
      <point x="679" y="688" type="line"/>
      <point x="250" y="0" type="line"/>
      <point x="178" y="0" type="line"/>
      <point x="608" y="688" type="line"/>
    </contour>
    <contour>
      <point x="788" y="88" type="line"/>
      <point x="734" y="88" type="line"/>
      <point x="734" y="1" type="line"/>
      <point x="670" y="1" type="line"/>
      <point x="670" y="88" type="line"/>
      <point x="472" y="88" type="line"/>
      <point x="472" y="142" type="line"/>
      <point x="660" y="414" type="line"/>
      <point x="734" y="414" type="line"/>
      <point x="734" y="143" type="line"/>
      <point x="788" y="143" type="line"/>
    </contour>
    <contour>
      <point x="670" y="319" type="line"/>
      <point x="671" y="349" type="line"/>
      <point x="664" y="336"/>
      <point x="651" y="314"/>
      <point x="631" y="283" type="curve" smooth="yes"/>
      <point x="534" y="143" type="line"/>
      <point x="670" y="143" type="line"/>
    </contour>
    <contour>
      <point x="336" y="388" type="curve" smooth="yes"/>
      <point x="336" y="313"/>
      <point x="283" y="269"/>
      <point x="191" y="269" type="curve" smooth="yes"/>
      <point x="98" y="269"/>
      <point x="46" y="306"/>
      <point x="36" y="380" type="curve"/>
      <point x="102" y="386" type="line"/>
      <point x="108" y="342"/>
      <point x="138" y="320"/>
      <point x="191" y="320" type="curve" smooth="yes"/>
      <point x="243" y="320"/>
      <point x="269" y="344"/>
      <point x="269" y="392" type="curve" smooth="yes"/>
      <point x="269" y="437"/>
      <point x="238" y="459"/>
      <point x="177" y="459" type="curve" smooth="yes"/>
      <point x="147" y="459" type="line"/>
      <point x="147" y="512" type="line"/>
      <point x="175" y="512" type="line" smooth="yes"/>
      <point x="227" y="512"/>
      <point x="259" y="536"/>
      <point x="259" y="579" type="curve" smooth="yes"/>
      <point x="259" y="618"/>
      <point x="235" y="642"/>
      <point x="188" y="642" type="curve" smooth="yes"/>
      <point x="144" y="642"/>
      <point x="115" y="619"/>
      <point x="111" y="576" type="curve"/>
      <point x="45" y="582" type="line"/>
      <point x="53" y="653"/>
      <point x="107" y="694"/>
      <point x="190" y="694" type="curve" smooth="yes"/>
      <point x="274" y="694"/>
      <point x="326" y="652"/>
      <point x="326" y="588" type="curve" smooth="yes"/>
      <point x="326" y="539"/>
      <point x="299" y="501"/>
      <point x="240" y="488" type="curve"/>
      <point x="240" y="487" type="line"/>
      <point x="299" y="480"/>
      <point x="336" y="445"/>
    </contour>
  </outline>
</glyph>
<glyph name="Atilde" format="1">
  <advance width="667"/>
  <unicode hex="00C3"/>
  <outline>
    <contour>
      <point x="665" y="0" type="line"/>
      <point x="570" y="0" type="line"/>
      <point x="491" y="201" type="line"/>
      <point x="178" y="201" type="line"/>
      <point x="99" y="0" type="line"/>
      <point x="2" y="0" type="line"/>
      <point x="283" y="688" type="line"/>
      <point x="389" y="688" type="line"/>
    </contour>
    <contour>
      <point x="348" y="577" type="curve" smooth="yes"/>
      <point x="334" y="618" type="line"/>
      <point x="330" y="604" type="line" smooth="yes"/>
      <point x="322" y="577"/>
      <point x="310" y="542"/>
      <point x="294" y="500" type="curve" smooth="yes"/>
      <point x="206" y="274" type="line"/>
      <point x="463" y="274" type="line"/>
      <point x="375" y="501" type="line" smooth="yes"/>
      <point x="366" y="524"/>
      <point x="357" y="549"/>
    </contour>
    <contour>
      <point x="411" y="747" type="curve" smooth="yes"/>
      <point x="357" y="747"/>
      <point x="302" y="805"/>
      <point x="262" y="805" type="curve" smooth="yes"/>
      <point x="226" y="805"/>
      <point x="209" y="784"/>
      <point x="204" y="747" type="curve"/>
      <point x="160" y="747" type="line"/>
      <point x="170" y="843"/>
      <point x="197" y="873"/>
      <point x="259" y="878" type="curve"/>
      <point x="315" y="878"/>
      <point x="369" y="820"/>
      <point x="408" y="820" type="curve" smooth="yes"/>
      <point x="441" y="820"/>
      <point x="460" y="839"/>
      <point x="465" y="878" type="curve"/>
      <point x="510" y="878" type="line"/>
      <point x="498" y="782"/>
      <point x="467" y="747"/>
    </contour>
  </outline>
</glyph>
<glyph name="Aring" format="1">
  <advance width="667"/>
  <unicode hex="00C5"/>
  <outline>
    <contour>
      <point x="665" y="0" type="line"/>
      <point x="570" y="0" type="line"/>
      <point x="491" y="201" type="line"/>
      <point x="178" y="201" type="line"/>
      <point x="99" y="0" type="line"/>
      <point x="2" y="0" type="line"/>
      <point x="283" y="688" type="line"/>
      <point x="389" y="688" type="line"/>
    </contour>
    <contour>
      <point x="348" y="577" type="curve" smooth="yes"/>
      <point x="334" y="618" type="line"/>
      <point x="330" y="604" type="line" smooth="yes"/>
      <point x="322" y="577"/>
      <point x="310" y="542"/>
      <point x="294" y="500" type="curve" smooth="yes"/>
      <point x="206" y="274" type="line"/>
      <point x="463" y="274" type="line"/>
      <point x="375" y="501" type="line" smooth="yes"/>
      <point x="366" y="524"/>
      <point x="357" y="549"/>
    </contour>
    <contour>
      <point x="453" y="755" type="curve" smooth="yes"/>
      <point x="453" y="722"/>
      <point x="441" y="694"/>
      <point x="418" y="671" type="curve" smooth="yes"/>
      <point x="395" y="648"/>
      <point x="368" y="637"/>
      <point x="335" y="637" type="curve" smooth="yes"/>
      <point x="302" y="637"/>
      <point x="274" y="648"/>
      <point x="251" y="671" type="curve" smooth="yes"/>
      <point x="228" y="694"/>
      <point x="217" y="722"/>
      <point x="217" y="755" type="curve" smooth="yes"/>
      <point x="217" y="788"/>
      <point x="228" y="815"/>
      <point x="251" y="838" type="curve" smooth="yes"/>
      <point x="274" y="861"/>
      <point x="302" y="873"/>
      <point x="335" y="873" type="curve" smooth="yes"/>
      <point x="367" y="873"/>
      <point x="395" y="861"/>
      <point x="418" y="838" type="curve" smooth="yes"/>
      <point x="441" y="815"/>
      <point x="453" y="788"/>
    </contour>
    <contour>
      <point x="400" y="755" type="curve" smooth="yes"/>
      <point x="400" y="791"/>
      <point x="371" y="820"/>
      <point x="335" y="820" type="curve" smooth="yes"/>
      <point x="298" y="820"/>
      <point x="269" y="791"/>
      <point x="269" y="755" type="curve" smooth="yes"/>
      <point x="269" y="719"/>
      <point x="296" y="688"/>
      <point x="335" y="688" type="curve" smooth="yes"/>
      <point x="372" y="688"/>
      <point x="400" y="719"/>
    </contour>
  </outline>
</glyph>
<glyph name="AE" format="1">
  <advance width="1000"/>
  <unicode hex="00C6"/>
  <outline>
    <contour>
      <point x="957" y="0" type="line"/>
      <point x="473" y="0" type="line"/>
      <point x="473" y="201" type="line"/>
      <point x="206" y="201" type="line"/>
      <point x="109" y="0" type="line"/>
      <point x="12" y="0" type="line"/>
      <point x="347" y="688" type="line"/>
      <point x="937" y="688" type="line"/>
      <point x="937" y="612" type="line"/>
      <point x="566" y="612" type="line"/>
      <point x="566" y="391" type="line"/>
      <point x="908" y="391" type="line"/>
      <point x="908" y="316" type="line"/>
      <point x="566" y="316" type="line"/>
      <point x="566" y="76" type="line"/>
      <point x="957" y="76" type="line"/>
    </contour>
    <contour>
      <point x="473" y="274" type="line"/>
      <point x="473" y="616" type="line"/>
      <point x="399" y="616" type="line"/>
      <point x="386" y="585" type="line"/>
      <point x="240" y="274" type="line"/>
    </contour>
  </outline>
</glyph>
<glyph name="Eacute" format="1">
  <advance width="667"/>
  <unicode hex="00C9"/>
  <outline>
    <contour>
      <point x="624" y="0" type="line"/>
      <point x="82" y="0" type="line"/>
      <point x="82" y="688" type="line"/>
      <point x="604" y="688" type="line"/>
      <point x="604" y="612" type="line"/>
      <point x="175" y="612" type="line"/>
      <point x="175" y="391" type="line"/>
      <point x="575" y="391" type="line"/>
      <point x="575" y="316" type="line"/>
      <point x="175" y="316" type="line"/>
      <point x="175" y="76" type="line"/>
      <point x="624" y="76" type="line"/>
    </contour>
    <contour>
      <point x="325" y="747" type="line"/>
      <point x="269" y="747" type="line"/>
      <point x="269" y="757" type="line"/>
      <point x="375" y="867" type="line"/>
      <point x="476" y="867" type="line"/>
      <point x="476" y="853" type="line"/>
    </contour>
  </outline>
</glyph>
<glyph name="Iacute" format="1">
  <advance width="278"/>
  <unicode hex="00CD"/>
  <outline>
    <contour>
      <point x="186" y="0" type="line"/>
      <point x="92" y="0" type="line"/>
      <point x="92" y="688" type="line"/>
      <point x="186" y="688" type="line"/>
    </contour>
    <contour>
      <point x="125" y="747" type="line"/>
      <point x="69" y="747" type="line"/>
      <point x="69" y="757" type="line"/>
      <point x="175" y="867" type="line"/>
      <point x="276" y="867" type="line"/>
      <point x="276" y="853" type="line"/>
    </contour>
  </outline>
</glyph>
<glyph name="Icircumflex" format="1">
  <advance width="278"/>
  <unicode hex="00CE"/>
  <outline>
    <contour>
      <point x="186" y="0" type="line"/>
      <point x="92" y="0" type="line"/>
      <point x="92" y="688" type="line"/>
      <point x="186" y="688" type="line"/>
    </contour>
    <contour>
      <point x="191" y="874" type="line"/>
      <point x="301" y="757" type="line"/>
      <point x="301" y="747" type="line"/>
      <point x="250" y="747" type="line"/>
      <point x="143" y="815" type="line"/>
      <point x="142" y="815" type="line"/>
      <point x="28" y="747" type="line"/>
      <point x="-22" y="747" type="line"/>
      <point x="-22" y="757" type="line"/>
      <point x="92" y="874" type="line"/>
    </contour>
  </outline>
</glyph>
<glyph name="Oslash" format="1">
  <advance width="778"/>
  <unicode hex="00D8"/>
  <outline>
    <contour>
      <point x="730" y="347" type="curve" smooth="yes"/>
      <point x="730" y="129"/>
      <point x="598" y="-10"/>
      <point x="388" y="-10" type="curve" smooth="yes"/>
      <point x="308" y="-10"/>
      <point x="241" y="8"/>
      <point x="186" y="45" type="curve"/>
      <point x="127" y="-26" type="line"/>
      <point x="35" y="-26" type="line"/>
      <point x="132" y="92" type="line"/>
      <point x="75" y="155"/>
      <point x="47" y="240"/>
      <point x="47" y="347" type="curve" smooth="yes"/>
      <point x="47" y="457"/>
      <point x="77" y="543"/>
      <point x="137" y="605" type="curve" smooth="yes"/>
      <point x="198" y="667"/>
      <point x="282" y="698"/>
      <point x="389" y="698" type="curve" smooth="yes"/>
      <point x="470" y="698"/>
      <point x="537" y="680"/>
      <point x="591" y="645" type="curve"/>
      <point x="650" y="716" type="line"/>
      <point x="744" y="716" type="line"/>
      <point x="646" y="598" type="line"/>
      <point x="702" y="536"/>
      <point x="730" y="452"/>
    </contour>
    <contour>
      <point x="635" y="347" type="curve" smooth="yes"/>
      <point x="635" y="420"/>
      <point x="619" y="480"/>
      <point x="587" y="527" type="curve"/>
      <point x="241" y="110" type="line"/>
      <point x="280" y="81"/>
      <point x="329" y="66"/>
      <point x="388" y="66" type="curve" smooth="yes"/>
      <point x="547" y="66"/>
      <point x="635" y="168"/>
    </contour>
    <contour>
      <point x="142" y="347" type="curve" smooth="yes"/>
      <point x="142" y="272"/>
      <point x="158" y="211"/>
      <point x="191" y="163" type="curve"/>
      <point x="537" y="579" type="line"/>
      <point x="496" y="608"/>
      <point x="447" y="622"/>
      <point x="389" y="622" type="curve" smooth="yes"/>
      <point x="232" y="622"/>
      <point x="142" y="522"/>
    </contour>
  </outline>
</glyph>
<glyph name="Ugrave" format="1">
  <advance width="722"/>
  <unicode hex="00D9"/>
  <outline>
    <contour>
      <point x="357" y="-10" type="curve" smooth="yes"/>
      <point x="187" y="-10"/>
      <point x="77" y="87"/>
      <point x="77" y="250" type="curve" smooth="yes"/>
      <point x="77" y="688" type="line"/>
      <point x="170" y="688" type="line"/>
      <point x="170" y="258" type="line" smooth="yes"/>
      <point x="170" y="133"/>
      <point x="236" y="66"/>
      <point x="356" y="66" type="curve" smooth="yes"/>
      <point x="480" y="66"/>
      <point x="552" y="135"/>
      <point x="552" y="264" type="curve" smooth="yes"/>
      <point x="552" y="688" type="line"/>
      <point x="645" y="688" type="line"/>
      <point x="645" y="259" type="line" smooth="yes"/>
      <point x="645" y="90"/>
      <point x="532" y="-10"/>
    </contour>
    <contour>
      <point x="453" y="747" type="line"/>
      <point x="397" y="747" type="line"/>
      <point x="246" y="853" type="line"/>
      <point x="246" y="867" type="line"/>
      <point x="347" y="867" type="line"/>
      <point x="453" y="757" type="line"/>
    </contour>
  </outline>
</glyph>
<glyph name="germandbls" format="1">
  <advance width="611"/>
  <unicode hex="00DF"/>
  <outline>
    <contour>
      <point x="570" y="144" type="curve" smooth="yes"/>
      <point x="570" y="47"/>
      <point x="506" y="-10"/>
      <point x="395" y="-10" type="curve" smooth="yes"/>
      <point x="340" y="-10"/>
      <point x="294" y="-2"/>
      <point x="257" y="14" type="curve"/>
      <point x="256" y="94" type="line"/>
      <point x="289" y="75"/>
      <point x="348" y="61"/>
      <point x="393" y="61" type="curve" smooth="yes"/>
      <point x="453" y="61"/>
      <point x="486" y="90"/>
      <point x="486" y="141" type="curve" smooth="yes"/>
      <point x="486" y="182"/>
      <point x="460" y="213"/>
      <point x="397" y="250" type="curve" smooth="yes"/>
      <point x="337" y="286"/>
      <point x="308" y="327"/>
      <point x="308" y="383" type="curve" smooth="yes"/>
      <point x="308" y="423"/>
      <point x="326" y="455"/>
      <point x="362" y="484" type="curve" smooth="yes"/>
      <point x="399" y="515"/>
      <point x="416" y="540"/>
      <point x="416" y="573" type="curve" smooth="yes"/>
      <point x="416" y="622"/>
      <point x="369" y="656"/>
      <point x="297" y="656" type="curve" smooth="yes"/>
      <point x="201" y="656"/>
      <point x="157" y="604"/>
      <point x="157" y="499" type="curve" smooth="yes"/>
      <point x="157" y="0" type="line"/>
      <point x="69" y="0" type="line"/>
      <point x="69" y="501" type="line" smooth="yes"/>
      <point x="69" y="649"/>
      <point x="146" y="725"/>
      <point x="297" y="725" type="curve" smooth="yes"/>
      <point x="421" y="725"/>
      <point x="500" y="668"/>
      <point x="500" y="580" type="curve" smooth="yes"/>
      <point x="500" y="533"/>
      <point x="482" y="493"/>
      <point x="445" y="459" type="curve" smooth="yes"/>
      <point x="419" y="436"/>
      <point x="403" y="420"/>
      <point x="398" y="412" type="curve" smooth="yes"/>
      <point x="393" y="404"/>
      <point x="390" y="395"/>
      <point x="390" y="386" type="curve" smooth="yes"/>
      <point x="390" y="351"/>
      <point x="435" y="326"/>
      <point x="480" y="295" type="curve" smooth="yes"/>
      <point x="540" y="255"/>
      <point x="570" y="205"/>
    </contour>
  </outline>
</glyph>
<glyph name="ae" format="1">
  <advance width="889"/>
  <unicode hex="00E6"/>
  <outline>
    <contour>
      <point x="845" y="246" type="line"/>
      <point x="473" y="246" type="line"/>
      <point x="473" y="237" type="line" smooth="yes"/>
      <point x="474" y="120"/>
      <point x="524" y="56"/>
      <point x="615" y="56" type="curve" smooth="yes"/>
      <point x="691" y="56"/>
      <point x="737" y="90"/>
      <point x="753" y="137" type="curve"/>
      <point x="831" y="115" type="line"/>
      <point x="799" y="32"/>
      <point x="727" y="-10"/>
      <point x="615" y="-10" type="curve" smooth="yes"/>
      <point x="510" y="-10"/>
      <point x="442" y="32"/>
      <point x="409" y="116" type="curve"/>
      <point x="357" y="24"/>
      <point x="292" y="-10"/>
      <point x="196" y="-10" type="curve" smooth="yes"/>
      <point x="88" y="-10"/>
      <point x="32" y="50"/>
      <point x="32" y="147" type="curve" smooth="yes"/>
      <point x="32" y="260"/>
      <point x="108" y="317"/>
      <point x="267" y="320" type="curve" smooth="yes"/>
      <point x="384" y="322" type="line"/>
      <point x="384" y="351" type="line" smooth="yes"/>
      <point x="384" y="439"/>
      <point x="350" y="471"/>
      <point x="271" y="471" type="curve" smooth="yes"/>
      <point x="188" y="471"/>
      <point x="156" y="447"/>
      <point x="147" y="387" type="curve"/>
      <point x="56" y="396" type="line"/>
      <point x="71" y="491"/>
      <point x="143" y="538"/>
      <point x="272" y="538" type="curve" smooth="yes"/>
      <point x="354" y="538"/>
      <point x="411" y="515"/>
      <point x="443" y="470" type="curve"/>
      <point x="481" y="515"/>
      <point x="537" y="538"/>
      <point x="612" y="538" type="curve" smooth="yes"/>
      <point x="767" y="538"/>
      <point x="845" y="444"/>
      <point x="845" y="257" type="curve" smooth="yes"/>
    </contour>
    <contour>
      <point x="384" y="217" type="curve" smooth="yes"/>
      <point x="384" y="261" type="line"/>
      <point x="289" y="259" type="line" smooth="yes"/>
      <point x="163" y="255"/>
      <point x="123" y="218"/>
      <point x="123" y="146" type="curve" smooth="yes"/>
      <point x="123" y="90"/>
      <point x="156" y="56"/>
      <point x="217" y="56" type="curve" smooth="yes"/>
      <point x="315" y="56"/>
      <point x="384" y="131"/>
    </contour>
    <contour>
      <point x="474" y="313" type="curve"/>
      <point x="754" y="313" type="line"/>
      <point x="745" y="424"/>
      <point x="698" y="473"/>
      <point x="610" y="473" type="curve" smooth="yes"/>
      <point x="527" y="473"/>
      <point x="478" y="416"/>
    </contour>
  </outline>
</glyph>
<glyph name="eth" format="1">
  <advance width="556"/>
  <unicode hex="00F0"/>
  <outline>
    <contour>
      <point x="276" y="-10" type="curve" smooth="yes"/>
      <point x="125" y="-10"/>
      <point x="42" y="76"/>
      <point x="42" y="235" type="curve" smooth="yes"/>
      <point x="42" y="394"/>
      <point x="124" y="478"/>
      <point x="280" y="478" type="curve" smooth="yes"/>
      <point x="325" y="478"/>
      <point x="362" y="468"/>
      <point x="393" y="449" type="curve"/>
      <point x="357" y="520"/>
      <point x="319" y="574"/>
      <point x="278" y="611" type="curve"/>
      <point x="131" y="546" type="line"/>
      <point x="131" y="602" type="line"/>
      <point x="238" y="647" type="line"/>
      <point x="203" y="676"/>
      <point x="163" y="702"/>
      <point x="120" y="725" type="curve"/>
      <point x="222" y="725" type="line"/>
      <point x="248" y="713"/>
      <point x="276" y="696"/>
      <point x="305" y="675" type="curve"/>
      <point x="454" y="739" type="line"/>
      <point x="454" y="685" type="line"/>
      <point x="351" y="640" type="line"/>
      <point x="462" y="537"/>
      <point x="519" y="403"/>
      <point x="519" y="252" type="curve" smooth="yes"/>
      <point x="519" y="249" type="line" smooth="yes"/>
      <point x="519" y="80"/>
      <point x="437" y="-10"/>
    </contour>
    <contour>
      <point x="427" y="235" type="curve" smooth="yes"/>
      <point x="427" y="360"/>
      <point x="383" y="413"/>
      <point x="282" y="413" type="curve" smooth="yes"/>
      <point x="179" y="413"/>
      <point x="134" y="359"/>
      <point x="134" y="235" type="curve" smooth="yes"/>
      <point x="134" y="111"/>
      <point x="182" y="55"/>
      <point x="275" y="55" type="curve" smooth="yes"/>
      <point x="380" y="55"/>
      <point x="427" y="110"/>
    </contour>
  </outline>
</glyph>
<glyph name="divide" format="1">
  <advance width="549"/>
  <unicode hex="00F7"/>
  <outline>
    <contour>
      <point x="315" y="468" type="line"/>
      <point x="233" y="468" type="line"/>
      <point x="233" y="557" type="line"/>
      <point x="315" y="557" type="line"/>
    </contour>
    <contour>
      <point x="518" y="297" type="line"/>
      <point x="32" y="297" type="line"/>
      <point x="32" y="368" type="line"/>
      <point x="518" y="368" type="line"/>
    </contour>
    <contour>
      <point x="315" y="109" type="line"/>
      <point x="233" y="109" type="line"/>
      <point x="233" y="198" type="line"/>
      <point x="315" y="198" type="line"/>
    </contour>
  </outline>
</glyph>
<glyph name="ugrave" format="1">
  <advance width="556"/>
  <unicode hex="00F9"/>
  <outline>
    <contour>
      <point x="68" y="528" type="line"/>
      <point x="156" y="528" type="line"/>
      <point x="156" y="193" type="line" smooth="yes"/>
      <point x="156" y="90"/>
      <point x="182" y="58"/>
      <point x="265" y="58" type="curve" smooth="yes"/>
      <point x="350" y="58"/>
      <point x="402" y="119"/>
      <point x="402" y="222" type="curve" smooth="yes"/>
      <point x="402" y="528" type="line"/>
      <point x="490" y="528" type="line"/>
      <point x="490" y="113" type="line" smooth="yes"/>
      <point x="490" y="52"/>
      <point x="491" y="14"/>
      <point x="493" y="0" type="curve"/>
      <point x="410" y="0" type="line" smooth="yes"/>
      <point x="409" y="1"/>
      <point x="409" y="6"/>
      <point x="408" y="13" type="curve" smooth="yes"/>
      <point x="408" y="28"/>
      <point x="407" y="39"/>
      <point x="406" y="90" type="curve"/>
      <point x="404" y="90" type="line"/>
      <point x="364" y="18"/>
      <point x="314" y="-10"/>
      <point x="235" y="-10" type="curve" smooth="yes"/>
      <point x="119" y="-10"/>
      <point x="68" y="44"/>
      <point x="68" y="176" type="curve" smooth="yes"/>
    </contour>
    <contour>
      <point x="374" y="586" type="line"/>
      <point x="328" y="586" type="line"/>
      <point x="167" y="722" type="line"/>
      <point x="167" y="736" type="line"/>
      <point x="268" y="736" type="line"/>
      <point x="374" y="596" type="line"/>
    </contour>
  </outline>
</glyph>
<glyph name="ucircumflex" format="1">
  <advance width="556"/>
  <unicode hex="00FB"/>
  <outline>
    <contour>
      <point x="68" y="528" type="line"/>
      <point x="156" y="528" type="line"/>
      <point x="156" y="193" type="line" smooth="yes"/>
      <point x="156" y="90"/>
      <point x="182" y="58"/>
      <point x="265" y="58" type="curve" smooth="yes"/>
      <point x="350" y="58"/>
      <point x="402" y="119"/>
      <point x="402" y="222" type="curve" smooth="yes"/>
      <point x="402" y="528" type="line"/>
      <point x="490" y="528" type="line"/>
      <point x="490" y="113" type="line" smooth="yes"/>
      <point x="490" y="52"/>
      <point x="491" y="14"/>
      <point x="493" y="0" type="curve"/>
      <point x="410" y="0" type="line" smooth="yes"/>
      <point x="409" y="1"/>
      <point x="409" y="6"/>
      <point x="408" y="13" type="curve" smooth="yes"/>
      <point x="408" y="28"/>
      <point x="407" y="39"/>
      <point x="406" y="90" type="curve"/>
      <point x="404" y="90" type="line"/>
      <point x="364" y="18"/>
      <point x="314" y="-10"/>
      <point x="235" y="-10" type="curve" smooth="yes"/>
      <point x="119" y="-10"/>
      <point x="68" y="44"/>
      <point x="68" y="176" type="curve" smooth="yes"/>
    </contour>
    <contour>
      <point x="331" y="728" type="line"/>
      <point x="440" y="596" type="line"/>
      <point x="440" y="586" type="line"/>
      <point x="389" y="586" type="line"/>
      <point x="282" y="669" type="line"/>
      <point x="281" y="669" type="line"/>
      <point x="167" y="586" type="line"/>
      <point x="117" y="586" type="line"/>
      <point x="117" y="596" type="line"/>
      <point x="231" y="728" type="line"/>
    </contour>
  </outline>
</glyph>
<glyph name="ccircumflex" format="1">
  <advance width="500"/>
  <unicode hex="0109"/>
  <outline>
    <contour>
      <point x="134" y="267" type="curve" smooth="yes"/>
      <point x="134" y="126"/>
      <point x="179" y="60"/>
      <point x="268" y="60" type="curve" smooth="yes"/>
      <point x="329" y="60"/>
      <point x="374" y="92"/>
      <point x="385" y="163" type="curve"/>
      <point x="474" y="157" type="line"/>
      <point x="459" y="56"/>
      <point x="382" y="-10"/>
      <point x="270" y="-10" type="curve" smooth="yes"/>
      <point x="122" y="-10"/>
      <point x="42" y="85"/>
      <point x="42" y="265" type="curve" smooth="yes"/>
      <point x="42" y="442"/>
      <point x="124" y="538"/>
      <point x="269" y="538" type="curve" smooth="yes"/>
      <point x="377" y="538"/>
      <point x="452" y="479"/>
      <point x="471" y="380" type="curve"/>
      <point x="380" y="374" type="line"/>
      <point x="372" y="431"/>
      <point x="335" y="469"/>
      <point x="267" y="469" type="curve" smooth="yes"/>
      <point x="174" y="469"/>
      <point x="134" y="412"/>
    </contour>
    <contour>
      <point x="315" y="728" type="line"/>
      <point x="425" y="596" type="line"/>
      <point x="425" y="586" type="line"/>
      <point x="374" y="586" type="line"/>
      <point x="267" y="669" type="line"/>
      <point x="266" y="669" type="line"/>
      <point x="152" y="586" type="line"/>
      <point x="102" y="586" type="line"/>
      <point x="102" y="596" type="line"/>
      <point x="216" y="728" type="line"/>
    </contour>
  </outline>
</glyph>
<glyph name="Dcroat" format="1">
  <advance width="722"/>
  <unicode hex="0110"/>
  <outline>
    <contour>
      <point x="7" y="316" type="line"/>
      <point x="7" y="391" type="line"/>
      <point x="82" y="391" type="line"/>
      <point x="82" y="688" type="line"/>
      <point x="310" y="688" type="line" smooth="yes"/>
      <point x="542" y="688"/>
      <point x="674" y="567"/>
      <point x="674" y="351" type="curve" smooth="yes"/>
      <point x="676" y="139"/>
      <point x="538" y="-3"/>
      <point x="339" y="0" type="curve" smooth="yes"/>
      <point x="82" y="0" type="line"/>
      <point x="82" y="316" type="line"/>
    </contour>
    <contour>
      <point x="581" y="351" type="curve" smooth="yes"/>
      <point x="581" y="522"/>
      <point x="484" y="613"/>
      <point x="308" y="613" type="curve" smooth="yes"/>
      <point x="175" y="613" type="line"/>
      <point x="175" y="391" type="line"/>
      <point x="374" y="391" type="line"/>
      <point x="374" y="316" type="line"/>
      <point x="175" y="316" type="line"/>
      <point x="175" y="75" type="line"/>
      <point x="329" y="75" type="line" smooth="yes"/>
      <point x="481" y="75"/>
      <point x="581" y="180"/>
    </contour>
  </outline>
</glyph>
<glyph name="ebreve" format="1">
  <advance width="556"/>
  <unicode hex="0115"/>
  <outline>
    <contour>
      <point x="512" y="246" type="line"/>
      <point x="135" y="246" type="line"/>
      <point x="135" y="125"/>
      <point x="186" y="56"/>
      <point x="282" y="56" type="curve" smooth="yes"/>
      <point x="358" y="56"/>
      <point x="404" y="90"/>
      <point x="420" y="137" type="curve"/>
      <point x="498" y="115" type="line"/>
      <point x="466" y="32"/>
      <point x="394" y="-10"/>
      <point x="282" y="-10" type="curve" smooth="yes"/>
      <point x="126" y="-10"/>
      <point x="42" y="84"/>
      <point x="42" y="268" type="curve" smooth="yes"/>
      <point x="42" y="441"/>
      <point x="127" y="538"/>
      <point x="279" y="538" type="curve" smooth="yes"/>
      <point x="434" y="538"/>
      <point x="512" y="444"/>
      <point x="512" y="257" type="curve" smooth="yes"/>
    </contour>
    <contour>
      <point x="136" y="313" type="curve"/>
      <point x="421" y="313" type="line"/>
      <point x="412" y="424"/>
      <point x="365" y="473"/>
      <point x="277" y="473" type="curve" smooth="yes"/>
      <point x="192" y="473"/>
      <point x="140" y="413"/>
    </contour>
    <contour>
      <point x="278" y="586" type="curve" smooth="yes"/>
      <point x="191" y="586"/>
      <point x="128" y="646"/>
      <point x="116" y="737" type="curve"/>
      <point x="173" y="737" type="line"/>
      <point x="182" y="688"/>
      <point x="218" y="663"/>
      <point x="279" y="663" type="curve" smooth="yes"/>
      <point x="340" y="663"/>
      <point x="375" y="688"/>
      <point x="384" y="737" type="curve"/>
      <point x="441" y="737" type="line"/>
      <point x="428" y="645"/>
      <point x="365" y="586"/>
    </contour>
  </outline>
</glyph>
<glyph name="Edotaccent" format="1">
  <advance width="667"/>
  <unicode hex="0116"/>
  <outline>
    <contour>
      <point x="624" y="0" type="line"/>
      <point x="82" y="0" type="line"/>
      <point x="82" y="688" type="line"/>
      <point x="604" y="688" type="line"/>
      <point x="604" y="612" type="line"/>
      <point x="175" y="612" type="line"/>
      <point x="175" y="391" type="line"/>
      <point x="575" y="391" type="line"/>
      <point x="575" y="316" type="line"/>
      <point x="175" y="316" type="line"/>
      <point x="175" y="76" type="line"/>
      <point x="624" y="76" type="line"/>
    </contour>
    <contour>
      <point x="387" y="784" type="line"/>
      <point x="299" y="784" type="line"/>
      <point x="299" y="868" type="line"/>
      <point x="387" y="868" type="line"/>
    </contour>
  </outline>
</glyph>
<glyph name="Eogonek" format="1">
  <advance width="667"/>
  <unicode hex="0118"/>
  <outline>
    <contour>
      <point x="624" y="0" type="line"/>
      <point x="82" y="0" type="line"/>
      <point x="82" y="688" type="line"/>
      <point x="604" y="688" type="line"/>
      <point x="604" y="612" type="line"/>
      <point x="175" y="612" type="line"/>
      <point x="175" y="391" type="line"/>
      <point x="575" y="391" type="line"/>
      <point x="575" y="316" type="line"/>
      <point x="175" y="316" type="line"/>
      <point x="175" y="76" type="line"/>
      <point x="624" y="76" type="line"/>
    </contour>
    <contour>
      <point x="624" y="-143" type="curve"/>
      <point x="624" y="-195" type="line"/>
      <point x="603" y="-204"/>
      <point x="581" y="-208"/>
      <point x="556" y="-208" type="curve" smooth="yes"/>
      <point x="488" y="-208"/>
      <point x="453" y="-173"/>
      <point x="453" y="-117" type="curve" smooth="yes"/>
      <point x="453" y="-72"/>
      <point x="485" y="-25"/>
      <point x="529" y="0" type="curve"/>
      <point x="594" y="0" type="line"/>
      <point x="561" y="-19"/>
      <point x="522" y="-60"/>
      <point x="522" y="-111" type="curve" smooth="yes"/>
      <point x="522" y="-138"/>
      <point x="539" y="-155"/>
      <point x="568" y="-155" type="curve" smooth="yes"/>
      <point x="585" y="-155"/>
      <point x="604" y="-151"/>
    </contour>
  </outline>
</glyph>
<glyph name="eogonek" format="1">
  <advance width="556"/>
  <unicode hex="0119"/>
  <outline>
    <contour>
      <point x="512" y="246" type="line"/>
      <point x="135" y="246" type="line"/>
      <point x="135" y="125"/>
      <point x="186" y="56"/>
      <point x="282" y="56" type="curve" smooth="yes"/>
      <point x="358" y="56"/>
      <point x="404" y="90"/>
      <point x="420" y="137" type="curve"/>
      <point x="498" y="115" type="line"/>
      <point x="466" y="32"/>
      <point x="394" y="-10"/>
      <point x="282" y="-10" type="curve" smooth="yes"/>
      <point x="126" y="-10"/>
      <point x="42" y="84"/>
      <point x="42" y="268" type="curve" smooth="yes"/>
      <point x="42" y="441"/>
      <point x="127" y="538"/>
      <point x="279" y="538" type="curve" smooth="yes"/>
      <point x="434" y="538"/>
      <point x="512" y="444"/>
      <point x="512" y="257" type="curve" smooth="yes"/>
    </contour>
    <contour>
      <point x="136" y="313" type="curve"/>
      <point x="421" y="313" type="line"/>
      <point x="412" y="424"/>
      <point x="365" y="473"/>
      <point x="277" y="473" type="curve" smooth="yes"/>
      <point x="192" y="473"/>
      <point x="140" y="413"/>
    </contour>
    <contour>
      <point x="396" y="-143" type="curve"/>
      <point x="396" y="-195" type="line"/>
      <point x="375" y="-204"/>
      <point x="353" y="-208"/>
      <point x="328" y="-208" type="curve" smooth="yes"/>
      <point x="260" y="-208"/>
      <point x="225" y="-173"/>
      <point x="225" y="-117" type="curve" smooth="yes"/>
      <point x="225" y="-72"/>
      <point x="257" y="-25"/>
      <point x="301" y="0" type="curve"/>
      <point x="366" y="0" type="line"/>
      <point x="333" y="-19"/>
      <point x="294" y="-60"/>
      <point x="294" y="-111" type="curve" smooth="yes"/>
      <point x="294" y="-138"/>
      <point x="311" y="-155"/>
      <point x="340" y="-155" type="curve" smooth="yes"/>
      <point x="357" y="-155"/>
      <point x="376" y="-151"/>
    </contour>
  </outline>
</glyph>
<glyph name="Gcommaaccent" format="1">
  <advance width="778"/>
  <unicode hex="0122"/>
  <outline>
    <contour>
      <point x="50" y="347" type="curve" smooth="yes"/>
      <point x="50" y="571"/>
      <point x="176" y="698"/>
      <point x="393" y="698" type="curve" smooth="yes"/>
      <point x="545" y="698"/>
      <point x="636" y="649"/>
      <point x="688" y="536" type="curve"/>
      <point x="599" y="510" type="line"/>
      <point x="560" y="587"/>
      <point x="493" y="622"/>
      <point x="390" y="622" type="curve" smooth="yes"/>
      <point x="231" y="622"/>
      <point x="145" y="522"/>
      <point x="145" y="347" type="curve" smooth="yes"/>
      <point x="145" y="174"/>
      <point x="240" y="66"/>
      <point x="397" y="66" type="curve" smooth="yes"/>
      <point x="486" y="66"/>
      <point x="569" y="95"/>
      <point x="617" y="142" type="curve"/>
      <point x="617" y="266" type="line"/>
      <point x="412" y="266" type="line"/>
      <point x="412" y="344" type="line"/>
      <point x="703" y="344" type="line"/>
      <point x="703" y="107" type="line"/>
      <point x="630" y="32"/>
      <point x="521" y="-10"/>
      <point x="397" y="-10" type="curve" smooth="yes"/>
      <point x="181" y="-10"/>
      <point x="50" y="127"/>
    </contour>
    <contour>
      <point x="448" y="-48" type="line"/>
      <point x="448" y="-94" type="line" smooth="yes"/>
      <point x="448" y="-151"/>
      <point x="434" y="-181"/>
      <point x="407" y="-212" type="curve"/>
      <point x="350" y="-212" type="line"/>
      <point x="379" y="-180"/>
      <point x="396" y="-153"/>
      <point x="396" y="-124" type="curve"/>
      <point x="353" y="-124" type="line"/>
      <point x="353" y="-48" type="line"/>
    </contour>
  </outline>
</glyph>
<glyph name="Hcircumflex" format="1">
  <advance width="722"/>
  <unicode hex="0124"/>
  <outline>
    <contour>
      <point x="641" y="0" type="line"/>
      <point x="547" y="0" type="line"/>
      <point x="547" y="319" type="line"/>
      <point x="175" y="319" type="line"/>
      <point x="175" y="0" type="line"/>
      <point x="82" y="0" type="line"/>
      <point x="82" y="688" type="line"/>
      <point x="175" y="688" type="line"/>
      <point x="175" y="397" type="line"/>
      <point x="547" y="397" type="line"/>
      <point x="547" y="688" type="line"/>
      <point x="641" y="688" type="line"/>
    </contour>
    <contour>
      <point x="414" y="874" type="line"/>
      <point x="523" y="757" type="line"/>
      <point x="523" y="747" type="line"/>
      <point x="472" y="747" type="line"/>
      <point x="365" y="815" type="line"/>
      <point x="364" y="815" type="line"/>
      <point x="250" y="747" type="line"/>
      <point x="200" y="747" type="line"/>
      <point x="200" y="757" type="line"/>
      <point x="314" y="874" type="line"/>
    </contour>
  </outline>
</glyph>
<glyph name="Itilde" format="1">
  <advance width="278"/>
  <unicode hex="0128"/>
  <outline>
    <contour>
      <point x="186" y="0" type="line"/>
      <point x="92" y="0" type="line"/>
      <point x="92" y="688" type="line"/>
      <point x="186" y="688" type="line"/>
    </contour>
    <contour>
      <point x="216" y="747" type="curve" smooth="yes"/>
      <point x="162" y="747"/>
      <point x="107" y="805"/>
      <point x="67" y="805" type="curve" smooth="yes"/>
      <point x="31" y="805"/>
      <point x="16" y="784"/>
      <point x="9" y="747" type="curve"/>
      <point x="-35" y="747" type="line"/>
      <point x="-24" y="843"/>
      <point x="3" y="873"/>
      <point x="64" y="878" type="curve"/>
      <point x="120" y="878"/>
      <point x="175" y="820"/>
      <point x="213" y="820" type="curve" smooth="yes"/>
      <point x="246" y="820"/>
      <point x="265" y="839"/>
      <point x="270" y="878" type="curve"/>
      <point x="315" y="878" type="line"/>
      <point x="304" y="782"/>
      <point x="272" y="747"/>
    </contour>
  </outline>
</glyph>
<glyph name="itilde" format="1">
  <advance width="278"/>
  <unicode hex="0129"/>
  <outline>
    <contour>
      <point x="183" y="0" type="line"/>
      <point x="95" y="0" type="line"/>
      <point x="95" y="528" type="line"/>
      <point x="183" y="528" type="line"/>
    </contour>
    <contour>
      <point x="216" y="586" type="curve" smooth="yes"/>
      <point x="162" y="586"/>
      <point x="107" y="645"/>
      <point x="67" y="645" type="curve" smooth="yes"/>
      <point x="31" y="645"/>
      <point x="16" y="623"/>
      <point x="9" y="586" type="curve"/>
      <point x="-35" y="586" type="line"/>
      <point x="-24" y="683"/>
      <point x="3" y="712"/>
      <point x="64" y="717" type="curve"/>
      <point x="120" y="717"/>
      <point x="175" y="659"/>
      <point x="213" y="659" type="curve" smooth="yes"/>
      <point x="246" y="659"/>
      <point x="265" y="678"/>
      <point x="270" y="717" type="curve"/>
      <point x="315" y="717" type="line"/>
      <point x="304" y="621"/>
      <point x="272" y="586"/>
    </contour>
  </outline>
</glyph>
<glyph name="Ibreve" format="1">
  <advance width="278"/>
  <unicode hex="012C"/>
  <outline>
    <contour>
      <point x="186" y="0" type="line"/>
      <point x="92" y="0" type="line"/>
      <point x="92" y="688" type="line"/>
      <point x="186" y="688" type="line"/>
    </contour>
    <contour>
      <point x="140" y="747" type="curve" smooth="yes"/>
      <point x="53" y="747"/>
      <point x="-11" y="796"/>
      <point x="-22" y="869" type="curve"/>
      <point x="35" y="869" type="line"/>
      <point x="46" y="834"/>
      <point x="81" y="813"/>
      <point x="141" y="813" type="curve" smooth="yes"/>
      <point x="200" y="813"/>
      <point x="234" y="834"/>
      <point x="246" y="869" type="curve"/>
      <point x="303" y="869" type="line"/>
      <point x="288" y="794"/>
      <point x="227" y="747"/>
    </contour>
  </outline>
</glyph>
<glyph name="Idotaccent" format="1">
  <advance width="278"/>
  <unicode hex="0130"/>
  <outline>
    <contour>
      <point x="186" y="0" type="line"/>
      <point x="92" y="0" type="line"/>
      <point x="92" y="688" type="line"/>
      <point x="186" y="688" type="line"/>
    </contour>
    <contour>
      <point x="183" y="784" type="line"/>
      <point x="95" y="784" type="line"/>
      <point x="95" y="868" type="line"/>
      <point x="183" y="868" type="line"/>
    </contour>
  </outline>
</glyph>
<glyph name="ij" format="1">
  <advance width="444"/>
  <unicode hex="0133"/>
  <outline>
    <contour>
      <point x="155" y="641" type="line"/>
      <point x="67" y="641" type="line"/>
      <point x="67" y="725" type="line"/>
      <point x="155" y="725" type="line"/>
    </contour>
    <contour>
      <point x="155" y="0" type="line"/>
      <point x="67" y="0" type="line"/>
      <point x="67" y="528" type="line"/>
      <point x="155" y="528" type="line"/>
    </contour>
    <contour>
      <point x="376" y="641" type="line"/>
      <point x="289" y="641" type="line"/>
      <point x="289" y="725" type="line"/>
      <point x="376" y="725" type="line"/>
    </contour>
    <contour>
      <point x="376" y="528" type="line"/>
      <point x="376" y="-65" type="line" smooth="yes"/>
      <point x="376" y="-165"/>
      <point x="338" y="-208"/>
      <point x="259" y="-208" type="curve" smooth="yes"/>
      <point x="234" y="-208"/>
      <point x="214" y="-206"/>
      <point x="197" y="-203" type="curve"/>
      <point x="197" y="-135" type="line"/>
      <point x="228" y="-138" type="line"/>
      <point x="272" y="-138"/>
      <point x="289" y="-120"/>
      <point x="289" y="-52" type="curve" smooth="yes"/>
      <point x="289" y="528" type="line"/>
    </contour>
  </outline>
</glyph>
<glyph name="jcircumflex" format="1">
  <advance width="222"/>
  <unicode hex="0135"/>
  <outline>
    <contour>
      <point x="38" y="-208" type="curve" smooth="yes"/>
      <point x="13" y="-208"/>
      <point x="-8" y="-206"/>
      <point x="-24" y="-203" type="curve"/>
      <point x="-24" y="-135" type="line"/>
      <point x="6" y="-138" type="line"/>
      <point x="51" y="-138"/>
      <point x="67" y="-120"/>
      <point x="67" y="-52" type="curve" smooth="yes"/>
      <point x="67" y="528" type="line"/>
      <point x="155" y="528" type="line"/>
      <point x="155" y="-65" type="line" smooth="yes"/>
      <point x="155" y="-165"/>
      <point x="115" y="-208"/>
    </contour>
    <contour>
      <point x="164" y="728" type="line"/>
      <point x="273" y="596" type="line"/>
      <point x="273" y="586" type="line"/>
      <point x="222" y="586" type="line"/>
      <point x="115" y="669" type="line"/>
      <point x="114" y="669" type="line"/>
      <point x="0" y="586" type="line"/>
      <point x="-50" y="586" type="line"/>
      <point x="-50" y="596" type="line"/>
      <point x="64" y="728" type="line"/>
    </contour>
  </outline>
</glyph>
<glyph name="lacute" format="1">
  <advance width="222"/>
  <unicode hex="013A"/>
  <outline>
    <contour>
      <point x="155" y="0" type="line"/>
      <point x="67" y="0" type="line"/>
      <point x="67" y="725" type="line"/>
      <point x="155" y="725" type="line"/>
    </contour>
    <contour>
      <point x="100" y="785" type="line"/>
      <point x="44" y="785" type="line"/>
      <point x="44" y="795" type="line"/>
      <point x="150" y="905" type="line"/>
      <point x="251" y="905" type="line"/>
      <point x="251" y="891" type="line"/>
    </contour>
  </outline>
</glyph>
<glyph name="lcommaaccent" format="1">
  <advance width="222"/>
  <unicode hex="013C"/>
  <outline>
    <contour>
      <point x="155" y="0" type="line"/>
      <point x="67" y="0" type="line"/>
      <point x="67" y="725" type="line"/>
      <point x="155" y="725" type="line"/>
    </contour>
    <contour>
      <point x="160" y="-48" type="line"/>
      <point x="160" y="-94" type="line" smooth="yes"/>
      <point x="160" y="-151"/>
      <point x="144" y="-181"/>
      <point x="119" y="-212" type="curve"/>
      <point x="62" y="-212" type="line"/>
      <point x="90" y="-180"/>
      <point x="107" y="-153"/>
      <point x="107" y="-124" type="curve"/>
      <point x="64" y="-124" type="line"/>
      <point x="64" y="-48" type="line"/>
    </contour>
  </outline>
</glyph>
<glyph name="ldot" format="1">
  <advance width="334"/>
  <unicode hex="0140"/>
  <outline>
    <contour>
      <point x="155" y="0" type="line"/>
      <point x="67" y="0" type="line"/>
      <point x="67" y="725" type="line"/>
      <point x="155" y="725" type="line"/>
    </contour>
    <contour>
      <point x="321" y="335" type="line"/>
      <point x="233" y="335" type="line"/>
      <point x="233" y="419" type="line"/>
      <point x="321" y="419" type="line"/>
    </contour>
  </outline>
</glyph>
<glyph name="lslash" format="1">
  <advance width="222"/>
  <unicode hex="0142"/>
  <outline>
    <contour>
      <point x="155" y="0" type="line"/>
      <point x="67" y="0" type="line"/>
      <point x="67" y="265" type="line"/>
      <point x="8" y="231" type="line"/>
      <point x="8" y="309" type="line"/>
      <point x="67" y="342" type="line"/>
      <point x="67" y="725" type="line"/>
      <point x="155" y="725" type="line"/>
      <point x="155" y="393" type="line"/>
      <point x="216" y="428" type="line"/>
      <point x="216" y="350" type="line"/>
      <point x="155" y="315" type="line"/>
    </contour>
  </outline>
</glyph>
<glyph name="Ncommaaccent" format="1">
  <advance width="722"/>
  <unicode hex="0145"/>
  <outline>
    <contour>
      <point x="641" y="0" type="line"/>
      <point x="528" y="0" type="line"/>
      <point x="160" y="586" type="line"/>
      <point x="163" y="539" type="line"/>
      <point x="165" y="457" type="line"/>
      <point x="165" y="0" type="line"/>
      <point x="82" y="0" type="line"/>
      <point x="82" y="688" type="line"/>
      <point x="190" y="688" type="line"/>
      <point x="563" y="98" type="line"/>
      <point x="559" y="162"/>
      <point x="557" y="208"/>
      <point x="557" y="237" type="curve" smooth="yes"/>
      <point x="557" y="688" type="line"/>
      <point x="641" y="688" type="line"/>
    </contour>
    <contour>
      <point x="408" y="-48" type="line"/>
      <point x="408" y="-94" type="line" smooth="yes"/>
      <point x="408" y="-151"/>
      <point x="394" y="-181"/>
      <point x="367" y="-212" type="curve"/>
      <point x="310" y="-212" type="line"/>
      <point x="339" y="-180"/>
      <point x="356" y="-153"/>
      <point x="356" y="-124" type="curve"/>
      <point x="313" y="-124" type="line"/>
      <point x="313" y="-48" type="line"/>
    </contour>
  </outline>
</glyph>
<glyph name="ncommaaccent" format="1">
  <advance width="556"/>
  <unicode hex="0146"/>
  <outline>
    <contour>
      <point x="493" y="0" type="line"/>
      <point x="405" y="0" type="line"/>
      <point x="405" y="335" type="line" smooth="yes"/>
      <point x="405" y="438"/>
      <point x="379" y="470"/>
      <point x="296" y="470" type="curve" smooth="yes"/>
      <point x="211" y="470"/>
      <point x="159" y="409"/>
      <point x="159" y="306" type="curve" smooth="yes"/>
      <point x="159" y="0" type="line"/>
      <point x="71" y="0" type="line"/>
      <point x="71" y="416" type="line" smooth="yes"/>
      <point x="71" y="477"/>
      <point x="70" y="515"/>
      <point x="68" y="528" type="curve"/>
      <point x="151" y="528" type="line" smooth="yes"/>
      <point x="152" y="527"/>
      <point x="152" y="522"/>
      <point x="152" y="515" type="curve" smooth="yes"/>
      <point x="153" y="500"/>
      <point x="154" y="490"/>
      <point x="155" y="438" type="curve"/>
      <point x="157" y="438" type="line"/>
      <point x="197" y="511"/>
      <point x="247" y="538"/>
      <point x="326" y="538" type="curve" smooth="yes"/>
      <point x="442" y="538"/>
      <point x="493" y="485"/>
      <point x="493" y="352" type="curve" smooth="yes"/>
    </contour>
    <contour>
      <point x="330" y="-48" type="line"/>
      <point x="330" y="-94" type="line" smooth="yes"/>
      <point x="330" y="-151"/>
      <point x="314" y="-181"/>
      <point x="289" y="-212" type="curve"/>
      <point x="231" y="-212" type="line"/>
      <point x="260" y="-180"/>
      <point x="277" y="-153"/>
      <point x="277" y="-124" type="curve"/>
      <point x="234" y="-124" type="line"/>
      <point x="234" y="-48" type="line"/>
    </contour>
  </outline>
</glyph>
<glyph name="Eng" format="1">
  <advance width="723"/>
  <unicode hex="014A"/>
  <outline>
    <contour>
      <point x="459" y="-10" type="curve" smooth="yes"/>
      <point x="398" y="-10"/>
      <point x="343" y="14"/>
      <point x="304" y="63" type="curve"/>
      <point x="366" y="119" type="line"/>
      <point x="395" y="83"/>
      <point x="427" y="65"/>
      <point x="462" y="65" type="curve" smooth="yes"/>
      <point x="486" y="65"/>
      <point x="505" y="71"/>
      <point x="518" y="84" type="curve" smooth="yes"/>
      <point x="546" y="111"/>
      <point x="558" y="155"/>
      <point x="558" y="267" type="curve" smooth="yes"/>
      <point x="558" y="424" type="line" smooth="yes"/>
      <point x="558" y="563"/>
      <point x="510" y="622"/>
      <point x="395" y="622" type="curve" smooth="yes"/>
      <point x="278" y="625"/>
      <point x="173" y="533"/>
      <point x="176" y="435" type="curve" smooth="yes"/>
      <point x="176" y="0" type="line"/>
      <point x="83" y="0" type="line"/>
      <point x="83" y="533" type="line"/>
      <point x="81" y="688" type="line"/>
      <point x="170" y="688" type="line"/>
      <point x="173" y="638"/>
      <point x="174" y="597"/>
      <point x="174" y="565" type="curve"/>
      <point x="176" y="565" type="line"/>
      <point x="223" y="649"/>
      <point x="316" y="698"/>
      <point x="423" y="698" type="curve" smooth="yes"/>
      <point x="583" y="698"/>
      <point x="650" y="618"/>
      <point x="650" y="434" type="curve" smooth="yes"/>
      <point x="650" y="265" type="line" smooth="yes"/>
      <point x="650" y="192"/>
      <point x="644" y="137"/>
      <point x="631" y="100" type="curve" smooth="yes"/>
      <point x="607" y="27"/>
      <point x="554" y="-10"/>
    </contour>
  </outline>
</glyph>
<glyph name="eng" format="1">
  <advance width="556"/>
  <unicode hex="014B"/>
  <outline>
    <contour>
      <point x="375" y="-208" type="curve" smooth="yes"/>
      <point x="350" y="-208"/>
      <point x="330" y="-206"/>
      <point x="313" y="-203" type="curve"/>
      <point x="313" y="-135" type="line"/>
      <point x="344" y="-138" type="line"/>
      <point x="388" y="-138"/>
      <point x="405" y="-120"/>
      <point x="405" y="-52" type="curve" smooth="yes"/>
      <point x="405" y="335" type="line" smooth="yes"/>
      <point x="405" y="438"/>
      <point x="379" y="470"/>
      <point x="296" y="470" type="curve" smooth="yes"/>
      <point x="211" y="470"/>
      <point x="159" y="409"/>
      <point x="159" y="306" type="curve" smooth="yes"/>
      <point x="159" y="0" type="line"/>
      <point x="71" y="0" type="line"/>
      <point x="71" y="416" type="line" smooth="yes"/>
      <point x="71" y="477"/>
      <point x="70" y="515"/>
      <point x="68" y="528" type="curve"/>
      <point x="151" y="528" type="line" smooth="yes"/>
      <point x="152" y="527"/>
      <point x="152" y="522"/>
      <point x="152" y="515" type="curve" smooth="yes"/>
      <point x="153" y="500"/>
      <point x="154" y="490"/>
      <point x="155" y="438" type="curve"/>
      <point x="157" y="438" type="line"/>
      <point x="197" y="511"/>
      <point x="247" y="538"/>
      <point x="326" y="538" type="curve" smooth="yes"/>
      <point x="442" y="538"/>
      <point x="493" y="485"/>
      <point x="493" y="352" type="curve" smooth="yes"/>
      <point x="493" y="-65" type="line" smooth="yes"/>
      <point x="493" y="-164"/>
      <point x="455" y="-208"/>
    </contour>
  </outline>
</glyph>
<glyph name="obreve" format="1">
  <advance width="556"/>
  <unicode hex="014F"/>
  <outline>
    <contour>
      <point x="514" y="265" type="curve" smooth="yes"/>
      <point x="514" y="80"/>
      <point x="431" y="-10"/>
      <point x="276" y="-10" type="curve" smooth="yes"/>
      <point x="121" y="-10"/>
      <point x="42" y="86"/>
      <point x="42" y="265" type="curve" smooth="yes"/>
      <point x="42" y="447"/>
      <point x="121" y="538"/>
      <point x="279" y="538" type="curve" smooth="yes"/>
      <point x="440" y="538"/>
      <point x="514" y="452"/>
    </contour>
    <contour>
      <point x="422" y="265" type="curve" smooth="yes"/>
      <point x="422" y="410"/>
      <point x="383" y="473"/>
      <point x="280" y="473" type="curve" smooth="yes"/>
      <point x="177" y="473"/>
      <point x="134" y="408"/>
      <point x="134" y="265" type="curve" smooth="yes"/>
      <point x="134" y="125"/>
      <point x="178" y="55"/>
      <point x="275" y="55" type="curve" smooth="yes"/>
      <point x="380" y="55"/>
      <point x="422" y="121"/>
    </contour>
    <contour>
      <point x="278" y="586" type="curve" smooth="yes"/>
      <point x="191" y="586"/>
      <point x="128" y="646"/>
      <point x="116" y="737" type="curve"/>
      <point x="173" y="737" type="line"/>
      <point x="182" y="688"/>
      <point x="218" y="663"/>
      <point x="279" y="663" type="curve" smooth="yes"/>
      <point x="340" y="663"/>
      <point x="375" y="688"/>
      <point x="384" y="737" type="curve"/>
      <point x="441" y="737" type="line"/>
      <point x="428" y="645"/>
      <point x="365" y="586"/>
    </contour>
  </outline>
</glyph>
<glyph name="OE" format="1">
  <advance width="1000"/>
  <unicode hex="0152"/>
  <outline>
    <contour>
      <point x="956" y="0" type="line"/>
      <point x="488" y="0" type="line" smooth="yes"/>
      <point x="466" y="-3"/>
      <point x="432" y="-5"/>
      <point x="385" y="-5" type="curve" smooth="yes"/>
      <point x="280" y="-5"/>
      <point x="198" y="26"/>
      <point x="137" y="89" type="curve" smooth="yes"/>
      <point x="77" y="152"/>
      <point x="47" y="238"/>
      <point x="47" y="347" type="curve" smooth="yes"/>
      <point x="47" y="455"/>
      <point x="77" y="540"/>
      <point x="137" y="601" type="curve" smooth="yes"/>
      <point x="197" y="662"/>
      <point x="280" y="693"/>
      <point x="386" y="693" type="curve" smooth="yes"/>
      <point x="421" y="693"/>
      <point x="455" y="691"/>
      <point x="490" y="688" type="curve" smooth="yes"/>
      <point x="936" y="688" type="line"/>
      <point x="936" y="612" type="line"/>
      <point x="544" y="612" type="line"/>
      <point x="544" y="391" type="line"/>
      <point x="907" y="391" type="line"/>
      <point x="907" y="316" type="line"/>
      <point x="544" y="316" type="line"/>
      <point x="544" y="76" type="line"/>
      <point x="956" y="76" type="line"/>
    </contour>
    <contour>
      <point x="385" y="71" type="curve" smooth="yes"/>
      <point x="412" y="71"/>
      <point x="434" y="72"/>
      <point x="451" y="73" type="curve"/>
      <point x="451" y="615" type="line"/>
      <point x="422" y="618"/>
      <point x="397" y="617"/>
      <point x="386" y="617" type="curve" smooth="yes"/>
      <point x="227" y="617"/>
      <point x="142" y="522"/>
      <point x="142" y="347" type="curve" smooth="yes"/>
      <point x="142" y="172"/>
      <point x="233" y="71"/>
    </contour>
  </outline>
</glyph>
<glyph name="oe" format="1">
  <advance width="944"/>
  <unicode hex="0153"/>
  <outline>
    <contour>
      <point x="899" y="246" type="line"/>
      <point x="522" y="246" type="line"/>
      <point x="522" y="125"/>
      <point x="574" y="56"/>
      <point x="670" y="56" type="curve" smooth="yes"/>
      <point x="746" y="56"/>
      <point x="792" y="90"/>
      <point x="808" y="137" type="curve"/>
      <point x="885" y="115" type="line"/>
      <point x="854" y="32"/>
      <point x="782" y="-10"/>
      <point x="670" y="-10" type="curve" smooth="yes"/>
      <point x="581" y="-10"/>
      <point x="516" y="20"/>
      <point x="477" y="80" type="curve"/>
      <point x="436" y="20"/>
      <point x="371" y="-10"/>
      <point x="281" y="-10" type="curve" smooth="yes"/>
      <point x="126" y="-10"/>
      <point x="42" y="86"/>
      <point x="42" y="265" type="curve" smooth="yes"/>
      <point x="42" y="446"/>
      <point x="127" y="538"/>
      <point x="284" y="538" type="curve" smooth="yes"/>
      <point x="375" y="538"/>
      <point x="440" y="509"/>
      <point x="478" y="452" type="curve"/>
      <point x="519" y="509"/>
      <point x="582" y="538"/>
      <point x="667" y="538" type="curve" smooth="yes"/>
      <point x="822" y="538"/>
      <point x="899" y="444"/>
      <point x="899" y="257" type="curve" smooth="yes"/>
    </contour>
    <contour>
      <point x="430" y="265" type="curve" smooth="yes"/>
      <point x="430" y="408"/>
      <point x="389" y="473"/>
      <point x="285" y="473" type="curve" smooth="yes"/>
      <point x="180" y="473"/>
      <point x="134" y="404"/>
      <point x="134" y="265" type="curve" smooth="yes"/>
      <point x="134" y="125"/>
      <point x="183" y="55"/>
      <point x="280" y="55" type="curve" smooth="yes"/>
      <point x="387" y="55"/>
      <point x="430" y="121"/>
    </contour>
    <contour>
      <point x="523" y="313" type="curve"/>
      <point x="809" y="313" type="line"/>
      <point x="798" y="424"/>
      <point x="753" y="473"/>
      <point x="665" y="473" type="curve" smooth="yes"/>
      <point x="580" y="473"/>
      <point x="527" y="413"/>
    </contour>
  </outline>
</glyph>
<glyph name="Racute" format="1">
  <advance width="722"/>
  <unicode hex="0154"/>
  <outline>
    <contour>
      <point x="676" y="0" type="line"/>
      <point x="568" y="0" type="line"/>
      <point x="390" y="286" type="line"/>
      <point x="175" y="286" type="line"/>
      <point x="175" y="0" type="line"/>
      <point x="82" y="0" type="line"/>
      <point x="82" y="688" type="line"/>
      <point x="406" y="688" type="line" smooth="yes"/>
      <point x="561" y="688"/>
      <point x="648" y="615"/>
      <point x="648" y="491" type="curve" smooth="yes"/>
      <point x="648" y="390"/>
      <point x="585" y="315"/>
      <point x="480" y="296" type="curve"/>
    </contour>
    <contour>
      <point x="555" y="490" type="curve" smooth="yes"/>
      <point x="555" y="570"/>
      <point x="499" y="613"/>
      <point x="396" y="613" type="curve" smooth="yes"/>
      <point x="175" y="613" type="line"/>
      <point x="175" y="359" type="line"/>
      <point x="400" y="359" type="line" smooth="yes"/>
      <point x="499" y="359"/>
      <point x="555" y="407"/>
    </contour>
    <contour>
      <point x="326" y="747" type="line"/>
      <point x="270" y="747" type="line"/>
      <point x="270" y="757" type="line"/>
      <point x="376" y="867" type="line"/>
      <point x="477" y="867" type="line"/>
      <point x="477" y="853" type="line"/>
    </contour>
  </outline>
</glyph>
<glyph name="Rcommaaccent" format="1">
  <advance width="722"/>
  <unicode hex="0156"/>
  <outline>
    <contour>
      <point x="676" y="0" type="line"/>
      <point x="568" y="0" type="line"/>
      <point x="390" y="286" type="line"/>
      <point x="175" y="286" type="line"/>
      <point x="175" y="0" type="line"/>
      <point x="82" y="0" type="line"/>
      <point x="82" y="688" type="line"/>
      <point x="406" y="688" type="line" smooth="yes"/>
      <point x="561" y="688"/>
      <point x="648" y="615"/>
      <point x="648" y="491" type="curve" smooth="yes"/>
      <point x="648" y="390"/>
      <point x="585" y="315"/>
      <point x="480" y="296" type="curve"/>
    </contour>
    <contour>
      <point x="555" y="490" type="curve" smooth="yes"/>
      <point x="555" y="570"/>
      <point x="499" y="613"/>
      <point x="396" y="613" type="curve" smooth="yes"/>
      <point x="175" y="613" type="line"/>
      <point x="175" y="359" type="line"/>
      <point x="400" y="359" type="line" smooth="yes"/>
      <point x="499" y="359"/>
      <point x="555" y="407"/>
    </contour>
    <contour>
      <point x="413" y="-48" type="line"/>
      <point x="413" y="-94" type="line" smooth="yes"/>
      <point x="413" y="-151"/>
      <point x="397" y="-181"/>
      <point x="372" y="-212" type="curve"/>
      <point x="314" y="-212" type="line"/>
      <point x="343" y="-180"/>
      <point x="360" y="-153"/>
      <point x="360" y="-124" type="curve"/>
      <point x="317" y="-124" type="line"/>
      <point x="317" y="-48" type="line"/>
    </contour>
  </outline>
</glyph>
<glyph name="rcommaaccent" format="1">
  <advance width="333"/>
  <unicode hex="0157"/>
  <outline>
    <contour>
      <point x="157" y="0" type="line"/>
      <point x="69" y="0" type="line"/>
      <point x="69" y="405" type="line" smooth="yes"/>
      <point x="69" y="442"/>
      <point x="68" y="483"/>
      <point x="66" y="528" type="curve"/>
      <point x="149" y="528" type="line"/>
      <point x="152" y="468"/>
      <point x="153" y="432"/>
      <point x="153" y="420" type="curve"/>
      <point x="155" y="420" type="line"/>
      <point x="183" y="511"/>
      <point x="214" y="538"/>
      <point x="281" y="538" type="curve" smooth="yes"/>
      <point x="292" y="538"/>
      <point x="304" y="536"/>
      <point x="316" y="533" type="curve"/>
      <point x="316" y="453" type="line"/>
      <point x="305" y="456"/>
      <point x="289" y="458"/>
      <point x="270" y="458" type="curve" smooth="yes"/>
      <point x="197" y="458"/>
      <point x="157" y="392"/>
      <point x="157" y="275" type="curve" smooth="yes"/>
    </contour>
    <contour>
      <point x="161" y="-48" type="line"/>
      <point x="161" y="-94" type="line" smooth="yes"/>
      <point x="161" y="-151"/>
      <point x="147" y="-181"/>
      <point x="120" y="-212" type="curve"/>
      <point x="63" y="-212" type="line"/>
      <point x="92" y="-180"/>
      <point x="109" y="-153"/>
      <point x="109" y="-124" type="curve"/>
      <point x="66" y="-124" type="line"/>
      <point x="66" y="-48" type="line"/>
    </contour>
  </outline>
</glyph>
<glyph name="Scedilla" format="1">
  <advance width="667"/>
  <unicode hex="015E"/>
  <outline>
    <contour>
      <point x="621" y="190" type="curve" smooth="yes"/>
      <point x="621" y="63"/>
      <point x="517" y="-10"/>
      <point x="337" y="-10" type="curve" smooth="yes"/>
      <point x="169" y="-10"/>
      <point x="72" y="48"/>
      <point x="45" y="165" type="curve"/>
      <point x="136" y="183" type="line"/>
      <point x="156" y="100"/>
      <point x="224" y="63"/>
      <point x="340" y="63" type="curve" smooth="yes"/>
      <point x="461" y="63"/>
      <point x="529" y="105"/>
      <point x="529" y="185" type="curve" smooth="yes"/>
      <point x="529" y="275"/>
      <point x="442" y="291"/>
      <point x="318" y="317" type="curve" smooth="yes"/>
      <point x="210" y="341"/>
      <point x="160" y="365"/>
      <point x="128" y="394" type="curve" smooth="yes"/>
      <point x="96" y="423"/>
      <point x="78" y="463"/>
      <point x="78" y="514" type="curve" smooth="yes"/>
      <point x="78" y="633"/>
      <point x="171" y="698"/>
      <point x="339" y="698" type="curve" smooth="yes"/>
      <point x="495" y="698"/>
      <point x="572" y="655"/>
      <point x="605" y="540" type="curve"/>
      <point x="513" y="524" type="line"/>
      <point x="493" y="597"/>
      <point x="438" y="628"/>
      <point x="338" y="628" type="curve" smooth="yes"/>
      <point x="227" y="628"/>
      <point x="168" y="591"/>
      <point x="168" y="519" type="curve" smooth="yes"/>
      <point x="168" y="498"/>
      <point x="174" y="480"/>
      <point x="185" y="466" type="curve" smooth="yes"/>
      <point x="196" y="453"/>
      <point x="213" y="441"/>
      <point x="234" y="431" type="curve" smooth="yes"/>
      <point x="255" y="422"/>
      <point x="297" y="410"/>
      <point x="360" y="396" type="curve" smooth="yes"/>
      <point x="487" y="368"/>
      <point x="621" y="339"/>
    </contour>
    <contour>
      <point x="442" y="-124" type="curve" smooth="yes"/>
      <point x="442" y="-183"/>
      <point x="397" y="-212"/>
      <point x="308" y="-212" type="curve" smooth="yes"/>
      <point x="289" y="-212"/>
      <point x="275" y="-211"/>
      <point x="264" y="-210" type="curve"/>
      <point x="264" y="-162" type="line"/>
      <point x="280" y="-164"/>
      <point x="294" y="-165"/>
      <point x="306" y="-165" type="curve" smooth="yes"/>
      <point x="354" y="-165"/>
      <point x="378" y="-152"/>
      <point x="378" y="-125" type="curve" smooth="yes"/>
      <point x="378" y="-100"/>
      <point x="356" y="-88"/>
      <point x="313" y="-88" type="curve" smooth="yes"/>
      <point x="299" y="-88"/>
      <point x="290" y="-88"/>
      <point x="285" y="-89" type="curve"/>
      <point x="317" y="0" type="line"/>
      <point x="369" y="0" type="line"/>
      <point x="350" y="-49" type="line"/>
      <point x="411" y="-50"/>
      <point x="442" y="-79"/>
    </contour>
  </outline>
</glyph>
<glyph name="scedilla" format="1">
  <advance width="500"/>
  <unicode hex="015F"/>
  <outline>
    <contour>
      <point x="464" y="146" type="curve" smooth="yes"/>
      <point x="464" y="46"/>
      <point x="385" y="-10"/>
      <point x="250" y="-10" type="curve" smooth="yes"/>
      <point x="118" y="-10"/>
      <point x="49" y="32"/>
      <point x="28" y="124" type="curve"/>
      <point x="105" y="139" type="line"/>
      <point x="121" y="83"/>
      <point x="166" y="57"/>
      <point x="250" y="57" type="curve" smooth="yes"/>
      <point x="338" y="57"/>
      <point x="378" y="84"/>
      <point x="378" y="139" type="curve" smooth="yes"/>
      <point x="378" y="180"/>
      <point x="351" y="205"/>
      <point x="288" y="222" type="curve" smooth="yes"/>
      <point x="225" y="239" type="line" smooth="yes"/>
      <point x="174" y="252"/>
      <point x="138" y="264"/>
      <point x="117" y="277" type="curve" smooth="yes"/>
      <point x="74" y="302"/>
      <point x="49" y="337"/>
      <point x="49" y="389" type="curve" smooth="yes"/>
      <point x="49" y="485"/>
      <point x="119" y="537"/>
      <point x="250" y="537" type="curve" smooth="yes"/>
      <point x="367" y="537"/>
      <point x="436" y="498"/>
      <point x="455" y="407" type="curve"/>
      <point x="375" y="397" type="line"/>
      <point x="366" y="445"/>
      <point x="322" y="470"/>
      <point x="250" y="470" type="curve" smooth="yes"/>
      <point x="171" y="470"/>
      <point x="134" y="446"/>
      <point x="134" y="397" type="curve" smooth="yes"/>
      <point x="134" y="382"/>
      <point x="138" y="370"/>
      <point x="146" y="360" type="curve" smooth="yes"/>
      <point x="154" y="351"/>
      <point x="166" y="342"/>
      <point x="181" y="335" type="curve" smooth="yes"/>
      <point x="196" y="328"/>
      <point x="228" y="319"/>
      <point x="277" y="307" type="curve" smooth="yes"/>
      <point x="324" y="296"/>
      <point x="357" y="285"/>
      <point x="378" y="275" type="curve" smooth="yes"/>
      <point x="399" y="265"/>
      <point x="415" y="254"/>
      <point x="426" y="242" type="curve" smooth="yes"/>
      <point x="450" y="218"/>
      <point x="464" y="186"/>
    </contour>
    <contour>
      <point x="342" y="-124" type="curve" smooth="yes"/>
      <point x="342" y="-183"/>
      <point x="297" y="-212"/>
      <point x="208" y="-212" type="curve" smooth="yes"/>
      <point x="190" y="-212"/>
      <point x="176" y="-211"/>
      <point x="165" y="-210" type="curve"/>
      <point x="165" y="-162" type="line"/>
      <point x="180" y="-164"/>
      <point x="194" y="-165"/>
      <point x="207" y="-165" type="curve" smooth="yes"/>
      <point x="254" y="-165"/>
      <point x="278" y="-152"/>
      <point x="278" y="-125" type="curve" smooth="yes"/>
      <point x="278" y="-100"/>
      <point x="256" y="-88"/>
      <point x="213" y="-88" type="curve" smooth="yes"/>
      <point x="199" y="-88"/>
      <point x="190" y="-88"/>
      <point x="186" y="-89" type="curve" smooth="yes"/>
      <point x="217" y="0" type="line"/>
      <point x="270" y="0" type="line"/>
      <point x="250" y="-49" type="line"/>
      <point x="311" y="-50"/>
      <point x="342" y="-79"/>
    </contour>
  </outline>
</glyph>
<glyph name="uni0162" format="1">
  <advance width="611"/>
  <unicode hex="0162"/>
  <outline>
    <contour>
      <point x="588" y="612" type="line"/>
      <point x="352" y="612" type="line"/>
      <point x="352" y="0" type="line"/>
      <point x="259" y="0" type="line"/>
      <point x="259" y="612" type="line"/>
      <point x="22" y="612" type="line"/>
      <point x="22" y="688" type="line"/>
      <point x="588" y="688" type="line"/>
    </contour>
    <contour>
      <point x="407" y="-124" type="curve" smooth="yes"/>
      <point x="407" y="-183"/>
      <point x="362" y="-212"/>
      <point x="273" y="-212" type="curve" smooth="yes"/>
      <point x="254" y="-212"/>
      <point x="240" y="-211"/>
      <point x="229" y="-210" type="curve"/>
      <point x="229" y="-162" type="line"/>
      <point x="245" y="-164"/>
      <point x="259" y="-165"/>
      <point x="271" y="-165" type="curve" smooth="yes"/>
      <point x="319" y="-165"/>
      <point x="343" y="-152"/>
      <point x="343" y="-125" type="curve" smooth="yes"/>
      <point x="343" y="-100"/>
      <point x="321" y="-88"/>
      <point x="278" y="-88" type="curve" smooth="yes"/>
      <point x="264" y="-88"/>
      <point x="255" y="-88"/>
      <point x="250" y="-89" type="curve"/>
      <point x="282" y="0" type="line"/>
      <point x="334" y="0" type="line"/>
      <point x="315" y="-49" type="line"/>
      <point x="376" y="-50"/>
      <point x="407" y="-79"/>
    </contour>
  </outline>
</glyph>
<glyph name="Tcaron" format="1">
  <advance width="611"/>
  <unicode hex="0164"/>
  <outline>
    <contour>
      <point x="588" y="612" type="line"/>
      <point x="352" y="612" type="line"/>
      <point x="352" y="0" type="line"/>
      <point x="259" y="0" type="line"/>
      <point x="259" y="612" type="line"/>
      <point x="22" y="612" type="line"/>
      <point x="22" y="688" type="line"/>
      <point x="588" y="688" type="line"/>
    </contour>
    <contour>
      <point x="464" y="864" type="line"/>
      <point x="355" y="747" type="line"/>
      <point x="255" y="747" type="line"/>
      <point x="141" y="864" type="line"/>
      <point x="141" y="874" type="line"/>
      <point x="192" y="874" type="line"/>
      <point x="305" y="806" type="line"/>
      <point x="306" y="806" type="line"/>
      <point x="413" y="874" type="line"/>
      <point x="464" y="874" type="line"/>
    </contour>
  </outline>
</glyph>
<glyph name="Tbar" format="1">
  <advance width="611"/>
  <unicode hex="0166"/>
  <outline>
    <contour>
      <point x="588" y="612" type="line"/>
      <point x="352" y="612" type="line"/>
      <point x="352" y="391" type="line"/>
      <point x="489" y="391" type="line"/>
      <point x="489" y="316" type="line"/>
      <point x="352" y="316" type="line"/>
      <point x="352" y="0" type="line"/>
      <point x="259" y="0" type="line"/>
      <point x="259" y="316" type="line"/>
      <point x="123" y="316" type="line"/>
      <point x="123" y="391" type="line"/>
      <point x="259" y="391" type="line"/>
      <point x="259" y="612" type="line"/>
      <point x="22" y="612" type="line"/>
      <point x="22" y="688" type="line"/>
      <point x="588" y="688" type="line"/>
    </contour>
  </outline>
</glyph>
<glyph name="utilde" format="1">
  <advance width="556"/>
  <unicode hex="0169"/>
  <outline>
    <contour>
      <point x="65" y="528" type="line"/>
      <point x="153" y="528" type="line"/>
      <point x="153" y="193" type="line" smooth="yes"/>
      <point x="153" y="90"/>
      <point x="179" y="58"/>
      <point x="262" y="58" type="curve" smooth="yes"/>
      <point x="347" y="58"/>
      <point x="399" y="119"/>
      <point x="399" y="222" type="curve" smooth="yes"/>
      <point x="399" y="528" type="line"/>
      <point x="487" y="528" type="line"/>
      <point x="487" y="113" type="line" smooth="yes"/>
      <point x="487" y="52"/>
      <point x="488" y="14"/>
      <point x="490" y="0" type="curve"/>
      <point x="407" y="0" type="line" smooth="yes"/>
      <point x="406" y="1"/>
      <point x="406" y="6"/>
      <point x="405" y="13" type="curve" smooth="yes"/>
      <point x="405" y="28"/>
      <point x="404" y="39"/>
      <point x="403" y="90" type="curve"/>
      <point x="401" y="90" type="line"/>
      <point x="361" y="18"/>
      <point x="312" y="-10"/>
      <point x="232" y="-10" type="curve" smooth="yes"/>
      <point x="117" y="-10"/>
      <point x="65" y="44"/>
      <point x="65" y="176" type="curve" smooth="yes"/>
    </contour>
    <contour>
      <point x="360" y="586" type="curve" smooth="yes"/>
      <point x="306" y="586"/>
      <point x="251" y="645"/>
      <point x="211" y="645" type="curve" smooth="yes"/>
      <point x="175" y="645"/>
      <point x="160" y="623"/>
      <point x="153" y="586" type="curve"/>
      <point x="109" y="586" type="line"/>
      <point x="120" y="683"/>
      <point x="146" y="712"/>
      <point x="208" y="717" type="curve"/>
      <point x="266" y="717"/>
      <point x="319" y="659"/>
      <point x="357" y="659" type="curve" smooth="yes"/>
      <point x="390" y="659"/>
      <point x="409" y="678"/>
      <point x="414" y="717" type="curve"/>
      <point x="459" y="717" type="line"/>
      <point x="448" y="621"/>
      <point x="416" y="586"/>
    </contour>
  </outline>
</glyph>
<glyph name="Uring" format="1">
  <advance width="722"/>
  <unicode hex="016E"/>
  <outline>
    <contour>
      <point x="357" y="-10" type="curve" smooth="yes"/>
      <point x="187" y="-10"/>
      <point x="77" y="87"/>
      <point x="77" y="250" type="curve" smooth="yes"/>
      <point x="77" y="688" type="line"/>
      <point x="170" y="688" type="line"/>
      <point x="170" y="258" type="line" smooth="yes"/>
      <point x="170" y="133"/>
      <point x="236" y="66"/>
      <point x="356" y="66" type="curve" smooth="yes"/>
      <point x="480" y="66"/>
      <point x="552" y="135"/>
      <point x="552" y="264" type="curve" smooth="yes"/>
      <point x="552" y="688" type="line"/>
      <point x="645" y="688" type="line"/>
      <point x="645" y="259" type="line" smooth="yes"/>
      <point x="645" y="90"/>
      <point x="532" y="-10"/>
    </contour>
    <contour>
      <point x="479" y="788" type="curve" smooth="yes"/>
      <point x="479" y="755"/>
      <point x="467" y="727"/>
      <point x="444" y="704" type="curve" smooth="yes"/>
      <point x="421" y="681"/>
      <point x="394" y="669"/>
      <point x="361" y="669" type="curve" smooth="yes"/>
      <point x="329" y="669"/>
      <point x="301" y="681"/>
      <point x="278" y="704" type="curve" smooth="yes"/>
      <point x="255" y="727"/>
      <point x="243" y="755"/>
      <point x="243" y="788" type="curve" smooth="yes"/>
      <point x="243" y="821"/>
      <point x="255" y="848"/>
      <point x="278" y="871" type="curve" smooth="yes"/>
      <point x="301" y="894"/>
      <point x="329" y="905"/>
      <point x="361" y="905" type="curve" smooth="yes"/>
      <point x="394" y="905"/>
      <point x="421" y="893"/>
      <point x="444" y="870" type="curve" smooth="yes"/>
      <point x="467" y="847"/>
      <point x="479" y="820"/>
    </contour>
    <contour>
      <point x="427" y="788" type="curve" smooth="yes"/>
      <point x="427" y="824"/>
      <point x="398" y="853"/>
      <point x="361" y="853" type="curve" smooth="yes"/>
      <point x="324" y="853"/>
      <point x="295" y="824"/>
      <point x="295" y="788" type="curve" smooth="yes"/>
      <point x="295" y="752"/>
      <point x="324" y="721"/>
      <point x="361" y="721" type="curve" smooth="yes"/>
      <point x="400" y="721"/>
      <point x="427" y="751"/>
    </contour>
  </outline>
</glyph>
<glyph name="uring" format="1">
  <advance width="556"/>
  <unicode hex="016F"/>
  <outline>
    <contour>
      <point x="65" y="528" type="line"/>
      <point x="153" y="528" type="line"/>
      <point x="153" y="193" type="line" smooth="yes"/>
      <point x="153" y="90"/>
      <point x="179" y="58"/>
      <point x="262" y="58" type="curve" smooth="yes"/>
      <point x="347" y="58"/>
      <point x="399" y="119"/>
      <point x="399" y="222" type="curve" smooth="yes"/>
      <point x="399" y="528" type="line"/>
      <point x="487" y="528" type="line"/>
      <point x="487" y="113" type="line" smooth="yes"/>
      <point x="487" y="52"/>
      <point x="488" y="14"/>
      <point x="490" y="0" type="curve"/>
      <point x="407" y="0" type="line" smooth="yes"/>
      <point x="406" y="1"/>
      <point x="406" y="6"/>
      <point x="405" y="13" type="curve" smooth="yes"/>
      <point x="405" y="28"/>
      <point x="404" y="39"/>
      <point x="403" y="90" type="curve"/>
      <point x="401" y="90" type="line"/>
      <point x="361" y="18"/>
      <point x="312" y="-10"/>
      <point x="232" y="-10" type="curve" smooth="yes"/>
      <point x="117" y="-10"/>
      <point x="65" y="44"/>
      <point x="65" y="176" type="curve" smooth="yes"/>
    </contour>
    <contour>
      <point x="396" y="688" type="curve" smooth="yes"/>
      <point x="396" y="656"/>
      <point x="384" y="628"/>
      <point x="361" y="605" type="curve" smooth="yes"/>
      <point x="338" y="582"/>
      <point x="311" y="570"/>
      <point x="278" y="570" type="curve" smooth="yes"/>
      <point x="245" y="570"/>
      <point x="217" y="582"/>
      <point x="194" y="605" type="curve" smooth="yes"/>
      <point x="171" y="628"/>
      <point x="160" y="656"/>
      <point x="160" y="688" type="curve" smooth="yes"/>
      <point x="160" y="721"/>
      <point x="171" y="749"/>
      <point x="194" y="772" type="curve" smooth="yes"/>
      <point x="217" y="795"/>
      <point x="245" y="806"/>
      <point x="278" y="806" type="curve" smooth="yes"/>
      <point x="310" y="806"/>
      <point x="338" y="794"/>
      <point x="361" y="771" type="curve" smooth="yes"/>
      <point x="384" y="748"/>
      <point x="396" y="721"/>
    </contour>
    <contour>
      <point x="343" y="688" type="curve" smooth="yes"/>
      <point x="343" y="725"/>
      <point x="314" y="754"/>
      <point x="278" y="754" type="curve" smooth="yes"/>
      <point x="241" y="754"/>
      <point x="212" y="725"/>
      <point x="212" y="688" type="curve" smooth="yes"/>
      <point x="212" y="653"/>
      <point x="239" y="622"/>
      <point x="278" y="622" type="curve" smooth="yes"/>
      <point x="315" y="622"/>
      <point x="343" y="652"/>
    </contour>
  </outline>
</glyph>
<glyph name="Uogonek" format="1">
  <advance width="722"/>
  <unicode hex="0172"/>
  <outline>
    <contour>
      <point x="357" y="-10" type="curve" smooth="yes"/>
      <point x="187" y="-10"/>
      <point x="77" y="87"/>
      <point x="77" y="250" type="curve" smooth="yes"/>
      <point x="77" y="688" type="line"/>
      <point x="170" y="688" type="line"/>
      <point x="170" y="258" type="line" smooth="yes"/>
      <point x="170" y="133"/>
      <point x="236" y="66"/>
      <point x="356" y="66" type="curve" smooth="yes"/>
      <point x="480" y="66"/>
      <point x="552" y="135"/>
      <point x="552" y="264" type="curve" smooth="yes"/>
      <point x="552" y="688" type="line"/>
      <point x="645" y="688" type="line"/>
      <point x="645" y="259" type="line" smooth="yes"/>
      <point x="645" y="90"/>
      <point x="532" y="-10"/>
    </contour>
    <contour>
      <point x="476" y="-143" type="curve"/>
      <point x="476" y="-195" type="line"/>
      <point x="455" y="-204"/>
      <point x="433" y="-208"/>
      <point x="408" y="-208" type="curve" smooth="yes"/>
      <point x="339" y="-208"/>
      <point x="305" y="-173"/>
      <point x="305" y="-117" type="curve" smooth="yes"/>
      <point x="305" y="-72"/>
      <point x="336" y="-25"/>
      <point x="380" y="0" type="curve"/>
      <point x="445" y="0" type="line"/>
      <point x="413" y="-19"/>
      <point x="374" y="-60"/>
      <point x="374" y="-111" type="curve" smooth="yes"/>
      <point x="374" y="-138"/>
      <point x="390" y="-155"/>
      <point x="419" y="-155" type="curve" smooth="yes"/>
      <point x="437" y="-155"/>
      <point x="456" y="-151"/>
    </contour>
  </outline>
</glyph>
<glyph name="uogonek" format="1">
  <advance width="556"/>
  <unicode hex="0173"/>
  <outline>
    <contour>
      <point x="65" y="528" type="line"/>
      <point x="153" y="528" type="line"/>
      <point x="153" y="193" type="line" smooth="yes"/>
      <point x="153" y="90"/>
      <point x="179" y="58"/>
      <point x="262" y="58" type="curve" smooth="yes"/>
      <point x="347" y="58"/>
      <point x="399" y="119"/>
      <point x="399" y="222" type="curve" smooth="yes"/>
      <point x="399" y="528" type="line"/>
      <point x="487" y="528" type="line"/>
      <point x="487" y="113" type="line" smooth="yes"/>
      <point x="487" y="52"/>
      <point x="488" y="14"/>
      <point x="490" y="0" type="curve"/>
      <point x="407" y="0" type="line" smooth="yes"/>
      <point x="406" y="1"/>
      <point x="406" y="6"/>
      <point x="405" y="13" type="curve" smooth="yes"/>
      <point x="405" y="28"/>
      <point x="404" y="39"/>
      <point x="403" y="90" type="curve"/>
      <point x="401" y="90" type="line"/>
      <point x="361" y="18"/>
      <point x="312" y="-10"/>
      <point x="232" y="-10" type="curve" smooth="yes"/>
      <point x="117" y="-10"/>
      <point x="65" y="44"/>
      <point x="65" y="176" type="curve" smooth="yes"/>
    </contour>
    <contour>
      <point x="502" y="-143" type="curve"/>
      <point x="502" y="-195" type="line"/>
      <point x="482" y="-204"/>
      <point x="460" y="-208"/>
      <point x="435" y="-208" type="curve" smooth="yes"/>
      <point x="366" y="-208"/>
      <point x="332" y="-173"/>
      <point x="332" y="-117" type="curve" smooth="yes"/>
      <point x="332" y="-72"/>
      <point x="363" y="-25"/>
      <point x="407" y="0" type="curve"/>
      <point x="472" y="0" type="line"/>
      <point x="441" y="-18"/>
      <point x="400" y="-61"/>
      <point x="400" y="-111" type="curve" smooth="yes"/>
      <point x="400" y="-138"/>
      <point x="417" y="-155"/>
      <point x="446" y="-155" type="curve" smooth="yes"/>
      <point x="464" y="-155"/>
      <point x="483" y="-151"/>
    </contour>
  </outline>
</glyph>
<glyph name="Ycircumflex" format="1">
  <advance width="667"/>
  <unicode hex="0176"/>
  <outline>
    <contour>
      <point x="645" y="688" type="line"/>
      <point x="379" y="285" type="line"/>
      <point x="379" y="0" type="line"/>
      <point x="287" y="0" type="line"/>
      <point x="287" y="285" type="line"/>
      <point x="22" y="688" type="line"/>
      <point x="125" y="688" type="line"/>
      <point x="334" y="360" type="line"/>
      <point x="542" y="688" type="line"/>
    </contour>
    <contour>
      <point x="383" y="874" type="line"/>
      <point x="493" y="757" type="line"/>
      <point x="493" y="747" type="line"/>
      <point x="441" y="747" type="line"/>
      <point x="334" y="815" type="line"/>
      <point x="333" y="815" type="line"/>
      <point x="220" y="747" type="line"/>
      <point x="169" y="747" type="line"/>
      <point x="169" y="757" type="line"/>
      <point x="284" y="874" type="line"/>
    </contour>
  </outline>
</glyph>
<glyph name="Ydieresis" format="1">
  <advance width="667"/>
  <unicode hex="0178"/>
  <outline>
    <contour>
      <point x="645" y="688" type="line"/>
      <point x="379" y="285" type="line"/>
      <point x="379" y="0" type="line"/>
      <point x="287" y="0" type="line"/>
      <point x="287" y="285" type="line"/>
      <point x="22" y="688" type="line"/>
      <point x="125" y="688" type="line"/>
      <point x="334" y="360" type="line"/>
      <point x="542" y="688" type="line"/>
    </contour>
    <contour>
      <point x="470" y="747" type="line"/>
      <point x="390" y="747" type="line"/>
      <point x="390" y="837" type="line"/>
      <point x="470" y="837" type="line"/>
    </contour>
    <contour>
      <point x="278" y="747" type="line"/>
      <point x="198" y="747" type="line"/>
      <point x="198" y="837" type="line"/>
      <point x="278" y="837" type="line"/>
    </contour>
  </outline>
</glyph>
<glyph name="zacute" format="1">
  <advance width="500"/>
  <unicode hex="017A"/>
  <outline>
    <contour>
      <point x="450" y="0" type="line"/>
      <point x="41" y="0" type="line"/>
      <point x="41" y="67" type="line"/>
      <point x="336" y="460" type="line"/>
      <point x="57" y="460" type="line"/>
      <point x="57" y="528" type="line"/>
      <point x="440" y="528" type="line"/>
      <point x="440" y="461" type="line"/>
      <point x="144" y="68" type="line"/>
      <point x="450" y="68" type="line"/>
    </contour>
    <contour>
      <point x="232" y="586" type="line"/>
      <point x="186" y="586" type="line"/>
      <point x="186" y="596" type="line"/>
      <point x="292" y="736" type="line"/>
      <point x="393" y="736" type="line"/>
      <point x="393" y="722" type="line"/>
    </contour>
  </outline>
</glyph>
<glyph name="zdotaccent" format="1">
  <advance width="500"/>
  <unicode hex="017C"/>
  <outline>
    <contour>
      <point x="450" y="0" type="line"/>
      <point x="41" y="0" type="line"/>
      <point x="41" y="67" type="line"/>
      <point x="336" y="460" type="line"/>
      <point x="57" y="460" type="line"/>
      <point x="57" y="528" type="line"/>
      <point x="440" y="528" type="line"/>
      <point x="440" y="461" type="line"/>
      <point x="144" y="68" type="line"/>
      <point x="450" y="68" type="line"/>
    </contour>
    <contour>
      <point x="288" y="641" type="line"/>
      <point x="200" y="641" type="line"/>
      <point x="200" y="725" type="line"/>
      <point x="288" y="725" type="line"/>
    </contour>
  </outline>
</glyph>
<glyph name="Zcaron" format="1">
  <advance width="611"/>
  <unicode hex="017D"/>
  <outline>
    <contour>
      <point x="580" y="76" type="line"/>
      <point x="580" y="0" type="line"/>
      <point x="32" y="0" type="line"/>
      <point x="32" y="70" type="line"/>
      <point x="451" y="612" type="line"/>
      <point x="67" y="612" type="line"/>
      <point x="67" y="688" type="line"/>
      <point x="557" y="688" type="line"/>
      <point x="557" y="620" type="line"/>
      <point x="138" y="76" type="line"/>
    </contour>
    <contour>
      <point x="476" y="864" type="line"/>
      <point x="366" y="747" type="line"/>
      <point x="267" y="747" type="line"/>
      <point x="152" y="864" type="line"/>
      <point x="152" y="874" type="line"/>
      <point x="203" y="874" type="line"/>
      <point x="316" y="806" type="line"/>
      <point x="317" y="806" type="line"/>
      <point x="424" y="874" type="line"/>
      <point x="476" y="874" type="line"/>
    </contour>
  </outline>
</glyph>
<glyph name="zcaron" format="1">
  <advance width="500"/>
  <unicode hex="017E"/>
  <outline>
    <contour>
      <point x="450" y="0" type="line"/>
      <point x="41" y="0" type="line"/>
      <point x="41" y="67" type="line"/>
      <point x="336" y="460" type="line"/>
      <point x="57" y="460" type="line"/>
      <point x="57" y="528" type="line"/>
      <point x="440" y="528" type="line"/>
      <point x="440" y="461" type="line"/>
      <point x="144" y="68" type="line"/>
      <point x="450" y="68" type="line"/>
    </contour>
    <contour>
      <point x="399" y="718" type="line"/>
      <point x="290" y="586" type="line"/>
      <point x="190" y="586" type="line"/>
      <point x="76" y="718" type="line"/>
      <point x="76" y="728" type="line"/>
      <point x="127" y="728" type="line"/>
      <point x="240" y="646" type="line"/>
      <point x="241" y="646" type="line"/>
      <point x="348" y="728" type="line"/>
      <point x="399" y="728" type="line"/>
    </contour>
  </outline>
</glyph>
<glyph name="uni0181" format="1">
  <advance width="758"/>
  <unicode hex="0181"/>
  <outline>
    <contour>
      <point x="701" y="194" type="curve" smooth="yes"/>
      <point x="701" y="71"/>
      <point x="607" y="0"/>
      <point x="448" y="0" type="curve" smooth="yes"/>
      <point x="169" y="0" type="line"/>
      <point x="169" y="616" type="line"/>
      <point x="155" y="616" type="line" smooth="yes"/>
      <point x="104" y="616"/>
      <point x="85" y="595"/>
      <point x="85" y="548" type="curve" smooth="yes"/>
      <point x="85" y="532"/>
      <point x="88" y="515"/>
      <point x="94" y="497" type="curve"/>
      <point x="18" y="488" type="line"/>
      <point x="13" y="512"/>
      <point x="10" y="534"/>
      <point x="10" y="554" type="curve" smooth="yes"/>
      <point x="10" y="639"/>
      <point x="69" y="688"/>
      <point x="169" y="688" type="curve" smooth="yes"/>
      <point x="419" y="688" type="line" smooth="yes"/>
      <point x="580" y="688"/>
      <point x="661" y="632"/>
      <point x="661" y="521" type="curve" smooth="yes"/>
      <point x="661" y="440"/>
      <point x="614" y="382"/>
      <point x="530" y="363" type="curve"/>
      <point x="639" y="350"/>
      <point x="701" y="286"/>
    </contour>
    <contour>
      <point x="607" y="201" type="curve" smooth="yes"/>
      <point x="607" y="282"/>
      <point x="550" y="323"/>
      <point x="436" y="323" type="curve" smooth="yes"/>
      <point x="262" y="323" type="line"/>
      <point x="262" y="75" type="line"/>
      <point x="443" y="75" type="line" smooth="yes"/>
      <point x="558" y="75"/>
      <point x="607" y="117"/>
    </contour>
    <contour>
      <point x="567" y="510" type="curve" smooth="yes"/>
      <point x="567" y="583"/>
      <point x="515" y="613"/>
      <point x="419" y="613" type="curve" smooth="yes"/>
      <point x="262" y="613" type="line"/>
      <point x="262" y="396" type="line"/>
      <point x="419" y="396" type="line" smooth="yes"/>
      <point x="519" y="396"/>
      <point x="567" y="433"/>
    </contour>
  </outline>
</glyph>
<glyph name="uni0182" format="1">
  <advance width="656"/>
  <unicode hex="0182"/>
  <outline>
    <contour>
      <point x="617" y="202" type="curve" smooth="yes"/>
      <point x="617" y="79"/>
      <point x="528" y="0"/>
      <point x="380" y="0" type="curve" smooth="yes"/>
      <point x="82" y="0" type="line"/>
      <point x="82" y="688" type="line"/>
      <point x="546" y="688" type="line"/>
      <point x="546" y="612" type="line"/>
      <point x="175" y="612" type="line"/>
      <point x="175" y="397" type="line"/>
      <point x="374" y="397" type="line" smooth="yes"/>
      <point x="527" y="397"/>
      <point x="617" y="325"/>
    </contour>
    <contour>
      <point x="523" y="201" type="curve" smooth="yes"/>
      <point x="523" y="280"/>
      <point x="470" y="323"/>
      <point x="363" y="323" type="curve" smooth="yes"/>
      <point x="175" y="323" type="line"/>
      <point x="175" y="74" type="line"/>
      <point x="367" y="74" type="line" smooth="yes"/>
      <point x="474" y="74"/>
      <point x="523" y="120"/>
    </contour>
  </outline>
</glyph>
<glyph name="uni018C" format="1">
  <advance width="556"/>
  <unicode hex="018C"/>
  <outline>
    <contour>
      <point x="40" y="267" type="curve" smooth="yes"/>
      <point x="40" y="448"/>
      <point x="101" y="538"/>
      <point x="234" y="538" type="curve" smooth="yes"/>
      <point x="314" y="538"/>
      <point x="367" y="511"/>
      <point x="399" y="443" type="curve"/>
      <point x="401" y="443" type="line"/>
      <point x="400" y="472"/>
      <point x="399" y="497"/>
      <point x="399" y="518" type="curve" smooth="yes"/>
      <point x="399" y="647" type="line"/>
      <point x="124" y="647" type="line"/>
      <point x="124" y="725" type="line"/>
      <point x="487" y="725" type="line"/>
      <point x="487" y="109" type="line" smooth="yes"/>
      <point x="487" y="54"/>
      <point x="488" y="17"/>
      <point x="490" y="0" type="curve"/>
      <point x="405" y="0" type="line" smooth="yes"/>
      <point x="404" y="3"/>
      <point x="403" y="14"/>
      <point x="402" y="35" type="curve" smooth="yes"/>
      <point x="401" y="56"/>
      <point x="400" y="72"/>
      <point x="400" y="82" type="curve"/>
      <point x="399" y="82" type="line"/>
      <point x="366" y="18"/>
      <point x="314" y="-10"/>
      <point x="234" y="-10" type="curve" smooth="yes"/>
      <point x="105" y="-10"/>
      <point x="40" y="82"/>
    </contour>
    <contour>
      <point x="132" y="264" type="curve" smooth="yes"/>
      <point x="132" y="117"/>
      <point x="169" y="55"/>
      <point x="258" y="55" type="curve" smooth="yes"/>
      <point x="357" y="55"/>
      <point x="399" y="119"/>
      <point x="399" y="258" type="curve" smooth="yes"/>
      <point x="399" y="405"/>
      <point x="357" y="470"/>
      <point x="257" y="470" type="curve" smooth="yes"/>
      <point x="169" y="470"/>
      <point x="132" y="411"/>
    </contour>
  </outline>
</glyph>
<glyph name="uni018D" format="1">
  <advance width="557"/>
  <unicode hex="018D"/>
  <outline>
    <contour>
      <point x="92" y="-208" type="line"/>
      <point x="92" y="-137" type="line"/>
      <point x="346" y="-137" type="line"/>
      <point x="313" y="-108"/>
      <point x="279" y="-79"/>
      <point x="243" y="-51" type="curve" smooth="yes"/>
      <point x="137" y="35" type="line" smooth="yes"/>
      <point x="69" y="92"/>
      <point x="42" y="163"/>
      <point x="42" y="272" type="curve" smooth="yes"/>
      <point x="42" y="453"/>
      <point x="122" y="538"/>
      <point x="279" y="538" type="curve" smooth="yes"/>
      <point x="442" y="538"/>
      <point x="514" y="456"/>
      <point x="514" y="272" type="curve" smooth="yes"/>
      <point x="514" y="101"/>
      <point x="442" y="11"/>
      <point x="297" y="2" type="curve"/>
      <point x="471" y="-143" type="line"/>
      <point x="471" y="-208" type="line"/>
    </contour>
    <contour>
      <point x="422" y="272" type="curve" smooth="yes"/>
      <point x="422" y="415"/>
      <point x="384" y="473"/>
      <point x="280" y="473" type="curve" smooth="yes"/>
      <point x="176" y="473"/>
      <point x="134" y="412"/>
      <point x="134" y="272" type="curve" smooth="yes"/>
      <point x="134" y="133"/>
      <point x="176" y="67"/>
      <point x="275" y="67" type="curve" smooth="yes"/>
      <point x="381" y="67"/>
      <point x="422" y="125"/>
    </contour>
  </outline>
</glyph>
<glyph name="uni018E" format="1">
  <advance width="667"/>
  <unicode hex="018E"/>
  <outline>
    <contour>
      <point x="585" y="0" type="line"/>
      <point x="43" y="0" type="line"/>
      <point x="43" y="76" type="line"/>
      <point x="492" y="76" type="line"/>
      <point x="492" y="316" type="line"/>
      <point x="93" y="316" type="line"/>
      <point x="93" y="391" type="line"/>
      <point x="492" y="391" type="line"/>
      <point x="492" y="612" type="line"/>
      <point x="63" y="612" type="line"/>
      <point x="63" y="688" type="line"/>
      <point x="585" y="688" type="line"/>
    </contour>
  </outline>
</glyph>
<glyph name="uni0191" format="1">
  <advance width="611"/>
  <unicode hex="0191"/>
  <outline>
    <contour>
      <point x="571" y="612" type="line"/>
      <point x="175" y="612" type="line"/>
      <point x="175" y="356" type="line"/>
      <point x="559" y="356" type="line"/>
      <point x="559" y="279" type="line"/>
      <point x="175" y="279" type="line"/>
      <point x="175" y="-63" type="line" smooth="yes"/>
      <point x="175" y="-156"/>
      <point x="126" y="-208"/>
      <point x="42" y="-208" type="curve" smooth="yes"/>
      <point x="22" y="-208"/>
      <point x="-1" y="-205"/>
      <point x="-28" y="-198" type="curve"/>
      <point x="-11" y="-122" type="line"/>
      <point x="6" y="-127"/>
      <point x="20" y="-130"/>
      <point x="31" y="-130" type="curve" smooth="yes"/>
      <point x="65" y="-130"/>
      <point x="82" y="-104"/>
      <point x="82" y="-53" type="curve" smooth="yes"/>
      <point x="82" y="688" type="line"/>
      <point x="571" y="688" type="line"/>
    </contour>
  </outline>
</glyph>
<glyph name="florin" format="1">
  <advance width="556"/>
  <unicode hex="0192"/>
  <outline>
    <contour>
      <point x="470" y="700" type="curve"/>
      <point x="455" y="641" type="line"/>
      <point x="438" y="646"/>
      <point x="420" y="648"/>
      <point x="401" y="648" type="curve" smooth="yes"/>
      <point x="362" y="648"/>
      <point x="344" y="627"/>
      <point x="332" y="566" type="curve" smooth="yes"/>
      <point x="319" y="499" type="line"/>
      <point x="422" y="499" type="line"/>
      <point x="410" y="435" type="line"/>
      <point x="306" y="435" type="line"/>
      <point x="182" y="-212" type="line"/>
      <point x="94" y="-212" type="line"/>
      <point x="218" y="435" type="line"/>
      <point x="144" y="435" type="line"/>
      <point x="157" y="499" type="line"/>
      <point x="230" y="499" type="line"/>
      <point x="245" y="573" type="line" smooth="yes"/>
      <point x="265" y="673"/>
      <point x="312" y="710"/>
      <point x="397" y="710" type="curve" smooth="yes"/>
      <point x="423" y="710"/>
      <point x="447" y="707"/>
    </contour>
  </outline>
</glyph>
<glyph name="uni0194" format="1">
  <advance width="624"/>
  <unicode hex="0194"/>
  <outline>
    <contour>
      <point x="313" y="-208" type="curve" smooth="yes"/>
      <point x="238" y="-208"/>
      <point x="191" y="-158"/>
      <point x="191" y="-78" type="curve" smooth="yes"/>
      <point x="191" y="-63"/>
      <point x="193" y="-47"/>
      <point x="198" y="-30" type="curve" smooth="yes"/>
      <point x="203" y="-13"/>
      <point x="208" y="3"/>
      <point x="215" y="20" type="curve" smooth="yes"/>
      <point x="222" y="37"/>
      <point x="238" y="71"/>
      <point x="264" y="121" type="curve"/>
      <point x="5" y="688" type="line"/>
      <point x="103" y="688" type="line"/>
      <point x="313" y="199" type="line"/>
      <point x="521" y="688" type="line"/>
      <point x="619" y="688" type="line"/>
      <point x="360" y="121" type="line"/>
      <point x="389" y="68"/>
      <point x="409" y="27"/>
      <point x="419" y="-2" type="curve" smooth="yes"/>
      <point x="430" y="-31"/>
      <point x="435" y="-57"/>
      <point x="435" y="-78" type="curve" smooth="yes"/>
      <point x="435" y="-157"/>
      <point x="389" y="-208"/>
    </contour>
    <contour>
      <point x="355" y="-80" type="curve" smooth="yes"/>
      <point x="355" y="-43"/>
      <point x="336" y="18"/>
      <point x="313" y="63" type="curve"/>
      <point x="290" y="18"/>
      <point x="271" y="-41"/>
      <point x="271" y="-80" type="curve" smooth="yes"/>
      <point x="271" y="-113"/>
      <point x="286" y="-134"/>
      <point x="313" y="-134" type="curve" smooth="yes"/>
      <point x="340" y="-134"/>
      <point x="355" y="-115"/>
    </contour>
  </outline>
</glyph>
<glyph name="uni0196" format="1">
  <advance width="222"/>
  <unicode hex="0196"/>
  <outline>
    <contour>
      <point x="155" y="0" type="line"/>
      <point x="67" y="0" type="line"/>
      <point x="67" y="725" type="line"/>
      <point x="155" y="725" type="line"/>
    </contour>
  </outline>
</glyph>
<glyph name="uni019C" format="1">
  <advance width="891"/>
  <unicode hex="019C"/>
  <outline>
    <contour>
      <point x="583" y="-10" type="curve" smooth="yes"/>
      <point x="516" y="-10"/>
      <point x="467" y="17"/>
      <point x="437" y="72" type="curve"/>
      <point x="398" y="17"/>
      <point x="345" y="-10"/>
      <point x="279" y="-10" type="curve" smooth="yes"/>
      <point x="144" y="-10"/>
      <point x="77" y="70"/>
      <point x="77" y="230" type="curve" smooth="yes"/>
      <point x="77" y="688" type="line"/>
      <point x="169" y="688" type="line"/>
      <point x="169" y="238" type="line" smooth="yes"/>
      <point x="169" y="115"/>
      <point x="200" y="66"/>
      <point x="284" y="66" type="curve" smooth="yes"/>
      <point x="361" y="66"/>
      <point x="396" y="116"/>
      <point x="396" y="215" type="curve" smooth="yes"/>
      <point x="396" y="688" type="line"/>
      <point x="488" y="688" type="line"/>
      <point x="488" y="223" type="line" smooth="yes"/>
      <point x="488" y="116"/>
      <point x="518" y="66"/>
      <point x="595" y="66" type="curve" smooth="yes"/>
      <point x="676" y="66"/>
      <point x="716" y="119"/>
      <point x="716" y="224" type="curve" smooth="yes"/>
      <point x="716" y="688" type="line"/>
      <point x="808" y="688" type="line"/>
      <point x="808" y="113" type="line" smooth="yes"/>
      <point x="808" y="66"/>
      <point x="810" y="28"/>
      <point x="813" y="0" type="curve"/>
      <point x="730" y="0" type="line"/>
      <point x="727" y="71" type="line"/>
      <point x="694" y="19"/>
      <point x="644" y="-10"/>
    </contour>
  </outline>
</glyph>
<glyph name="Ohorn" format="1">
  <advance width="857"/>
  <unicode hex="01A0"/>
  <outline>
    <contour>
      <point x="730" y="347" type="curve" smooth="yes"/>
      <point x="730" y="129"/>
      <point x="598" y="-10"/>
      <point x="388" y="-10" type="curve" smooth="yes"/>
      <point x="175" y="-10"/>
      <point x="47" y="128"/>
      <point x="47" y="347" type="curve" smooth="yes"/>
      <point x="47" y="457"/>
      <point x="77" y="543"/>
      <point x="137" y="605" type="curve" smooth="yes"/>
      <point x="198" y="667"/>
      <point x="282" y="698"/>
      <point x="389" y="698" type="curve" smooth="yes"/>
      <point x="548" y="698"/>
      <point x="658" y="625"/>
      <point x="706" y="498" type="curve"/>
      <point x="763" y="526"/>
      <point x="782" y="559"/>
      <point x="782" y="606" type="curve"/>
      <point x="739" y="606" type="line"/>
      <point x="739" y="688" type="line"/>
      <point x="834" y="688" type="line"/>
      <point x="834" y="636" type="line" smooth="yes"/>
      <point x="834" y="556"/>
      <point x="798" y="497"/>
      <point x="717" y="457" type="curve"/>
      <point x="726" y="422"/>
      <point x="730" y="386"/>
    </contour>
    <contour>
      <point x="635" y="347" type="curve" smooth="yes"/>
      <point x="635" y="519"/>
      <point x="545" y="622"/>
      <point x="389" y="622" type="curve" smooth="yes"/>
      <point x="232" y="622"/>
      <point x="142" y="522"/>
      <point x="142" y="347" type="curve" smooth="yes"/>
      <point x="142" y="261"/>
      <point x="164" y="193"/>
      <point x="207" y="142" type="curve" smooth="yes"/>
      <point x="250" y="91"/>
      <point x="311" y="66"/>
      <point x="388" y="66" type="curve" smooth="yes"/>
      <point x="547" y="66"/>
      <point x="635" y="168"/>
    </contour>
  </outline>
</glyph>
<glyph name="uni01A4" format="1">
  <advance width="754"/>
  <unicode hex="01A4"/>
  <outline>
    <contour>
      <point x="169" y="688" type="curve" smooth="yes"/>
      <point x="455" y="688" type="line" smooth="yes"/>
      <point x="610" y="688"/>
      <point x="698" y="613"/>
      <point x="698" y="481" type="curve" smooth="yes"/>
      <point x="698" y="416"/>
      <point x="677" y="364"/>
      <point x="634" y="325" type="curve" smooth="yes"/>
      <point x="591" y="287"/>
      <point x="534" y="268"/>
      <point x="461" y="268" type="curve" smooth="yes"/>
      <point x="259" y="268" type="line"/>
      <point x="259" y="0" type="line"/>
      <point x="166" y="0" type="line"/>
      <point x="166" y="616" type="line"/>
      <point x="155" y="616" type="line" smooth="yes"/>
      <point x="104" y="616"/>
      <point x="85" y="595"/>
      <point x="85" y="548" type="curve" smooth="yes"/>
      <point x="85" y="532"/>
      <point x="88" y="515"/>
      <point x="94" y="497" type="curve"/>
      <point x="18" y="488" type="line"/>
      <point x="13" y="512"/>
      <point x="10" y="534"/>
      <point x="10" y="554" type="curve" smooth="yes"/>
      <point x="10" y="639"/>
      <point x="69" y="688"/>
    </contour>
    <contour>
      <point x="604" y="480" type="curve" smooth="yes"/>
      <point x="604" y="569"/>
      <point x="551" y="613"/>
      <point x="444" y="613" type="curve" smooth="yes"/>
      <point x="259" y="613" type="line"/>
      <point x="259" y="342" type="line"/>
      <point x="448" y="342" type="line" smooth="yes"/>
      <point x="552" y="342"/>
      <point x="604" y="388"/>
    </contour>
  </outline>
</glyph>
<glyph name="uni01A6" format="1">
  <advance width="667"/>
  <unicode hex="01A6"/>
  <outline>
    <contour>
      <point x="658" y="-156" type="line"/>
      <point x="550" y="-156" type="line"/>
      <point x="361" y="210" type="line"/>
      <point x="175" y="210" type="line"/>
      <point x="175" y="0" type="line"/>
      <point x="82" y="0" type="line"/>
      <point x="82" y="688" type="line"/>
      <point x="173" y="688" type="line"/>
      <point x="173" y="613" type="line"/>
      <point x="377" y="613" type="line" smooth="yes"/>
      <point x="533" y="613"/>
      <point x="620" y="540"/>
      <point x="620" y="416" type="curve" smooth="yes"/>
      <point x="620" y="313"/>
      <point x="557" y="240"/>
      <point x="452" y="221" type="curve"/>
    </contour>
    <contour>
      <point x="526" y="415" type="curve" smooth="yes"/>
      <point x="526" y="495"/>
      <point x="471" y="538"/>
      <point x="368" y="538" type="curve" smooth="yes"/>
      <point x="175" y="538" type="line"/>
      <point x="175" y="284" type="line"/>
      <point x="372" y="284" type="line" smooth="yes"/>
      <point x="471" y="284"/>
      <point x="526" y="332"/>
    </contour>
  </outline>
</glyph>
<glyph name="uni01A7" format="1">
  <advance width="667"/>
  <unicode hex="01A7"/>
  <outline>
    <contour>
      <point x="48" y="187" type="curve" smooth="yes"/>
      <point x="48" y="244"/>
      <point x="68" y="290"/>
      <point x="107" y="323" type="curve" smooth="yes"/>
      <point x="147" y="358"/>
      <point x="203" y="380"/>
      <point x="306" y="399" type="curve" smooth="yes"/>
      <point x="357" y="409"/>
      <point x="395" y="419"/>
      <point x="420" y="429" type="curve" smooth="yes"/>
      <point x="471" y="449"/>
      <point x="498" y="478"/>
      <point x="498" y="519" type="curve" smooth="yes"/>
      <point x="498" y="592"/>
      <point x="443" y="628"/>
      <point x="332" y="628" type="curve" smooth="yes"/>
      <point x="231" y="628"/>
      <point x="173" y="591"/>
      <point x="153" y="507" type="curve"/>
      <point x="62" y="523" type="line"/>
      <point x="94" y="647"/>
      <point x="170" y="698"/>
      <point x="331" y="698" type="curve" smooth="yes"/>
      <point x="499" y="698"/>
      <point x="588" y="633"/>
      <point x="588" y="514" type="curve" smooth="yes"/>
      <point x="588" y="465"/>
      <point x="572" y="426"/>
      <point x="541" y="398" type="curve" smooth="yes"/>
      <point x="526" y="385"/>
      <point x="505" y="372"/>
      <point x="478" y="361" type="curve" smooth="yes"/>
      <point x="451" y="350"/>
      <point x="408" y="338"/>
      <point x="348" y="325" type="curve" smooth="yes"/>
      <point x="286" y="312"/>
      <point x="242" y="299"/>
      <point x="216" y="287" type="curve" smooth="yes"/>
      <point x="164" y="264"/>
      <point x="140" y="231"/>
      <point x="140" y="182" type="curve" smooth="yes"/>
      <point x="140" y="103"/>
      <point x="201" y="63"/>
      <point x="323" y="63" type="curve" smooth="yes"/>
      <point x="448" y="67"/>
      <point x="503" y="100"/>
      <point x="533" y="220" type="curve"/>
      <point x="623" y="202" type="line"/>
      <point x="590" y="55"/>
      <point x="493" y="-10"/>
      <point x="326" y="-10" type="curve" smooth="yes"/>
      <point x="146" y="-10"/>
      <point x="48" y="59"/>
    </contour>
  </outline>
</glyph>
<glyph name="uni01AA" format="1">
  <advance width="380"/>
  <unicode hex="01AA"/>
  <outline>
    <contour>
      <point x="33" y="636" type="curve" smooth="yes"/>
      <point x="33" y="695"/>
      <point x="72" y="729"/>
      <point x="133" y="729" type="curve" smooth="yes"/>
      <point x="220" y="729"/>
      <point x="263" y="677"/>
      <point x="263" y="588" type="curve" smooth="yes"/>
      <point x="263" y="-61" type="line" smooth="yes"/>
      <point x="263" y="-105"/>
      <point x="283" y="-130"/>
      <point x="320" y="-130" type="curve" smooth="yes"/>
      <point x="337" y="-130"/>
      <point x="355" y="-128"/>
      <point x="372" y="-124" type="curve"/>
      <point x="372" y="-201" type="line"/>
      <point x="349" y="-206"/>
      <point x="327" y="-208"/>
      <point x="306" y="-208" type="curve" smooth="yes"/>
      <point x="223" y="-208"/>
      <point x="175" y="-156"/>
      <point x="175" y="-63" type="curve" smooth="yes"/>
      <point x="175" y="561" type="line"/>
      <point x="164" y="553"/>
      <point x="142" y="546"/>
      <point x="125" y="546" type="curve" smooth="yes"/>
      <point x="69" y="546"/>
      <point x="33" y="584"/>
    </contour>
    <contour>
      <point x="70" y="638" type="curve" smooth="yes"/>
      <point x="70" y="606"/>
      <point x="92" y="585"/>
      <point x="123" y="585" type="curve" smooth="yes"/>
      <point x="155" y="585"/>
      <point x="176" y="606"/>
      <point x="176" y="638" type="curve" smooth="yes"/>
      <point x="176" y="670"/>
      <point x="155" y="691"/>
      <point x="123" y="691" type="curve" smooth="yes"/>
      <point x="92" y="691"/>
      <point x="70" y="670"/>
    </contour>
  </outline>
</glyph>
<glyph name="uni01AC" format="1">
  <advance width="611"/>
  <unicode hex="01AC"/>
  <outline>
    <contour>
      <point x="588" y="612" type="line"/>
      <point x="352" y="612" type="line"/>
      <point x="352" y="0" type="line"/>
      <point x="259" y="0" type="line"/>
      <point x="259" y="612" type="line"/>
      <point x="155" y="612" type="line" smooth="yes"/>
      <point x="104" y="612"/>
      <point x="85" y="595"/>
      <point x="85" y="548" type="curve" smooth="yes"/>
      <point x="85" y="532"/>
      <point x="88" y="515"/>
      <point x="94" y="497" type="curve"/>
      <point x="18" y="488" type="line"/>
      <point x="13" y="512"/>
      <point x="10" y="534"/>
      <point x="10" y="554" type="curve" smooth="yes"/>
      <point x="10" y="642"/>
      <point x="60" y="688"/>
      <point x="159" y="688" type="curve" smooth="yes"/>
      <point x="588" y="688" type="line"/>
    </contour>
  </outline>
</glyph>
<glyph name="Uhorn" format="1">
  <advance width="854"/>
  <unicode hex="01AF"/>
  <outline>
    <contour>
      <point x="357" y="-10" type="curve" smooth="yes"/>
      <point x="187" y="-10"/>
      <point x="77" y="87"/>
      <point x="77" y="250" type="curve" smooth="yes"/>
      <point x="77" y="688" type="line"/>
      <point x="170" y="688" type="line"/>
      <point x="170" y="258" type="line" smooth="yes"/>
      <point x="170" y="133"/>
      <point x="236" y="66"/>
      <point x="356" y="66" type="curve" smooth="yes"/>
      <point x="480" y="66"/>
      <point x="552" y="135"/>
      <point x="552" y="264" type="curve" smooth="yes"/>
      <point x="552" y="688" type="line"/>
      <point x="645" y="688" type="line"/>
      <point x="645" y="491" type="line"/>
      <point x="724" y="507"/>
      <point x="760" y="545"/>
      <point x="760" y="606" type="curve"/>
      <point x="717" y="606" type="line"/>
      <point x="717" y="688" type="line"/>
      <point x="813" y="688" type="line"/>
      <point x="813" y="636" type="line" smooth="yes"/>
      <point x="813" y="531"/>
      <point x="758" y="463"/>
      <point x="645" y="447" type="curve"/>
      <point x="645" y="259" type="line" smooth="yes"/>
      <point x="645" y="90"/>
      <point x="532" y="-10"/>
    </contour>
  </outline>
</glyph>
<glyph name="uni01B2" format="1">
  <advance width="722"/>
  <unicode hex="01B2"/>
  <outline>
    <contour>
      <point x="343" y="-10" type="curve" smooth="yes"/>
      <point x="183" y="-10"/>
      <point x="77" y="89"/>
      <point x="77" y="265" type="curve" smooth="yes"/>
      <point x="77" y="688" type="line"/>
      <point x="170" y="688" type="line"/>
      <point x="170" y="272" type="line" smooth="yes"/>
      <point x="170" y="143"/>
      <point x="236" y="66"/>
      <point x="351" y="66" type="curve" smooth="yes"/>
      <point x="482" y="66"/>
      <point x="551" y="196"/>
      <point x="551" y="463" type="curve" smooth="yes"/>
      <point x="551" y="574"/>
      <point x="528" y="616"/>
      <point x="468" y="616" type="curve" smooth="yes"/>
      <point x="449" y="616"/>
      <point x="432" y="614"/>
      <point x="416" y="611" type="curve"/>
      <point x="412" y="688" type="line"/>
      <point x="434" y="692"/>
      <point x="458" y="694"/>
      <point x="483" y="694" type="curve" smooth="yes"/>
      <point x="588" y="694"/>
      <point x="644" y="619"/>
      <point x="644" y="479" type="curve" smooth="yes"/>
      <point x="644" y="356"/>
      <point x="633" y="261"/>
      <point x="611" y="193" type="curve" smooth="yes"/>
      <point x="567" y="57"/>
      <point x="478" y="-10"/>
    </contour>
  </outline>
</glyph>
<glyph name="uni01B3" format="1">
  <advance width="772"/>
  <unicode hex="01B3"/>
  <outline>
    <contour>
      <point x="625" y="694" type="curve" smooth="yes"/>
      <point x="665" y="694"/>
      <point x="710" y="680"/>
      <point x="749" y="647" type="curve"/>
      <point x="708" y="581" type="line"/>
      <point x="691" y="596"/>
      <point x="655" y="614"/>
      <point x="631" y="614" type="curve" smooth="yes"/>
      <point x="607" y="614"/>
      <point x="594" y="608"/>
      <point x="574" y="577" type="curve" smooth="yes"/>
      <point x="379" y="285" type="line"/>
      <point x="379" y="0" type="line"/>
      <point x="287" y="0" type="line"/>
      <point x="287" y="285" type="line"/>
      <point x="22" y="688" type="line"/>
      <point x="126" y="688" type="line"/>
      <point x="335" y="360" type="line"/>
      <point x="501" y="617" type="line" smooth="yes"/>
      <point x="537" y="673"/>
      <point x="574" y="694"/>
    </contour>
  </outline>
</glyph>
<glyph name="uni01B5" format="1">
  <advance width="611"/>
  <unicode hex="01B5"/>
  <outline>
    <contour>
      <point x="30" y="333" type="line"/>
      <point x="30" y="397" type="line"/>
      <point x="285" y="397" type="line"/>
      <point x="451" y="612" type="line"/>
      <point x="67" y="612" type="line"/>
      <point x="67" y="688" type="line"/>
      <point x="557" y="688" type="line"/>
      <point x="557" y="620" type="line"/>
      <point x="385" y="397" type="line"/>
      <point x="580" y="397" type="line"/>
      <point x="580" y="333" type="line"/>
      <point x="335" y="333" type="line"/>
      <point x="138" y="76" type="line"/>
      <point x="580" y="76" type="line"/>
      <point x="580" y="0" type="line"/>
      <point x="32" y="0" type="line"/>
      <point x="32" y="70" type="line"/>
      <point x="235" y="333" type="line"/>
    </contour>
  </outline>
</glyph>
<glyph name="uni01B9" format="1">
  <advance width="545"/>
  <unicode hex="01B9"/>
  <outline>
    <contour>
      <point x="494" y="529" type="line"/>
      <point x="494" y="460" type="line"/>
      <point x="156" y="460" type="line"/>
      <point x="343" y="271" type="line"/>
      <point x="343" y="201" type="line"/>
      <point x="303" y="201" type="line" smooth="yes"/>
      <point x="202" y="201"/>
      <point x="134" y="136"/>
      <point x="134" y="37" type="curve" smooth="yes"/>
      <point x="132" y="-53"/>
      <point x="201" y="-144"/>
      <point x="280" y="-140" type="curve"/>
      <point x="371" y="-140"/>
      <point x="419" y="-102"/>
      <point x="431" y="-18" type="curve"/>
      <point x="518" y="-23" type="line"/>
      <point x="502" y="-146"/>
      <point x="417" y="-208"/>
      <point x="277" y="-208" type="curve" smooth="yes"/>
      <point x="140" y="-211"/>
      <point x="44" y="-102"/>
      <point x="45" y="34" type="curve" smooth="yes"/>
      <point x="45" y="159"/>
      <point x="120" y="247"/>
      <point x="243" y="264" type="curve"/>
      <point x="63" y="442" type="line"/>
      <point x="63" y="529" type="line"/>
    </contour>
  </outline>
</glyph>
<glyph name="uni01BA" format="1">
  <advance width="545"/>
  <unicode hex="01BA"/>
  <outline>
    <contour>
      <point x="428" y="-40" type="curve"/>
      <point x="515" y="-49" type="line"/>
      <point x="490" y="-150"/>
      <point x="398" y="-208"/>
      <point x="262" y="-208" type="curve" smooth="yes"/>
      <point x="124" y="-209"/>
      <point x="34" y="-148"/>
      <point x="38" y="-59" type="curve" smooth="yes"/>
      <point x="38" y="-34"/>
      <point x="45" y="-12"/>
      <point x="59" y="6" type="curve" smooth="yes"/>
      <point x="73" y="24"/>
      <point x="92" y="39"/>
      <point x="116" y="52" type="curve" smooth="yes"/>
      <point x="140" y="65"/>
      <point x="180" y="78"/>
      <point x="235" y="92" type="curve" smooth="yes"/>
      <point x="290" y="106"/>
      <point x="327" y="119"/>
      <point x="346" y="132" type="curve" smooth="yes"/>
      <point x="365" y="145"/>
      <point x="374" y="162"/>
      <point x="374" y="181" type="curve" smooth="yes"/>
      <point x="374" y="229"/>
      <point x="310" y="247"/>
      <point x="185" y="247" type="curve"/>
      <point x="185" y="314" type="line"/>
      <point x="358" y="460" type="line"/>
      <point x="53" y="460" type="line"/>
      <point x="53" y="528" type="line"/>
      <point x="477" y="528" type="line"/>
      <point x="477" y="470" type="line"/>
      <point x="283" y="313" type="line"/>
      <point x="399" y="305"/>
      <point x="459" y="258"/>
      <point x="459" y="181" type="curve" smooth="yes"/>
      <point x="459" y="154"/>
      <point x="452" y="132"/>
      <point x="439" y="114" type="curve" smooth="yes"/>
      <point x="426" y="97"/>
      <point x="409" y="82"/>
      <point x="386" y="70" type="curve" smooth="yes"/>
      <point x="364" y="59"/>
      <point x="324" y="46"/>
      <point x="267" y="32" type="curve" smooth="yes"/>
      <point x="222" y="21"/>
      <point x="192" y="11"/>
      <point x="176" y="4" type="curve" smooth="yes"/>
      <point x="145" y="-11"/>
      <point x="127" y="-31"/>
      <point x="127" y="-63" type="curve" smooth="yes"/>
      <point x="127" y="-110"/>
      <point x="174" y="-138"/>
      <point x="262" y="-138" type="curve" smooth="yes"/>
      <point x="351" y="-138"/>
      <point x="407" y="-105"/>
    </contour>
  </outline>
</glyph>
<glyph name="uni01BD" format="1">
  <advance width="458"/>
  <unicode hex="01BD"/>
  <outline>
    <contour>
      <point x="333" y="167" type="curve" smooth="yes"/>
      <point x="333" y="235"/>
      <point x="285" y="269"/>
      <point x="190" y="269" type="curve" smooth="yes"/>
      <point x="108" y="269" type="line"/>
      <point x="108" y="460" type="line"/>
      <point x="24" y="460" type="line"/>
      <point x="24" y="528" type="line"/>
      <point x="405" y="528" type="line"/>
      <point x="405" y="460" type="line"/>
      <point x="188" y="460" type="line"/>
      <point x="188" y="336" type="line"/>
      <point x="214" y="336" type="line" smooth="yes"/>
      <point x="346" y="336"/>
      <point x="421" y="274"/>
      <point x="421" y="167" type="curve" smooth="yes"/>
      <point x="421" y="55"/>
      <point x="349" y="-10"/>
      <point x="228" y="-10" type="curve" smooth="yes"/>
      <point x="112" y="-10"/>
      <point x="45" y="41"/>
      <point x="22" y="152" type="curve"/>
      <point x="107" y="158" type="line"/>
      <point x="116" y="97"/>
      <point x="162" y="55"/>
      <point x="222" y="55" type="curve" smooth="yes"/>
      <point x="296" y="55"/>
      <point x="333" y="92"/>
    </contour>
  </outline>
</glyph>
<glyph name="uni01BF" format="1">
  <advance width="556"/>
  <unicode hex="01BF"/>
  <outline>
    <contour>
      <point x="513" y="305" type="curve" smooth="yes"/>
      <point x="513" y="252"/>
      <point x="501" y="203"/>
      <point x="476" y="158" type="curve" smooth="yes"/>
      <point x="428" y="70"/>
      <point x="334" y="3"/>
      <point x="155" y="-62" type="curve"/>
      <point x="155" y="-208" type="line"/>
      <point x="67" y="-208" type="line"/>
      <point x="67" y="528" type="line"/>
      <point x="149" y="528" type="line"/>
      <point x="152" y="494"/>
      <point x="154" y="466"/>
      <point x="154" y="443" type="curve"/>
      <point x="156" y="443" type="line"/>
      <point x="185" y="507"/>
      <point x="241" y="538"/>
      <point x="314" y="538" type="curve" smooth="yes"/>
      <point x="442" y="538"/>
      <point x="513" y="456"/>
    </contour>
    <contour>
      <point x="420" y="305" type="curve" smooth="yes"/>
      <point x="420" y="415"/>
      <point x="378" y="470"/>
      <point x="295" y="470" type="curve" smooth="yes"/>
      <point x="203" y="470"/>
      <point x="155" y="405"/>
      <point x="155" y="266" type="curve" smooth="yes"/>
      <point x="155" y="10" type="line"/>
      <point x="350" y="83"/>
      <point x="416" y="173"/>
    </contour>
  </outline>
</glyph>
<glyph name="uni01C0" format="1">
  <advance width="260"/>
  <unicode hex="01C0"/>
  <outline>
    <contour>
      <point x="174" y="0" type="line"/>
      <point x="86" y="0" type="line"/>
      <point x="86" y="725" type="line"/>
      <point x="174" y="725" type="line"/>
    </contour>
  </outline>
</glyph>
<glyph name="uni01C2" format="1">
  <advance width="584"/>
  <unicode hex="01C2"/>
  <outline>
    <contour>
      <point x="56" y="428" type="line"/>
      <point x="56" y="503" type="line"/>
      <point x="249" y="503" type="line"/>
      <point x="249" y="725" type="line"/>
      <point x="334" y="725" type="line"/>
      <point x="334" y="503" type="line"/>
      <point x="528" y="503" type="line"/>
      <point x="528" y="428" type="line"/>
      <point x="334" y="428" type="line"/>
      <point x="334" y="278" type="line"/>
      <point x="528" y="278" type="line"/>
      <point x="528" y="203" type="line"/>
      <point x="334" y="203" type="line"/>
      <point x="334" y="0" type="line"/>
      <point x="249" y="0" type="line"/>
      <point x="249" y="203" type="line"/>
      <point x="56" y="203" type="line"/>
      <point x="56" y="278" type="line"/>
      <point x="249" y="278" type="line"/>
      <point x="249" y="428" type="line"/>
    </contour>
  </outline>
</glyph>
<glyph name="uni01C3" format="1">
  <advance width="278"/>
  <unicode hex="01C3"/>
  <outline>
    <contour>
      <point x="187" y="688" type="line"/>
      <point x="175" y="194" type="line"/>
      <point x="103" y="194" type="line"/>
      <point x="91" y="688" type="line"/>
    </contour>
    <contour>
      <point x="185" y="0" type="line"/>
      <point x="90" y="0" type="line"/>
      <point x="90" y="98" type="line"/>
      <point x="185" y="98" type="line"/>
    </contour>
  </outline>
</glyph>
<glyph name="uni01C4" format="1">
  <advance width="1333"/>
  <unicode hex="01C4"/>
  <outline>
    <contour>
      <point x="674" y="351" type="curve" smooth="yes"/>
      <point x="676" y="139"/>
      <point x="538" y="-3"/>
      <point x="339" y="0" type="curve" smooth="yes"/>
      <point x="82" y="0" type="line"/>
      <point x="82" y="688" type="line"/>
      <point x="310" y="688" type="line" smooth="yes"/>
      <point x="542" y="688"/>
      <point x="674" y="567"/>
    </contour>
    <contour>
      <point x="581" y="351" type="curve" smooth="yes"/>
      <point x="581" y="522"/>
      <point x="484" y="613"/>
      <point x="308" y="613" type="curve" smooth="yes"/>
      <point x="175" y="613" type="line"/>
      <point x="175" y="75" type="line"/>
      <point x="329" y="75" type="line" smooth="yes"/>
      <point x="481" y="75"/>
      <point x="581" y="180"/>
    </contour>
    <contour>
      <point x="1302" y="76" type="line"/>
      <point x="1302" y="0" type="line"/>
      <point x="754" y="0" type="line"/>
      <point x="754" y="70" type="line"/>
      <point x="1173" y="612" type="line"/>
      <point x="790" y="612" type="line"/>
      <point x="790" y="688" type="line"/>
      <point x="1279" y="688" type="line"/>
      <point x="1279" y="620" type="line"/>
      <point x="860" y="76" type="line"/>
    </contour>
    <contour>
      <point x="1192" y="892" type="line"/>
      <point x="1083" y="760" type="line"/>
      <point x="983" y="760" type="line"/>
      <point x="869" y="892" type="line"/>
      <point x="869" y="902" type="line"/>
      <point x="919" y="902" type="line"/>
      <point x="1033" y="819" type="line"/>
      <point x="1034" y="819" type="line"/>
      <point x="1141" y="902" type="line"/>
      <point x="1192" y="902" type="line"/>
    </contour>
  </outline>
</glyph>
<glyph name="uni01C6" format="1">
  <advance width="1049"/>
  <unicode hex="01C6"/>
  <outline>
    <contour>
      <point x="403" y="85" type="curve"/>
      <point x="401" y="85" type="line"/>
      <point x="368" y="17"/>
      <point x="316" y="-10"/>
      <point x="236" y="-10" type="curve" smooth="yes"/>
      <point x="103" y="-10"/>
      <point x="42" y="79"/>
      <point x="42" y="262" type="curve" smooth="yes"/>
      <point x="42" y="446"/>
      <point x="107" y="538"/>
      <point x="236" y="538" type="curve" smooth="yes"/>
      <point x="316" y="538"/>
      <point x="368" y="510"/>
      <point x="401" y="446" type="curve"/>
      <point x="402" y="446" type="line"/>
      <point x="401" y="505" type="line"/>
      <point x="401" y="725" type="line"/>
      <point x="489" y="725" type="line"/>
      <point x="489" y="109" type="line" smooth="yes"/>
      <point x="489" y="54"/>
      <point x="490" y="17"/>
      <point x="492" y="0" type="curve"/>
      <point x="408" y="0" type="line"/>
      <point x="407" y="5"/>
      <point x="405" y="17"/>
      <point x="404" y="36" type="curve" smooth="yes"/>
      <point x="403" y="55"/>
      <point x="403" y="71"/>
    </contour>
    <contour>
      <point x="134" y="265" type="curve" smooth="yes"/>
      <point x="134" y="117"/>
      <point x="171" y="58"/>
      <point x="259" y="58" type="curve" smooth="yes"/>
      <point x="358" y="58"/>
      <point x="401" y="126"/>
      <point x="401" y="271" type="curve" smooth="yes"/>
      <point x="401" y="410"/>
      <point x="357" y="473"/>
      <point x="260" y="473" type="curve" smooth="yes"/>
      <point x="171" y="473"/>
      <point x="134" y="412"/>
    </contour>
    <contour>
      <point x="999" y="0" type="line"/>
      <point x="589" y="0" type="line"/>
      <point x="589" y="67" type="line"/>
      <point x="885" y="460" type="line"/>
      <point x="606" y="460" type="line"/>
      <point x="606" y="528" type="line"/>
      <point x="989" y="528" type="line"/>
      <point x="989" y="461" type="line"/>
      <point x="693" y="68" type="line"/>
      <point x="999" y="68" type="line"/>
    </contour>
    <contour>
      <point x="935" y="718" type="line"/>
      <point x="826" y="586" type="line"/>
      <point x="726" y="586" type="line"/>
      <point x="612" y="718" type="line"/>
      <point x="612" y="728" type="line"/>
      <point x="663" y="728" type="line"/>
      <point x="776" y="646" type="line"/>
      <point x="777" y="646" type="line"/>
      <point x="884" y="728" type="line"/>
      <point x="935" y="728" type="line"/>
    </contour>
  </outline>
</glyph>
<glyph name="uni01C7" format="1">
  <advance width="1062"/>
  <unicode hex="01C7"/>
  <outline>
    <contour>
      <point x="523" y="0" type="line"/>
      <point x="82" y="0" type="line"/>
      <point x="82" y="688" type="line"/>
      <point x="175" y="688" type="line"/>
      <point x="175" y="76" type="line"/>
      <point x="523" y="76" type="line"/>
    </contour>
    <contour>
      <point x="785" y="-10" type="curve" smooth="yes"/>
      <point x="668" y="-10"/>
      <point x="599" y="50"/>
      <point x="578" y="171" type="curve"/>
      <point x="669" y="186" type="line"/>
      <point x="681" y="110"/>
      <point x="723" y="66"/>
      <point x="786" y="66" type="curve" smooth="yes"/>
      <point x="853" y="66"/>
      <point x="895" y="114"/>
      <point x="895" y="203" type="curve" smooth="yes"/>
      <point x="895" y="612" type="line"/>
      <point x="763" y="612" type="line"/>
      <point x="763" y="688" type="line"/>
      <point x="988" y="688" type="line"/>
      <point x="988" y="205" type="line" smooth="yes"/>
      <point x="988" y="72"/>
      <point x="910" y="-10"/>
    </contour>
  </outline>
</glyph>
<glyph name="uni01C8" format="1">
  <advance width="833"/>
  <unicode hex="01C8"/>
  <outline>
    <contour>
      <point x="523" y="0" type="line"/>
      <point x="82" y="0" type="line"/>
      <point x="82" y="688" type="line"/>
      <point x="175" y="688" type="line"/>
      <point x="175" y="76" type="line"/>
      <point x="523" y="76" type="line"/>
    </contour>
    <contour>
      <point x="766" y="641" type="line"/>
      <point x="678" y="641" type="line"/>
      <point x="678" y="725" type="line"/>
      <point x="766" y="725" type="line"/>
    </contour>
    <contour>
      <point x="766" y="528" type="line"/>
      <point x="766" y="-65" type="line" smooth="yes"/>
      <point x="766" y="-165"/>
      <point x="727" y="-208"/>
      <point x="648" y="-208" type="curve" smooth="yes"/>
      <point x="623" y="-208"/>
      <point x="603" y="-206"/>
      <point x="586" y="-203" type="curve"/>
      <point x="586" y="-135" type="line"/>
      <point x="617" y="-138" type="line"/>
      <point x="661" y="-138"/>
      <point x="678" y="-120"/>
      <point x="678" y="-52" type="curve" smooth="yes"/>
      <point x="678" y="528" type="line"/>
    </contour>
  </outline>
</glyph>
<glyph name="uni01CB" format="1">
  <advance width="944"/>
  <unicode hex="01CB"/>
  <outline>
    <contour>
      <point x="641" y="0" type="line"/>
      <point x="528" y="0" type="line"/>
      <point x="160" y="586" type="line"/>
      <point x="163" y="539" type="line"/>
      <point x="165" y="457" type="line"/>
      <point x="165" y="0" type="line"/>
      <point x="82" y="0" type="line"/>
      <point x="82" y="688" type="line"/>
      <point x="190" y="688" type="line"/>
      <point x="563" y="98" type="line"/>
      <point x="559" y="162"/>
      <point x="557" y="208"/>
      <point x="557" y="237" type="curve" smooth="yes"/>
      <point x="557" y="688" type="line"/>
      <point x="641" y="688" type="line"/>
    </contour>
    <contour>
      <point x="877" y="641" type="line"/>
      <point x="789" y="641" type="line"/>
      <point x="789" y="725" type="line"/>
      <point x="877" y="725" type="line"/>
    </contour>
    <contour>
      <point x="877" y="528" type="line"/>
      <point x="877" y="-65" type="line" smooth="yes"/>
      <point x="877" y="-165"/>
      <point x="837" y="-208"/>
      <point x="760" y="-208" type="curve" smooth="yes"/>
      <point x="735" y="-208"/>
      <point x="714" y="-206"/>
      <point x="698" y="-203" type="curve"/>
      <point x="698" y="-135" type="line"/>
      <point x="728" y="-138" type="line"/>
      <point x="773" y="-138"/>
      <point x="789" y="-120"/>
      <point x="789" y="-52" type="curve" smooth="yes"/>
      <point x="789" y="528" type="line"/>
    </contour>
  </outline>
</glyph>
<glyph name="uni01CC" format="1">
  <advance width="771"/>
  <unicode hex="01CC"/>
  <outline>
    <contour>
      <point x="491" y="0" type="line"/>
      <point x="403" y="0" type="line"/>
      <point x="403" y="335" type="line" smooth="yes"/>
      <point x="403" y="438"/>
      <point x="377" y="470"/>
      <point x="294" y="470" type="curve" smooth="yes"/>
      <point x="209" y="470"/>
      <point x="157" y="409"/>
      <point x="157" y="306" type="curve" smooth="yes"/>
      <point x="157" y="0" type="line"/>
      <point x="69" y="0" type="line"/>
      <point x="69" y="416" type="line" smooth="yes"/>
      <point x="69" y="477"/>
      <point x="68" y="515"/>
      <point x="66" y="528" type="curve"/>
      <point x="149" y="528" type="line" smooth="yes"/>
      <point x="150" y="527"/>
      <point x="150" y="522"/>
      <point x="150" y="515" type="curve" smooth="yes"/>
      <point x="151" y="500"/>
      <point x="152" y="490"/>
      <point x="153" y="438" type="curve"/>
      <point x="155" y="438" type="line"/>
      <point x="195" y="511"/>
      <point x="245" y="538"/>
      <point x="324" y="538" type="curve" smooth="yes"/>
      <point x="440" y="538"/>
      <point x="491" y="485"/>
      <point x="491" y="352" type="curve" smooth="yes"/>
    </contour>
    <contour>
      <point x="704" y="641" type="line"/>
      <point x="616" y="641" type="line"/>
      <point x="616" y="725" type="line"/>
      <point x="704" y="725" type="line"/>
    </contour>
    <contour>
      <point x="704" y="528" type="line"/>
      <point x="704" y="-65" type="line" smooth="yes"/>
      <point x="704" y="-165"/>
      <point x="665" y="-208"/>
      <point x="586" y="-208" type="curve" smooth="yes"/>
      <point x="561" y="-208"/>
      <point x="541" y="-206"/>
      <point x="524" y="-203" type="curve"/>
      <point x="524" y="-135" type="line"/>
      <point x="555" y="-138" type="line"/>
      <point x="599" y="-138"/>
      <point x="616" y="-120"/>
      <point x="616" y="-52" type="curve" smooth="yes"/>
      <point x="616" y="528" type="line"/>
    </contour>
  </outline>
</glyph>
<glyph name="uni01CF" format="1">
  <advance width="278"/>
  <unicode hex="01CF"/>
  <outline>
    <contour>
      <point x="186" y="0" type="line"/>
      <point x="92" y="0" type="line"/>
      <point x="92" y="688" type="line"/>
      <point x="186" y="688" type="line"/>
    </contour>
    <contour>
      <point x="303" y="864" type="line"/>
      <point x="193" y="747" type="line"/>
      <point x="94" y="747" type="line"/>
      <point x="-21" y="864" type="line"/>
      <point x="-21" y="874" type="line"/>
      <point x="30" y="874" type="line"/>
      <point x="144" y="806" type="line"/>
      <point x="145" y="806" type="line"/>
      <point x="251" y="874" type="line"/>
      <point x="303" y="874" type="line"/>
    </contour>
  </outline>
</glyph>
<glyph name="uni01D0" format="1">
  <advance width="222"/>
  <unicode hex="01D0"/>
  <outline>
    <contour>
      <point x="154" y="0" type="line"/>
      <point x="66" y="0" type="line"/>
      <point x="66" y="519" type="line"/>
      <point x="154" y="519" type="line"/>
    </contour>
    <contour>
      <point x="265" y="718" type="line"/>
      <point x="156" y="586" type="line"/>
      <point x="56" y="586" type="line"/>
      <point x="-58" y="718" type="line"/>
      <point x="-58" y="728" type="line"/>
      <point x="-7" y="728" type="line"/>
      <point x="106" y="646" type="line"/>
      <point x="107" y="646" type="line"/>
      <point x="214" y="728" type="line"/>
      <point x="265" y="728" type="line"/>
    </contour>
  </outline>
</glyph>
<glyph name="uni01DD" format="1">
  <advance width="556"/>
  <unicode hex="01DD"/>
  <outline>
    <contour>
      <point x="42" y="283" type="line"/>
      <point x="419" y="283" type="line"/>
      <point x="419" y="404"/>
      <point x="368" y="472"/>
      <point x="271" y="472" type="curve" smooth="yes"/>
      <point x="195" y="472"/>
      <point x="150" y="438"/>
      <point x="133" y="391" type="curve"/>
      <point x="56" y="413" type="line"/>
      <point x="88" y="496"/>
      <point x="160" y="538"/>
      <point x="271" y="538" type="curve" smooth="yes"/>
      <point x="428" y="538"/>
      <point x="511" y="444"/>
      <point x="511" y="261" type="curve" smooth="yes"/>
      <point x="511" y="86"/>
      <point x="427" y="-10"/>
      <point x="275" y="-10" type="curve" smooth="yes"/>
      <point x="120" y="-10"/>
      <point x="42" y="84"/>
      <point x="42" y="271" type="curve" smooth="yes"/>
    </contour>
    <contour>
      <point x="418" y="215" type="curve"/>
      <point x="133" y="215" type="line"/>
      <point x="142" y="104"/>
      <point x="188" y="55"/>
      <point x="276" y="55" type="curve" smooth="yes"/>
      <point x="361" y="55"/>
      <point x="414" y="116"/>
    </contour>
  </outline>
</glyph>
<glyph name="uni01E5" format="1">
  <advance width="556"/>
  <unicode hex="01E5"/>
  <outline>
    <contour>
      <point x="268" y="-208" type="curve" smooth="yes"/>
      <point x="152" y="-208"/>
      <point x="84" y="-161"/>
      <point x="64" y="-77" type="curve"/>
      <point x="152" y="-64" type="line"/>
      <point x="164" y="-113"/>
      <point x="205" y="-141"/>
      <point x="270" y="-141" type="curve" smooth="yes"/>
      <point x="338" y="-141"/>
      <point x="376" y="-113"/>
      <point x="392" y="-53" type="curve"/>
      <point x="197" y="-53" type="line"/>
      <point x="197" y="11" type="line"/>
      <point x="400" y="11" type="line"/>
      <point x="401" y="37" type="line"/>
      <point x="401" y="142" type="line"/>
      <point x="400" y="142" type="line"/>
      <point x="367" y="74"/>
      <point x="309" y="40"/>
      <point x="230" y="40" type="curve" smooth="yes"/>
      <point x="102" y="40"/>
      <point x="42" y="115"/>
      <point x="42" y="286" type="curve" smooth="yes"/>
      <point x="42" y="458"/>
      <point x="108" y="537"/>
      <point x="240" y="537" type="curve" smooth="yes"/>
      <point x="315" y="537"/>
      <point x="372" y="501"/>
      <point x="401" y="438" type="curve"/>
      <point x="402" y="438" type="line"/>
      <point x="402" y="448"/>
      <point x="403" y="465"/>
      <point x="404" y="489" type="curve" smooth="yes"/>
      <point x="405" y="513"/>
      <point x="407" y="526"/>
      <point x="408" y="528" type="curve" smooth="yes"/>
      <point x="492" y="528" type="line"/>
      <point x="490" y="511"/>
      <point x="489" y="474"/>
      <point x="489" y="419" type="curve" smooth="yes"/>
      <point x="489" y="11" type="line"/>
      <point x="551" y="11" type="line"/>
      <point x="551" y="-53" type="line"/>
      <point x="482" y="-53" type="line"/>
      <point x="462" y="-156"/>
      <point x="393" y="-208"/>
    </contour>
    <contour>
      <point x="401" y="286" type="curve" smooth="yes"/>
      <point x="401" y="402"/>
      <point x="344" y="471"/>
      <point x="262" y="471" type="curve" smooth="yes"/>
      <point x="171" y="471"/>
      <point x="133" y="415"/>
      <point x="133" y="286" type="curve" smooth="yes"/>
      <point x="133" y="157"/>
      <point x="168" y="105"/>
      <point x="260" y="105" type="curve" smooth="yes"/>
      <point x="345" y="105"/>
      <point x="401" y="174"/>
    </contour>
  </outline>
</glyph>
<glyph name="uni01E8" format="1">
  <advance width="667"/>
  <unicode hex="01E8"/>
  <outline>
    <contour>
      <point x="656" y="0" type="line"/>
      <point x="540" y="0" type="line"/>
      <point x="265" y="332" type="line"/>
      <point x="175" y="264" type="line"/>
      <point x="175" y="0" type="line"/>
      <point x="82" y="0" type="line"/>
      <point x="82" y="688" type="line"/>
      <point x="175" y="688" type="line"/>
      <point x="175" y="343" type="line"/>
      <point x="507" y="688" type="line"/>
      <point x="617" y="688" type="line"/>
      <point x="324" y="389" type="line"/>
    </contour>
    <contour>
      <point x="479" y="864" type="line"/>
      <point x="370" y="747" type="line"/>
      <point x="271" y="747" type="line"/>
      <point x="156" y="864" type="line"/>
      <point x="156" y="874" type="line"/>
      <point x="207" y="874" type="line"/>
      <point x="320" y="806" type="line"/>
      <point x="321" y="806" type="line"/>
      <point x="428" y="874" type="line"/>
      <point x="479" y="874" type="line"/>
    </contour>
  </outline>
</glyph>
<glyph name="uni01EC" format="1">
  <advance width="778"/>
  <unicode hex="01EC"/>
  <outline>
    <contour>
      <point x="730" y="347" type="curve" smooth="yes"/>
      <point x="730" y="129"/>
      <point x="598" y="-10"/>
      <point x="388" y="-10" type="curve" smooth="yes"/>
      <point x="175" y="-10"/>
      <point x="47" y="128"/>
      <point x="47" y="347" type="curve" smooth="yes"/>
      <point x="47" y="457"/>
      <point x="77" y="543"/>
      <point x="137" y="605" type="curve" smooth="yes"/>
      <point x="198" y="667"/>
      <point x="282" y="698"/>
      <point x="389" y="698" type="curve" smooth="yes"/>
      <point x="600" y="698"/>
      <point x="730" y="567"/>
    </contour>
    <contour>
      <point x="635" y="347" type="curve" smooth="yes"/>
      <point x="635" y="519"/>
      <point x="545" y="622"/>
      <point x="389" y="622" type="curve" smooth="yes"/>
      <point x="232" y="622"/>
      <point x="142" y="522"/>
      <point x="142" y="347" type="curve" smooth="yes"/>
      <point x="142" y="261"/>
      <point x="164" y="193"/>
      <point x="207" y="142" type="curve" smooth="yes"/>
      <point x="250" y="91"/>
      <point x="311" y="66"/>
      <point x="388" y="66" type="curve" smooth="yes"/>
      <point x="547" y="66"/>
      <point x="635" y="168"/>
    </contour>
    <contour>
      <point x="513" y="-143" type="curve"/>
      <point x="513" y="-195" type="line"/>
      <point x="492" y="-204"/>
      <point x="470" y="-208"/>
      <point x="445" y="-208" type="curve" smooth="yes"/>
      <point x="377" y="-208"/>
      <point x="342" y="-173"/>
      <point x="342" y="-117" type="curve" smooth="yes"/>
      <point x="342" y="-72"/>
      <point x="373" y="-25"/>
      <point x="417" y="0" type="curve"/>
      <point x="482" y="0" type="line"/>
      <point x="450" y="-19"/>
      <point x="411" y="-60"/>
      <point x="411" y="-111" type="curve" smooth="yes"/>
      <point x="411" y="-138"/>
      <point x="428" y="-155"/>
      <point x="457" y="-155" type="curve" smooth="yes"/>
      <point x="474" y="-155"/>
      <point x="493" y="-151"/>
    </contour>
    <contour>
      <point x="520" y="826" type="line"/>
      <point x="520" y="764" type="line"/>
      <point x="252" y="764" type="line"/>
      <point x="252" y="826" type="line"/>
    </contour>
  </outline>
</glyph>
<glyph name="uni01ED" format="1">
  <advance width="556"/>
  <unicode hex="01ED"/>
  <outline>
    <contour>
      <point x="514" y="265" type="curve" smooth="yes"/>
      <point x="514" y="80"/>
      <point x="431" y="-10"/>
      <point x="276" y="-10" type="curve" smooth="yes"/>
      <point x="121" y="-10"/>
      <point x="42" y="86"/>
      <point x="42" y="265" type="curve" smooth="yes"/>
      <point x="42" y="447"/>
      <point x="121" y="538"/>
      <point x="279" y="538" type="curve" smooth="yes"/>
      <point x="440" y="538"/>
      <point x="514" y="452"/>
    </contour>
    <contour>
      <point x="422" y="265" type="curve" smooth="yes"/>
      <point x="422" y="410"/>
      <point x="383" y="473"/>
      <point x="280" y="473" type="curve" smooth="yes"/>
      <point x="177" y="473"/>
      <point x="134" y="408"/>
      <point x="134" y="265" type="curve" smooth="yes"/>
      <point x="134" y="125"/>
      <point x="178" y="55"/>
      <point x="275" y="55" type="curve" smooth="yes"/>
      <point x="380" y="55"/>
      <point x="422" y="121"/>
    </contour>
    <contour>
      <point x="391" y="-143" type="curve"/>
      <point x="391" y="-195" type="line"/>
      <point x="370" y="-204"/>
      <point x="348" y="-208"/>
      <point x="323" y="-208" type="curve" smooth="yes"/>
      <point x="254" y="-208"/>
      <point x="220" y="-173"/>
      <point x="220" y="-117" type="curve" smooth="yes"/>
      <point x="220" y="-72"/>
      <point x="251" y="-25"/>
      <point x="295" y="0" type="curve"/>
      <point x="360" y="0" type="line"/>
      <point x="328" y="-19"/>
      <point x="289" y="-60"/>
      <point x="289" y="-111" type="curve" smooth="yes"/>
      <point x="289" y="-138"/>
      <point x="306" y="-155"/>
      <point x="334" y="-155" type="curve" smooth="yes"/>
      <point x="352" y="-155"/>
      <point x="371" y="-151"/>
    </contour>
    <contour>
      <point x="412" y="666" type="line"/>
      <point x="412" y="604" type="line"/>
      <point x="144" y="604" type="line"/>
      <point x="144" y="666" type="line"/>
    </contour>
  </outline>
</glyph>
<glyph name="uni01EF" format="1">
  <advance width="545"/>
  <unicode hex="01EF"/>
  <outline>
    <contour>
      <point x="57" y="459" type="line"/>
      <point x="57" y="528" type="line"/>
      <point x="488" y="528" type="line"/>
      <point x="488" y="441" type="line"/>
      <point x="301" y="266" type="line"/>
      <point x="428" y="249"/>
      <point x="505" y="163"/>
      <point x="505" y="34" type="curve" smooth="yes"/>
      <point x="507" y="-102"/>
      <point x="410" y="-211"/>
      <point x="274" y="-208" type="curve" smooth="yes"/>
      <point x="133" y="-208"/>
      <point x="48" y="-146"/>
      <point x="33" y="-23" type="curve"/>
      <point x="120" y="-18" type="line"/>
      <point x="132" y="-105"/>
      <point x="183" y="-141"/>
      <point x="271" y="-141" type="curve" smooth="yes"/>
      <point x="360" y="-141"/>
      <point x="417" y="-70"/>
      <point x="417" y="37" type="curve" smooth="yes"/>
      <point x="417" y="138"/>
      <point x="355" y="201"/>
      <point x="248" y="201" type="curve" smooth="yes"/>
      <point x="208" y="201" type="line"/>
      <point x="208" y="271" type="line"/>
      <point x="400" y="459" type="line"/>
    </contour>
    <contour>
      <point x="438" y="718" type="line"/>
      <point x="328" y="586" type="line"/>
      <point x="229" y="586" type="line"/>
      <point x="114" y="718" type="line"/>
      <point x="114" y="728" type="line"/>
      <point x="165" y="728" type="line"/>
      <point x="278" y="646" type="line"/>
      <point x="279" y="646" type="line"/>
      <point x="386" y="728" type="line"/>
      <point x="438" y="728" type="line"/>
    </contour>
  </outline>
</glyph>
<glyph name="uni01F2" format="1">
  <advance width="1222"/>
  <unicode hex="01F2"/>
  <outline>
    <contour>
      <point x="674" y="351" type="curve" smooth="yes"/>
      <point x="676" y="139"/>
      <point x="538" y="-3"/>
      <point x="339" y="0" type="curve" smooth="yes"/>
      <point x="82" y="0" type="line"/>
      <point x="82" y="688" type="line"/>
      <point x="310" y="688" type="line" smooth="yes"/>
      <point x="542" y="688"/>
      <point x="674" y="567"/>
    </contour>
    <contour>
      <point x="581" y="351" type="curve" smooth="yes"/>
      <point x="581" y="522"/>
      <point x="484" y="613"/>
      <point x="308" y="613" type="curve" smooth="yes"/>
      <point x="175" y="613" type="line"/>
      <point x="175" y="75" type="line"/>
      <point x="329" y="75" type="line" smooth="yes"/>
      <point x="481" y="75"/>
      <point x="581" y="180"/>
    </contour>
    <contour>
      <point x="1172" y="0" type="line"/>
      <point x="763" y="0" type="line"/>
      <point x="763" y="67" type="line"/>
      <point x="1058" y="460" type="line"/>
      <point x="779" y="460" type="line"/>
      <point x="779" y="528" type="line"/>
      <point x="1162" y="528" type="line"/>
      <point x="1162" y="461" type="line"/>
      <point x="866" y="68" type="line"/>
      <point x="1172" y="68" type="line"/>
    </contour>
  </outline>
</glyph>
<glyph name="uni01F8" format="1">
  <advance width="722"/>
  <unicode hex="01F8"/>
  <outline>
    <contour>
      <point x="641" y="0" type="line"/>
      <point x="528" y="0" type="line"/>
      <point x="160" y="586" type="line"/>
      <point x="163" y="539" type="line"/>
      <point x="165" y="457" type="line"/>
      <point x="165" y="0" type="line"/>
      <point x="82" y="0" type="line"/>
      <point x="82" y="688" type="line"/>
      <point x="190" y="688" type="line"/>
      <point x="563" y="98" type="line"/>
      <point x="559" y="162"/>
      <point x="557" y="208"/>
      <point x="557" y="237" type="curve" smooth="yes"/>
      <point x="557" y="688" type="line"/>
      <point x="641" y="688" type="line"/>
    </contour>
    <contour>
      <point x="426" y="747" type="line"/>
      <point x="371" y="747" type="line"/>
      <point x="219" y="853" type="line"/>
      <point x="219" y="867" type="line"/>
      <point x="320" y="867" type="line"/>
      <point x="426" y="757" type="line"/>
    </contour>
  </outline>
</glyph>
<glyph name="Aringacute" format="1">
  <advance width="667"/>
  <unicode hex="01FA"/>
  <outline>
    <contour>
      <point x="452" y="680" type="curve" smooth="yes"/>
      <point x="452" y="644"/>
      <point x="430" y="609"/>
      <point x="401" y="592" type="curve"/>
      <point x="665" y="0" type="line"/>
      <point x="570" y="0" type="line"/>
      <point x="491" y="181" type="line"/>
      <point x="178" y="181" type="line"/>
      <point x="99" y="0" type="line"/>
      <point x="2" y="0" type="line"/>
      <point x="270" y="590" type="line"/>
      <point x="238" y="609"/>
      <point x="216" y="643"/>
      <point x="216" y="680" type="curve" smooth="yes"/>
      <point x="216" y="709"/>
      <point x="227" y="734"/>
      <point x="250" y="755" type="curve" smooth="yes"/>
      <point x="273" y="776"/>
      <point x="301" y="786"/>
      <point x="334" y="786" type="curve" smooth="yes"/>
      <point x="367" y="786"/>
      <point x="394" y="775"/>
      <point x="417" y="754" type="curve" smooth="yes"/>
      <point x="440" y="733"/>
      <point x="452" y="709"/>
    </contour>
    <contour>
      <point x="348" y="519" type="curve" smooth="yes"/>
      <point x="334" y="556" type="line"/>
      <point x="330" y="544" type="line" smooth="yes"/>
      <point x="325" y="528"/>
      <point x="318" y="509"/>
      <point x="309" y="487" type="curve" smooth="yes"/>
      <point x="206" y="247" type="line"/>
      <point x="463" y="247" type="line"/>
      <point x="375" y="451" type="line" smooth="yes"/>
      <point x="366" y="470"/>
      <point x="357" y="493"/>
    </contour>
    <contour>
      <point x="399" y="680" type="curve" smooth="yes"/>
      <point x="399" y="712"/>
      <point x="370" y="739"/>
      <point x="334" y="739" type="curve" smooth="yes"/>
      <point x="297" y="739"/>
      <point x="268" y="712"/>
      <point x="268" y="680" type="curve" smooth="yes"/>
      <point x="268" y="649"/>
      <point x="294" y="622"/>
      <point x="330" y="619" type="curve" smooth="yes"/>
      <point x="334" y="619" type="line" smooth="yes"/>
      <point x="371" y="619"/>
      <point x="399" y="648"/>
    </contour>
    <contour>
      <point x="334" y="809" type="line"/>
      <point x="279" y="809" type="line"/>
      <point x="279" y="817" type="line"/>
      <point x="385" y="905" type="line"/>
      <point x="486" y="905" type="line"/>
      <point x="486" y="894" type="line"/>
    </contour>
  </outline>
</glyph>
<glyph name="aringacute" format="1">
  <advance width="556"/>
  <unicode hex="01FB"/>
  <outline>
    <contour>
      <point x="202" y="-10" type="curve" smooth="yes"/>
      <point x="97" y="-10"/>
      <point x="42" y="50"/>
      <point x="42" y="147" type="curve" smooth="yes"/>
      <point x="42" y="256"/>
      <point x="110" y="316"/>
      <point x="271" y="320" type="curve" smooth="yes"/>
      <point x="389" y="322" type="line"/>
      <point x="389" y="351" type="line" smooth="yes"/>
      <point x="389" y="438"/>
      <point x="353" y="471"/>
      <point x="276" y="471" type="curve" smooth="yes"/>
      <point x="197" y="471"/>
      <point x="165" y="446"/>
      <point x="158" y="387" type="curve"/>
      <point x="66" y="396" type="line"/>
      <point x="81" y="491"/>
      <point x="151" y="538"/>
      <point x="278" y="538" type="curve" smooth="yes"/>
      <point x="410" y="538"/>
      <point x="478" y="476"/>
      <point x="478" y="360" type="curve" smooth="yes"/>
      <point x="478" y="133" type="line" smooth="yes"/>
      <point x="478" y="81"/>
      <point x="490" y="54"/>
      <point x="527" y="54" type="curve" smooth="yes"/>
      <point x="536" y="54"/>
      <point x="545" y="55"/>
      <point x="556" y="58" type="curve"/>
      <point x="556" y="3" type="line"/>
      <point x="534" y="-2"/>
      <point x="511" y="-5"/>
      <point x="488" y="-5" type="curve" smooth="yes"/>
      <point x="423" y="-5"/>
      <point x="396" y="28"/>
      <point x="392" y="101" type="curve"/>
      <point x="389" y="101" type="line"/>
      <point x="344" y="21"/>
      <point x="287" y="-10"/>
    </contour>
    <contour>
      <point x="222" y="56" type="curve" smooth="yes"/>
      <point x="319" y="52"/>
      <point x="390" y="136"/>
      <point x="389" y="217" type="curve" smooth="yes"/>
      <point x="389" y="261" type="line"/>
      <point x="293" y="259" type="line" smooth="yes"/>
      <point x="172" y="256"/>
      <point x="138" y="226"/>
      <point x="133" y="146" type="curve" smooth="yes"/>
      <point x="133" y="89"/>
      <point x="165" y="56"/>
    </contour>
    <contour>
      <point x="396" y="605" type="curve" smooth="yes"/>
      <point x="396" y="572"/>
      <point x="384" y="544"/>
      <point x="361" y="521" type="curve" smooth="yes"/>
      <point x="338" y="498"/>
      <point x="311" y="487"/>
      <point x="278" y="487" type="curve" smooth="yes"/>
      <point x="245" y="487"/>
      <point x="217" y="498"/>
      <point x="194" y="521" type="curve" smooth="yes"/>
      <point x="171" y="544"/>
      <point x="160" y="572"/>
      <point x="160" y="605" type="curve" smooth="yes"/>
      <point x="160" y="638"/>
      <point x="171" y="665"/>
      <point x="194" y="688" type="curve" smooth="yes"/>
      <point x="217" y="711"/>
      <point x="245" y="723"/>
      <point x="278" y="723" type="curve" smooth="yes"/>
      <point x="310" y="723"/>
      <point x="338" y="711"/>
      <point x="361" y="688" type="curve" smooth="yes"/>
      <point x="384" y="665"/>
      <point x="396" y="638"/>
    </contour>
    <contour>
      <point x="343" y="605" type="curve" smooth="yes"/>
      <point x="343" y="641"/>
      <point x="314" y="670"/>
      <point x="278" y="670" type="curve" smooth="yes"/>
      <point x="241" y="670"/>
      <point x="212" y="641"/>
      <point x="212" y="605" type="curve" smooth="yes"/>
      <point x="212" y="569"/>
      <point x="239" y="538"/>
      <point x="278" y="538" type="curve" smooth="yes"/>
      <point x="315" y="538"/>
      <point x="343" y="569"/>
    </contour>
    <contour>
      <point x="254" y="755" type="line"/>
      <point x="208" y="755" type="line"/>
      <point x="208" y="765" type="line"/>
      <point x="314" y="905" type="line"/>
      <point x="416" y="905" type="line"/>
      <point x="416" y="891" type="line"/>
    </contour>
  </outline>
</glyph>
<glyph name="uni0206" format="1">
  <advance width="667"/>
  <unicode hex="0206"/>
  <outline>
    <contour>
      <point x="624" y="0" type="line"/>
      <point x="82" y="0" type="line"/>
      <point x="82" y="688" type="line"/>
      <point x="604" y="688" type="line"/>
      <point x="604" y="612" type="line"/>
      <point x="175" y="612" type="line"/>
      <point x="175" y="391" type="line"/>
      <point x="575" y="391" type="line"/>
      <point x="575" y="316" type="line"/>
      <point x="175" y="316" type="line"/>
      <point x="175" y="76" type="line"/>
      <point x="624" y="76" type="line"/>
    </contour>
    <contour>
      <point x="352" y="893" type="curve" smooth="yes"/>
      <point x="429" y="893"/>
      <point x="482" y="846"/>
      <point x="494" y="766" type="curve"/>
      <point x="443" y="766" type="line"/>
      <point x="434" y="806"/>
      <point x="400" y="830"/>
      <point x="352" y="830" type="curve" smooth="yes"/>
      <point x="301" y="830"/>
      <point x="268" y="803"/>
      <point x="260" y="766" type="curve"/>
      <point x="209" y="766" type="line"/>
      <point x="218" y="843"/>
      <point x="273" y="893"/>
    </contour>
  </outline>
</glyph>
<glyph name="uni0207" format="1">
  <advance width="556"/>
  <unicode hex="0207"/>
  <outline>
    <contour>
      <point x="512" y="246" type="line"/>
      <point x="135" y="246" type="line"/>
      <point x="135" y="125"/>
      <point x="186" y="56"/>
      <point x="282" y="56" type="curve" smooth="yes"/>
      <point x="358" y="56"/>
      <point x="404" y="90"/>
      <point x="420" y="137" type="curve"/>
      <point x="498" y="115" type="line"/>
      <point x="466" y="32"/>
      <point x="394" y="-10"/>
      <point x="282" y="-10" type="curve" smooth="yes"/>
      <point x="126" y="-10"/>
      <point x="42" y="84"/>
      <point x="42" y="268" type="curve" smooth="yes"/>
      <point x="42" y="441"/>
      <point x="127" y="538"/>
      <point x="279" y="538" type="curve" smooth="yes"/>
      <point x="434" y="538"/>
      <point x="512" y="444"/>
      <point x="512" y="257" type="curve" smooth="yes"/>
    </contour>
    <contour>
      <point x="136" y="313" type="curve"/>
      <point x="421" y="313" type="line"/>
      <point x="412" y="424"/>
      <point x="365" y="473"/>
      <point x="277" y="473" type="curve" smooth="yes"/>
      <point x="192" y="473"/>
      <point x="140" y="413"/>
    </contour>
    <contour>
      <point x="278" y="716" type="curve" smooth="yes"/>
      <point x="355" y="716"/>
      <point x="409" y="669"/>
      <point x="421" y="589" type="curve"/>
      <point x="370" y="589" type="line"/>
      <point x="359" y="629"/>
      <point x="326" y="653"/>
      <point x="278" y="653" type="curve" smooth="yes"/>
      <point x="229" y="653"/>
      <point x="195" y="628"/>
      <point x="187" y="589" type="curve"/>
      <point x="136" y="589" type="line"/>
      <point x="145" y="666"/>
      <point x="201" y="716"/>
    </contour>
  </outline>
</glyph>
<glyph name="uni020A" format="1">
  <advance width="278"/>
  <unicode hex="020A"/>
  <outline>
    <contour>
      <point x="186" y="0" type="line"/>
      <point x="92" y="0" type="line"/>
      <point x="92" y="688" type="line"/>
      <point x="186" y="688" type="line"/>
    </contour>
    <contour>
      <point x="146" y="893" type="curve" smooth="yes"/>
      <point x="225" y="893"/>
      <point x="277" y="846"/>
      <point x="289" y="766" type="curve"/>
      <point x="238" y="766" type="line"/>
      <point x="227" y="806"/>
      <point x="195" y="830"/>
      <point x="146" y="830" type="curve" smooth="yes"/>
      <point x="97" y="830"/>
      <point x="63" y="803"/>
      <point x="55" y="766" type="curve"/>
      <point x="4" y="766" type="line"/>
      <point x="13" y="843"/>
      <point x="69" y="893"/>
    </contour>
  </outline>
</glyph>
<glyph name="uni020F" format="1">
  <advance width="556"/>
  <unicode hex="020F"/>
  <outline>
    <contour>
      <point x="514" y="265" type="curve" smooth="yes"/>
      <point x="514" y="80"/>
      <point x="431" y="-10"/>
      <point x="276" y="-10" type="curve" smooth="yes"/>
      <point x="121" y="-10"/>
      <point x="42" y="86"/>
      <point x="42" y="265" type="curve" smooth="yes"/>
      <point x="42" y="447"/>
      <point x="121" y="538"/>
      <point x="279" y="538" type="curve" smooth="yes"/>
      <point x="440" y="538"/>
      <point x="514" y="452"/>
    </contour>
    <contour>
      <point x="422" y="265" type="curve" smooth="yes"/>
      <point x="422" y="410"/>
      <point x="383" y="473"/>
      <point x="280" y="473" type="curve" smooth="yes"/>
      <point x="177" y="473"/>
      <point x="134" y="408"/>
      <point x="134" y="265" type="curve" smooth="yes"/>
      <point x="134" y="125"/>
      <point x="178" y="55"/>
      <point x="275" y="55" type="curve" smooth="yes"/>
      <point x="380" y="55"/>
      <point x="422" y="121"/>
    </contour>
    <contour>
      <point x="283" y="716" type="curve" smooth="yes"/>
      <point x="360" y="716"/>
      <point x="414" y="669"/>
      <point x="426" y="589" type="curve"/>
      <point x="375" y="589" type="line"/>
      <point x="364" y="629"/>
      <point x="331" y="653"/>
      <point x="283" y="653" type="curve" smooth="yes"/>
      <point x="234" y="653"/>
      <point x="200" y="628"/>
      <point x="192" y="589" type="curve"/>
      <point x="141" y="589" type="line"/>
      <point x="150" y="666"/>
      <point x="206" y="716"/>
    </contour>
  </outline>
</glyph>
<glyph name="uni0212" format="1">
  <advance width="722"/>
  <unicode hex="0212"/>
  <outline>
    <contour>
      <point x="676" y="0" type="line"/>
      <point x="568" y="0" type="line"/>
      <point x="390" y="286" type="line"/>
      <point x="175" y="286" type="line"/>
      <point x="175" y="0" type="line"/>
      <point x="82" y="0" type="line"/>
      <point x="82" y="688" type="line"/>
      <point x="406" y="688" type="line" smooth="yes"/>
      <point x="561" y="688"/>
      <point x="648" y="615"/>
      <point x="648" y="491" type="curve" smooth="yes"/>
      <point x="648" y="390"/>
      <point x="585" y="315"/>
      <point x="480" y="296" type="curve"/>
    </contour>
    <contour>
      <point x="555" y="490" type="curve" smooth="yes"/>
      <point x="555" y="570"/>
      <point x="499" y="613"/>
      <point x="396" y="613" type="curve" smooth="yes"/>
      <point x="175" y="613" type="line"/>
      <point x="175" y="359" type="line"/>
      <point x="400" y="359" type="line" smooth="yes"/>
      <point x="499" y="359"/>
      <point x="555" y="407"/>
    </contour>
    <contour>
      <point x="347" y="893" type="curve" smooth="yes"/>
      <point x="424" y="893"/>
      <point x="477" y="846"/>
      <point x="489" y="766" type="curve"/>
      <point x="438" y="766" type="line"/>
      <point x="429" y="806"/>
      <point x="395" y="830"/>
      <point x="347" y="830" type="curve" smooth="yes"/>
      <point x="298" y="830"/>
      <point x="263" y="803"/>
      <point x="255" y="766" type="curve"/>
      <point x="204" y="766" type="line"/>
      <point x="213" y="843"/>
      <point x="270" y="893"/>
    </contour>
  </outline>
</glyph>
<glyph name="uni021B" format="1">
  <advance width="278"/>
  <unicode hex="021B"/>
  <outline>
    <contour>
      <point x="271" y="69" type="curve"/>
      <point x="271" y="4" type="line"/>
      <point x="242" y="-4"/>
      <point x="212" y="-8"/>
      <point x="182" y="-8" type="curve" smooth="yes"/>
      <point x="111" y="-8"/>
      <point x="76" y="32"/>
      <point x="76" y="112" type="curve" smooth="yes"/>
      <point x="76" y="464" type="line"/>
      <point x="15" y="464" type="line"/>
      <point x="15" y="528" type="line"/>
      <point x="80" y="528" type="line"/>
      <point x="105" y="646" type="line"/>
      <point x="164" y="646" type="line"/>
      <point x="164" y="528" type="line"/>
      <point x="262" y="528" type="line"/>
      <point x="262" y="464" type="line"/>
      <point x="164" y="464" type="line"/>
      <point x="164" y="131" type="line" smooth="yes"/>
      <point x="164" y="80"/>
      <point x="179" y="62"/>
      <point x="220" y="62" type="curve" smooth="yes"/>
      <point x="231" y="62"/>
      <point x="248" y="64"/>
    </contour>
    <contour>
      <point x="226" y="-48" type="line"/>
      <point x="226" y="-94" type="line" smooth="yes"/>
      <point x="226" y="-151"/>
      <point x="210" y="-181"/>
      <point x="185" y="-212" type="curve"/>
      <point x="127" y="-212" type="line"/>
      <point x="156" y="-180"/>
      <point x="173" y="-153"/>
      <point x="173" y="-124" type="curve"/>
      <point x="130" y="-124" type="line"/>
      <point x="130" y="-48" type="line"/>
    </contour>
  </outline>
</glyph>
<glyph name="uni0223" format="1">
  <advance width="565"/>
  <unicode hex="0223"/>
  <outline>
    <contour>
      <point x="284" y="427" type="curve" smooth="yes"/>
      <point x="365" y="427"/>
      <point x="412" y="473"/>
      <point x="412" y="554" type="curve" smooth="yes"/>
      <point x="412" y="607"/>
      <point x="385" y="649"/>
      <point x="337" y="672" type="curve"/>
      <point x="373" y="728" type="line"/>
      <point x="462" y="683"/>
      <point x="500" y="627"/>
      <point x="500" y="555" type="curve" smooth="yes"/>
      <point x="500" y="472"/>
      <point x="456" y="413"/>
      <point x="384" y="392" type="curve"/>
      <point x="384" y="390" type="line"/>
      <point x="468" y="370"/>
      <point x="521" y="300"/>
      <point x="521" y="207" type="curve" smooth="yes"/>
      <point x="521" y="68"/>
      <point x="434" y="-10"/>
      <point x="283" y="-10" type="curve" smooth="yes"/>
      <point x="132" y="-10"/>
      <point x="46" y="70"/>
      <point x="46" y="207" type="curve" smooth="yes"/>
      <point x="46" y="300"/>
      <point x="100" y="370"/>
      <point x="184" y="390" type="curve"/>
      <point x="184" y="392" type="line"/>
      <point x="112" y="412"/>
      <point x="67" y="471"/>
      <point x="67" y="555" type="curve" smooth="yes"/>
      <point x="67" y="627"/>
      <point x="104" y="683"/>
      <point x="195" y="728" type="curve"/>
      <point x="231" y="672" type="line"/>
      <point x="183" y="649"/>
      <point x="156" y="607"/>
      <point x="156" y="554" type="curve" smooth="yes"/>
      <point x="156" y="473"/>
      <point x="203" y="427"/>
    </contour>
    <contour>
      <point x="284" y="363" type="curve" smooth="yes"/>
      <point x="193" y="363"/>
      <point x="135" y="303"/>
      <point x="135" y="214" type="curve" smooth="yes"/>
      <point x="135" y="113"/>
      <point x="185" y="59"/>
      <point x="284" y="59" type="curve" smooth="yes"/>
      <point x="383" y="59"/>
      <point x="433" y="113"/>
      <point x="433" y="214" type="curve" smooth="yes"/>
      <point x="433" y="301"/>
      <point x="376" y="363"/>
    </contour>
  </outline>
</glyph>
<glyph name="uni0224" format="1">
  <advance width="611"/>
  <unicode hex="0224"/>
  <outline>
    <contour>
      <point x="32" y="0" type="line"/>
      <point x="32" y="70" type="line"/>
      <point x="451" y="612" type="line"/>
      <point x="67" y="612" type="line"/>
      <point x="67" y="688" type="line"/>
      <point x="557" y="688" type="line"/>
      <point x="557" y="620" type="line"/>
      <point x="138" y="76" type="line"/>
      <point x="448" y="76" type="line" smooth="yes"/>
      <point x="535" y="76"/>
      <point x="585" y="32"/>
      <point x="585" y="-49" type="curve" smooth="yes"/>
      <point x="585" y="-74"/>
      <point x="582" y="-100"/>
      <point x="577" y="-125" type="curve"/>
      <point x="501" y="-108" type="line"/>
      <point x="507" y="-90"/>
      <point x="510" y="-76"/>
      <point x="510" y="-65" type="curve" smooth="yes"/>
      <point x="510" y="-18"/>
      <point x="489" y="0"/>
      <point x="438" y="0" type="curve" smooth="yes"/>
    </contour>
  </outline>
</glyph>
